%TF.GenerationSoftware,KiCad,Pcbnew,8.0.3*%
%TF.CreationDate,2024-07-07T15:03:45+03:00*%
%TF.ProjectId,Test,54657374-2e6b-4696-9361-645f70636258,v01*%
%TF.SameCoordinates,Original*%
%TF.FileFunction,Copper,L2,Bot*%
%TF.FilePolarity,Positive*%
%FSLAX46Y46*%
G04 Gerber Fmt 4.6, Leading zero omitted, Abs format (unit mm)*
G04 Created by KiCad (PCBNEW 8.0.3) date 2024-07-07 15:03:45*
%MOMM*%
%LPD*%
G01*
G04 APERTURE LIST*
%TA.AperFunction,ComponentPad*%
%ADD10C,1.600000*%
%TD*%
%TA.AperFunction,ComponentPad*%
%ADD11O,1.600000X1.600000*%
%TD*%
%TA.AperFunction,ComponentPad*%
%ADD12R,1.900000X1.900000*%
%TD*%
%TA.AperFunction,ComponentPad*%
%ADD13C,1.900000*%
%TD*%
%TA.AperFunction,ComponentPad*%
%ADD14R,1.800000X1.800000*%
%TD*%
%TA.AperFunction,ComponentPad*%
%ADD15C,1.800000*%
%TD*%
%TA.AperFunction,ComponentPad*%
%ADD16R,2.170000X2.170000*%
%TD*%
%TA.AperFunction,ComponentPad*%
%ADD17C,2.500000*%
%TD*%
%TA.AperFunction,ComponentPad*%
%ADD18C,1.200000*%
%TD*%
%TA.AperFunction,ComponentPad*%
%ADD19C,1.524000*%
%TD*%
%TA.AperFunction,ComponentPad*%
%ADD20R,1.500000X1.000000*%
%TD*%
%TA.AperFunction,ComponentPad*%
%ADD21O,1.500000X1.000000*%
%TD*%
%TA.AperFunction,Conductor*%
%ADD22C,0.254000*%
%TD*%
G04 APERTURE END LIST*
D10*
%TO.P,R5,1*%
%TO.N,VCC*%
X157175200Y-110312200D03*
D11*
%TO.P,R5,2*%
%TO.N,Net-(D1-A)*%
X157175200Y-102692200D03*
%TD*%
D10*
%TO.P,R1,1*%
%TO.N,VCC*%
X164414200Y-102692200D03*
D11*
%TO.P,R1,2*%
%TO.N,Net-(U1-DIS)*%
X164414200Y-110312200D03*
%TD*%
D10*
%TO.P,R4,1*%
%TO.N,Net-(C2-Pad1)*%
X171780200Y-102692200D03*
D11*
%TO.P,R4,2*%
%TO.N,GND*%
X171780200Y-110312200D03*
%TD*%
D10*
%TO.P,R7,1*%
%TO.N,Net-(C2-Pad1)*%
X177495200Y-115432200D03*
D11*
%TO.P,R7,2*%
%TO.N,Net-(Q1-B)*%
X169875200Y-115432200D03*
%TD*%
D12*
%TO.P,S1,1*%
%TO.N,unconnected-(S1-Pad1)*%
X153111200Y-108940600D03*
D13*
%TO.P,S1,2*%
%TO.N,VCC*%
X153111200Y-106440600D03*
%TO.P,S1,3*%
%TO.N,Net-(BAT1-PadPos)*%
X153111200Y-103940600D03*
%TD*%
D14*
%TO.P,D1,1,K*%
%TO.N,Net-(D1-K)*%
X146685000Y-93980000D03*
D15*
%TO.P,D1,2,A*%
%TO.N,Net-(D1-A)*%
X146685000Y-91440000D03*
%TD*%
D16*
%TO.P,BAT1,Neg*%
%TO.N,GND*%
X139268200Y-121881900D03*
D17*
%TO.P,BAT1,Pos*%
%TO.N,Net-(BAT1-PadPos)*%
X139268200Y-101881900D03*
%TD*%
D18*
%TO.P,C1,1*%
%TO.N,Net-(U1-THRESH)*%
X165582600Y-120243600D03*
%TO.P,C1,2*%
%TO.N,GND*%
X165582600Y-122243600D03*
%TD*%
D10*
%TO.P,C2,1*%
%TO.N,Net-(C2-Pad1)*%
X173685200Y-119481600D03*
%TO.P,C2,2*%
%TO.N,GND*%
X173685200Y-121981600D03*
%TD*%
%TO.P,R6,1*%
%TO.N,VCC*%
X160985200Y-110312200D03*
D11*
%TO.P,R6,2*%
%TO.N,Net-(D2-A)*%
X160985200Y-102692200D03*
%TD*%
D10*
%TO.P,R3,1*%
%TO.N,Net-(U1-OUT)*%
X175590200Y-102692200D03*
D11*
%TO.P,R3,2*%
%TO.N,Net-(C2-Pad1)*%
X175590200Y-110312200D03*
%TD*%
D10*
%TO.P,R2,1*%
%TO.N,Net-(U1-DIS)*%
X167970200Y-110312200D03*
D11*
%TO.P,R2,2*%
%TO.N,Net-(U1-THRESH)*%
X167970200Y-102692200D03*
%TD*%
D19*
%TO.P,U1,1,GND*%
%TO.N,GND*%
X152095200Y-123052200D03*
%TO.P,U1,2,~{TRIG}*%
%TO.N,Net-(U1-THRESH)*%
X154635200Y-123052200D03*
%TO.P,U1,3,OUT*%
%TO.N,Net-(U1-OUT)*%
X157175200Y-123052200D03*
%TO.P,U1,4,~{RST}*%
%TO.N,VCC*%
X159715200Y-123052200D03*
%TO.P,U1,5,CV*%
%TO.N,unconnected-(U1-CV-Pad5)*%
X159715200Y-115432200D03*
%TO.P,U1,6,THRESH*%
%TO.N,Net-(U1-THRESH)*%
X157175200Y-115432200D03*
%TO.P,U1,7,DIS*%
%TO.N,Net-(U1-DIS)*%
X154635200Y-115432200D03*
%TO.P,U1,8,VDD*%
%TO.N,VCC*%
X152095200Y-115432200D03*
%TD*%
D20*
%TO.P,Q1,1,E*%
%TO.N,GND*%
X164795200Y-114162200D03*
D21*
%TO.P,Q1,2,B*%
%TO.N,Net-(Q1-B)*%
X164795200Y-115432200D03*
%TO.P,Q1,3,C*%
%TO.N,Net-(D1-K)*%
X164795200Y-116702200D03*
%TD*%
D14*
%TO.P,D2,1,K*%
%TO.N,Net-(D1-K)*%
X159385000Y-93980000D03*
D15*
%TO.P,D2,2,A*%
%TO.N,Net-(D2-A)*%
X159385000Y-91440000D03*
%TD*%
D22*
%TO.N,GND*%
X172720000Y-110490000D02*
X168870000Y-114340000D01*
X140208000Y-122059700D02*
X151864700Y-122059700D01*
X164624800Y-124319000D02*
X154124000Y-124319000D01*
X174363000Y-122421400D02*
X174625000Y-122159400D01*
X166522400Y-122421400D02*
X174363000Y-122421400D01*
X151864700Y-122059700D02*
X153035000Y-123230000D01*
X166522400Y-122421400D02*
X164624800Y-124319000D01*
X166805600Y-114340000D02*
X174625000Y-122159400D01*
X154124000Y-124319000D02*
X153035000Y-123230000D01*
X168870000Y-114340000D02*
X165735000Y-114340000D01*
X165735000Y-114340000D02*
X166805600Y-114340000D01*
%TO.N,Net-(U1-THRESH)*%
X157175200Y-115432200D02*
X157175200Y-120512200D01*
X163718200Y-112633800D02*
X167970200Y-108381800D01*
X167970200Y-108381800D02*
X167970200Y-102692200D01*
X163718200Y-118379200D02*
X163718200Y-112633800D01*
X165582600Y-120243600D02*
X163718200Y-118379200D01*
X161986600Y-120243600D02*
X157175200Y-115432200D01*
X157175200Y-120512200D02*
X154635200Y-123052200D01*
X165582600Y-120243600D02*
X161986600Y-120243600D01*
%TO.N,Net-(D1-K)*%
X160324800Y-94157800D02*
X147624800Y-94157800D01*
%TD*%
%TA.AperFunction,Conductor*%
%TO.N,GND*%
G36*
X164562066Y-114317975D02*
G01*
X164639425Y-114395334D01*
X164689800Y-114416200D01*
X164667200Y-114416200D01*
X164599079Y-114396198D01*
X164552586Y-114342542D01*
X164541200Y-114290200D01*
X164541200Y-114267599D01*
X164562066Y-114317975D01*
G37*
%TD.AperFunction*%
%TA.AperFunction,Conductor*%
G36*
X180281621Y-41930502D02*
G01*
X180328114Y-41984158D01*
X180339500Y-42036500D01*
X180339500Y-126365500D01*
X180319498Y-126433621D01*
X180265842Y-126480114D01*
X180213500Y-126491500D01*
X127634500Y-126491500D01*
X127566379Y-126471498D01*
X127519886Y-126417842D01*
X127508500Y-126365500D01*
X127508500Y-120748302D01*
X137675200Y-120748302D01*
X137675200Y-121627900D01*
X138739347Y-121627900D01*
X138723067Y-121656098D01*
X138683200Y-121804883D01*
X138683200Y-121958917D01*
X138723067Y-122107702D01*
X138739347Y-122135900D01*
X137675200Y-122135900D01*
X137675200Y-123015497D01*
X137681705Y-123075993D01*
X137732755Y-123212864D01*
X137732755Y-123212865D01*
X137820295Y-123329804D01*
X137937234Y-123417344D01*
X138074106Y-123468394D01*
X138134602Y-123474899D01*
X138134615Y-123474900D01*
X139014200Y-123474900D01*
X139014200Y-122410752D01*
X139042398Y-122427033D01*
X139191183Y-122466900D01*
X139345217Y-122466900D01*
X139494002Y-122427033D01*
X139522200Y-122410752D01*
X139522200Y-123474900D01*
X140401785Y-123474900D01*
X140401797Y-123474899D01*
X140462293Y-123468394D01*
X140599164Y-123417344D01*
X140599165Y-123417344D01*
X140716104Y-123329804D01*
X140803644Y-123212865D01*
X140803644Y-123212864D01*
X140854694Y-123075993D01*
X140857252Y-123052200D01*
X150820349Y-123052200D01*
X150839717Y-123273574D01*
X150897231Y-123488223D01*
X150897233Y-123488227D01*
X150991146Y-123689625D01*
X151035384Y-123752803D01*
X151035385Y-123752803D01*
X151714200Y-123073988D01*
X151714200Y-123102360D01*
X151740164Y-123199261D01*
X151790324Y-123286140D01*
X151861260Y-123357076D01*
X151948139Y-123407236D01*
X152045040Y-123433200D01*
X152073410Y-123433200D01*
X151394595Y-124112013D01*
X151394595Y-124112014D01*
X151457775Y-124156253D01*
X151457774Y-124156253D01*
X151659172Y-124250166D01*
X151659176Y-124250168D01*
X151873825Y-124307682D01*
X152095200Y-124327050D01*
X152316574Y-124307682D01*
X152531223Y-124250168D01*
X152531227Y-124250166D01*
X152732625Y-124156253D01*
X152732626Y-124156252D01*
X152795803Y-124112014D01*
X152795803Y-124112012D01*
X152116991Y-123433200D01*
X152145360Y-123433200D01*
X152242261Y-123407236D01*
X152329140Y-123357076D01*
X152400076Y-123286140D01*
X152450236Y-123199261D01*
X152476200Y-123102360D01*
X152476200Y-123073991D01*
X153155012Y-123752803D01*
X153155014Y-123752803D01*
X153199252Y-123689626D01*
X153199253Y-123689625D01*
X153293166Y-123488227D01*
X153293168Y-123488223D01*
X153350682Y-123273574D01*
X153366608Y-123091546D01*
X153382028Y-123052126D01*
X153602216Y-123052126D01*
X153615659Y-123077702D01*
X153617522Y-123090178D01*
X153633406Y-123251461D01*
X153633406Y-123251463D01*
X153691532Y-123443077D01*
X153691534Y-123443083D01*
X153785920Y-123619666D01*
X153785922Y-123619669D01*
X153912948Y-123774452D01*
X154067731Y-123901478D01*
X154244320Y-123995867D01*
X154435931Y-124053992D01*
X154435935Y-124053992D01*
X154435937Y-124053993D01*
X154635197Y-124073618D01*
X154635200Y-124073618D01*
X154635203Y-124073618D01*
X154834461Y-124053993D01*
X154834463Y-124053993D01*
X154834464Y-124053992D01*
X154834469Y-124053992D01*
X155026080Y-123995867D01*
X155202669Y-123901478D01*
X155357452Y-123774452D01*
X155484478Y-123619669D01*
X155578867Y-123443080D01*
X155636992Y-123251469D01*
X155638152Y-123239690D01*
X155656618Y-123052203D01*
X155656618Y-123052196D01*
X156153782Y-123052196D01*
X156153782Y-123052203D01*
X156173406Y-123251461D01*
X156173406Y-123251463D01*
X156231532Y-123443077D01*
X156231534Y-123443083D01*
X156325920Y-123619666D01*
X156325922Y-123619669D01*
X156452948Y-123774452D01*
X156607731Y-123901478D01*
X156784320Y-123995867D01*
X156975931Y-124053992D01*
X156975935Y-124053992D01*
X156975937Y-124053993D01*
X157175197Y-124073618D01*
X157175200Y-124073618D01*
X157175203Y-124073618D01*
X157374461Y-124053993D01*
X157374463Y-124053993D01*
X157374464Y-124053992D01*
X157374469Y-124053992D01*
X157566080Y-123995867D01*
X157742669Y-123901478D01*
X157897452Y-123774452D01*
X158024478Y-123619669D01*
X158118867Y-123443080D01*
X158176992Y-123251469D01*
X158178152Y-123239690D01*
X158196618Y-123052203D01*
X158196618Y-123052196D01*
X158693782Y-123052196D01*
X158693782Y-123052203D01*
X158713406Y-123251461D01*
X158713406Y-123251463D01*
X158771532Y-123443077D01*
X158771534Y-123443083D01*
X158865920Y-123619666D01*
X158865922Y-123619669D01*
X158992948Y-123774452D01*
X159147731Y-123901478D01*
X159324320Y-123995867D01*
X159515931Y-124053992D01*
X159515935Y-124053992D01*
X159515937Y-124053993D01*
X159715197Y-124073618D01*
X159715200Y-124073618D01*
X159715203Y-124073618D01*
X159914461Y-124053993D01*
X159914463Y-124053993D01*
X159914464Y-124053992D01*
X159914469Y-124053992D01*
X160106080Y-123995867D01*
X160282669Y-123901478D01*
X160437452Y-123774452D01*
X160564478Y-123619669D01*
X160658867Y-123443080D01*
X160716992Y-123251469D01*
X160718152Y-123239690D01*
X160723458Y-123185814D01*
X164999594Y-123185814D01*
X165086607Y-123239690D01*
X165086614Y-123239693D01*
X165278074Y-123313866D01*
X165278077Y-123313867D01*
X165479931Y-123351600D01*
X165685269Y-123351600D01*
X165887122Y-123313867D01*
X165887125Y-123313866D01*
X166078588Y-123239692D01*
X166078597Y-123239687D01*
X166165605Y-123185814D01*
X165582601Y-122602810D01*
X165582600Y-122602810D01*
X164999594Y-123185814D01*
X160723458Y-123185814D01*
X160736618Y-123052203D01*
X160736618Y-123052196D01*
X160716993Y-122852938D01*
X160716993Y-122852936D01*
X160716992Y-122852933D01*
X160716992Y-122852931D01*
X160658867Y-122661320D01*
X160650448Y-122645570D01*
X160564479Y-122484733D01*
X160564478Y-122484731D01*
X160437452Y-122329948D01*
X160332230Y-122243595D01*
X164469853Y-122243595D01*
X164469853Y-122243604D01*
X164488799Y-122448061D01*
X164488799Y-122448065D01*
X164544991Y-122645562D01*
X164544994Y-122645570D01*
X164636522Y-122829385D01*
X164636525Y-122829389D01*
X164636987Y-122830000D01*
X164636988Y-122830000D01*
X165223390Y-122243599D01*
X165183895Y-122204104D01*
X165282600Y-122204104D01*
X165282600Y-122283096D01*
X165303044Y-122359396D01*
X165342540Y-122427805D01*
X165398395Y-122483660D01*
X165466804Y-122523156D01*
X165543104Y-122543600D01*
X165622096Y-122543600D01*
X165698396Y-122523156D01*
X165766805Y-122483660D01*
X165822660Y-122427805D01*
X165862156Y-122359396D01*
X165882600Y-122283096D01*
X165882600Y-122243599D01*
X165941810Y-122243599D01*
X165941810Y-122243601D01*
X166528209Y-122830000D01*
X166528212Y-122830000D01*
X166528674Y-122829390D01*
X166620205Y-122645570D01*
X166620208Y-122645562D01*
X166676400Y-122448065D01*
X166676400Y-122448061D01*
X166695347Y-122243604D01*
X166695347Y-122243595D01*
X166676400Y-122039138D01*
X166676400Y-122039134D01*
X166660030Y-121981600D01*
X172372204Y-121981600D01*
X172392151Y-122209602D01*
X172451386Y-122430668D01*
X172451388Y-122430673D01*
X172548113Y-122638101D01*
X172598099Y-122709488D01*
X173285200Y-122022388D01*
X173285200Y-122034261D01*
X173312459Y-122135994D01*
X173365120Y-122227206D01*
X173439594Y-122301680D01*
X173530806Y-122354341D01*
X173632539Y-122381600D01*
X173644410Y-122381600D01*
X172957310Y-123068698D01*
X172957310Y-123068700D01*
X173028698Y-123118686D01*
X173236126Y-123215411D01*
X173236131Y-123215413D01*
X173457199Y-123274648D01*
X173457195Y-123274648D01*
X173685200Y-123294595D01*
X173913202Y-123274648D01*
X174134268Y-123215413D01*
X174134273Y-123215411D01*
X174341697Y-123118688D01*
X174413088Y-123068699D01*
X174413088Y-123068697D01*
X173725991Y-122381600D01*
X173737861Y-122381600D01*
X173839594Y-122354341D01*
X173930806Y-122301680D01*
X174005280Y-122227206D01*
X174057941Y-122135994D01*
X174085200Y-122034261D01*
X174085200Y-122022391D01*
X174772297Y-122709488D01*
X174772299Y-122709488D01*
X174822288Y-122638097D01*
X174919011Y-122430673D01*
X174919013Y-122430668D01*
X174978248Y-122209602D01*
X174998195Y-121981600D01*
X174978248Y-121753597D01*
X174919013Y-121532531D01*
X174919011Y-121532526D01*
X174822286Y-121325098D01*
X174772300Y-121253710D01*
X174772298Y-121253710D01*
X174085200Y-121940808D01*
X174085200Y-121928939D01*
X174057941Y-121827206D01*
X174005280Y-121735994D01*
X173930806Y-121661520D01*
X173839594Y-121608859D01*
X173737861Y-121581600D01*
X173725990Y-121581600D01*
X174413088Y-120894499D01*
X174413088Y-120894498D01*
X174341701Y-120844513D01*
X174134273Y-120747788D01*
X174134271Y-120747787D01*
X174034536Y-120721063D01*
X173973914Y-120684111D01*
X173942892Y-120620250D01*
X173951321Y-120549756D01*
X173996524Y-120495009D01*
X174030571Y-120478782D01*
X174090692Y-120460545D01*
X174273883Y-120362627D01*
X174273884Y-120362625D01*
X174273886Y-120362625D01*
X174273886Y-120362624D01*
X174434452Y-120230852D01*
X174566227Y-120070283D01*
X174664145Y-119887092D01*
X174724442Y-119688318D01*
X174744802Y-119481600D01*
X174739370Y-119426446D01*
X174724443Y-119274888D01*
X174724442Y-119274886D01*
X174724442Y-119274882D01*
X174664145Y-119076108D01*
X174566227Y-118892917D01*
X174566225Y-118892913D01*
X174434452Y-118732347D01*
X174273886Y-118600574D01*
X174090692Y-118502655D01*
X173891911Y-118442356D01*
X173685203Y-118421998D01*
X173685197Y-118421998D01*
X173478488Y-118442356D01*
X173279707Y-118502655D01*
X173096513Y-118600574D01*
X172935947Y-118732347D01*
X172804175Y-118892913D01*
X172804174Y-118892913D01*
X172706255Y-119076107D01*
X172645956Y-119274888D01*
X172625598Y-119481596D01*
X172625598Y-119481603D01*
X172645956Y-119688311D01*
X172706255Y-119887092D01*
X172804174Y-120070286D01*
X172935947Y-120230852D01*
X173096513Y-120362624D01*
X173096513Y-120362625D01*
X173096517Y-120362627D01*
X173279708Y-120460545D01*
X173339827Y-120478781D01*
X173399207Y-120517696D01*
X173428123Y-120582537D01*
X173417393Y-120652718D01*
X173370424Y-120705957D01*
X173335863Y-120721062D01*
X173236139Y-120747783D01*
X173236126Y-120747788D01*
X173028700Y-120844513D01*
X172957309Y-120894500D01*
X173644409Y-121581600D01*
X173632539Y-121581600D01*
X173530806Y-121608859D01*
X173439594Y-121661520D01*
X173365120Y-121735994D01*
X173312459Y-121827206D01*
X173285200Y-121928939D01*
X173285200Y-121940809D01*
X172598100Y-121253709D01*
X172548113Y-121325100D01*
X172451388Y-121532526D01*
X172451386Y-121532531D01*
X172392151Y-121753597D01*
X172372204Y-121981600D01*
X166660030Y-121981600D01*
X166620208Y-121841637D01*
X166620205Y-121841629D01*
X166528674Y-121657810D01*
X166528211Y-121657198D01*
X165941810Y-122243599D01*
X165882600Y-122243599D01*
X165882600Y-122204104D01*
X165862156Y-122127804D01*
X165822660Y-122059395D01*
X165766805Y-122003540D01*
X165698396Y-121964044D01*
X165622096Y-121943600D01*
X165543104Y-121943600D01*
X165466804Y-121964044D01*
X165398395Y-122003540D01*
X165342540Y-122059395D01*
X165303044Y-122127804D01*
X165282600Y-122204104D01*
X165183895Y-122204104D01*
X164636989Y-121657198D01*
X164636987Y-121657198D01*
X164636523Y-121657813D01*
X164544994Y-121841629D01*
X164544991Y-121841637D01*
X164488799Y-122039134D01*
X164488799Y-122039138D01*
X164469853Y-122243595D01*
X160332230Y-122243595D01*
X160282669Y-122202922D01*
X160282667Y-122202921D01*
X160282666Y-122202920D01*
X160106083Y-122108534D01*
X160106077Y-122108532D01*
X159914462Y-122050406D01*
X159715203Y-122030782D01*
X159715197Y-122030782D01*
X159515938Y-122050406D01*
X159515936Y-122050406D01*
X159324322Y-122108532D01*
X159324316Y-122108534D01*
X159147733Y-122202920D01*
X158992948Y-122329948D01*
X158865920Y-122484733D01*
X158771534Y-122661316D01*
X158771532Y-122661322D01*
X158713406Y-122852936D01*
X158713406Y-122852938D01*
X158693782Y-123052196D01*
X158196618Y-123052196D01*
X158176993Y-122852938D01*
X158176993Y-122852936D01*
X158176992Y-122852933D01*
X158176992Y-122852931D01*
X158118867Y-122661320D01*
X158110448Y-122645570D01*
X158024479Y-122484733D01*
X158024478Y-122484731D01*
X157897452Y-122329948D01*
X157742669Y-122202922D01*
X157742667Y-122202921D01*
X157742666Y-122202920D01*
X157566083Y-122108534D01*
X157566077Y-122108532D01*
X157374462Y-122050406D01*
X157175203Y-122030782D01*
X157175197Y-122030782D01*
X156975938Y-122050406D01*
X156975936Y-122050406D01*
X156784322Y-122108532D01*
X156784316Y-122108534D01*
X156607733Y-122202920D01*
X156452948Y-122329948D01*
X156325920Y-122484733D01*
X156231534Y-122661316D01*
X156231532Y-122661322D01*
X156173406Y-122852936D01*
X156173406Y-122852938D01*
X156153782Y-123052196D01*
X155656618Y-123052196D01*
X155636993Y-122852938D01*
X155636992Y-122852935D01*
X155636992Y-122852931D01*
X155597701Y-122723410D01*
X155597068Y-122652418D01*
X155629179Y-122597742D01*
X157399070Y-120827850D01*
X157399080Y-120827843D01*
X157480470Y-120746453D01*
X157480476Y-120746447D01*
X157514332Y-120687806D01*
X157530699Y-120659458D01*
X157530699Y-120659457D01*
X157530701Y-120659454D01*
X157556700Y-120562425D01*
X157556700Y-116657413D01*
X157576702Y-116589292D01*
X157630358Y-116542799D01*
X157700632Y-116532695D01*
X157765212Y-116562189D01*
X157771795Y-116568318D01*
X161681324Y-120477847D01*
X161752353Y-120548876D01*
X161752354Y-120548877D01*
X161752356Y-120548878D01*
X161839341Y-120599099D01*
X161839343Y-120599099D01*
X161839346Y-120599101D01*
X161936375Y-120625100D01*
X164743421Y-120625100D01*
X164811542Y-120645102D01*
X164852539Y-120688098D01*
X164887487Y-120748629D01*
X164887488Y-120748630D01*
X165007678Y-120882115D01*
X165152994Y-120987694D01*
X165152995Y-120987694D01*
X165152996Y-120987695D01*
X165157457Y-120989681D01*
X165211554Y-121035658D01*
X165232206Y-121103584D01*
X165212857Y-121171893D01*
X165159648Y-121218897D01*
X165151730Y-121222280D01*
X165086601Y-121247512D01*
X165086600Y-121247512D01*
X164999593Y-121301383D01*
X164999593Y-121301384D01*
X165582599Y-121884390D01*
X165582600Y-121884390D01*
X166165605Y-121301383D01*
X166078599Y-121247513D01*
X166078590Y-121247508D01*
X166013469Y-121222280D01*
X165957175Y-121179020D01*
X165933205Y-121112192D01*
X165949170Y-121043014D01*
X166000001Y-120993449D01*
X166007713Y-120989694D01*
X166012204Y-120987695D01*
X166157522Y-120882115D01*
X166277713Y-120748629D01*
X166367525Y-120593071D01*
X166377483Y-120562425D01*
X166423031Y-120422239D01*
X166428510Y-120370107D01*
X166441807Y-120243600D01*
X166423031Y-120064961D01*
X166423031Y-120064960D01*
X166367527Y-119894133D01*
X166367524Y-119894127D01*
X166277714Y-119738573D01*
X166277713Y-119738571D01*
X166157522Y-119605085D01*
X166012204Y-119499505D01*
X165848110Y-119426446D01*
X165672412Y-119389100D01*
X165492788Y-119389100D01*
X165374010Y-119414347D01*
X165303219Y-119408945D01*
X165258718Y-119380195D01*
X164136605Y-118258082D01*
X164102579Y-118195770D01*
X164099700Y-118168987D01*
X164099700Y-117522905D01*
X164119702Y-117454784D01*
X164173358Y-117408291D01*
X164243632Y-117398187D01*
X164273919Y-117406497D01*
X164325109Y-117427701D01*
X164325113Y-117427702D01*
X164325120Y-117427705D01*
X164470888Y-117456700D01*
X164470889Y-117456700D01*
X165119511Y-117456700D01*
X165119512Y-117456700D01*
X165265280Y-117427705D01*
X165402590Y-117370829D01*
X165526166Y-117288259D01*
X165631259Y-117183166D01*
X165713829Y-117059590D01*
X165770705Y-116922280D01*
X165799700Y-116776512D01*
X165799700Y-116627888D01*
X165770705Y-116482120D01*
X165713829Y-116344810D01*
X165631259Y-116221234D01*
X165631257Y-116221232D01*
X165631252Y-116221226D01*
X165566321Y-116156295D01*
X165532295Y-116093983D01*
X165537360Y-116023168D01*
X165566321Y-115978105D01*
X165631252Y-115913173D01*
X165631259Y-115913166D01*
X165713829Y-115789590D01*
X165770705Y-115652280D01*
X165799700Y-115506512D01*
X165799700Y-115432196D01*
X168815598Y-115432196D01*
X168815598Y-115432203D01*
X168835956Y-115638911D01*
X168896255Y-115837692D01*
X168994174Y-116020886D01*
X169125947Y-116181452D01*
X169286513Y-116313224D01*
X169286513Y-116313225D01*
X169286517Y-116313227D01*
X169469708Y-116411145D01*
X169668482Y-116471442D01*
X169668486Y-116471442D01*
X169668488Y-116471443D01*
X169875197Y-116491802D01*
X169875200Y-116491802D01*
X169875203Y-116491802D01*
X170081911Y-116471443D01*
X170081912Y-116471442D01*
X170081918Y-116471442D01*
X170280692Y-116411145D01*
X170463883Y-116313227D01*
X170463884Y-116313225D01*
X170463886Y-116313225D01*
X170463886Y-116313224D01*
X170624452Y-116181452D01*
X170756227Y-116020883D01*
X170854145Y-115837692D01*
X170914442Y-115638918D01*
X170915176Y-115631472D01*
X170934802Y-115432203D01*
X170934802Y-115432196D01*
X176435598Y-115432196D01*
X176435598Y-115432203D01*
X176455956Y-115638911D01*
X176516255Y-115837692D01*
X176614174Y-116020886D01*
X176745947Y-116181452D01*
X176906513Y-116313224D01*
X176906513Y-116313225D01*
X176906517Y-116313227D01*
X177089708Y-116411145D01*
X177288482Y-116471442D01*
X177288486Y-116471442D01*
X177288488Y-116471443D01*
X177495197Y-116491802D01*
X177495200Y-116491802D01*
X177495203Y-116491802D01*
X177701911Y-116471443D01*
X177701912Y-116471442D01*
X177701918Y-116471442D01*
X177900692Y-116411145D01*
X178083883Y-116313227D01*
X178083884Y-116313225D01*
X178083886Y-116313225D01*
X178083886Y-116313224D01*
X178244452Y-116181452D01*
X178376227Y-116020883D01*
X178474145Y-115837692D01*
X178534442Y-115638918D01*
X178535176Y-115631472D01*
X178554802Y-115432203D01*
X178554802Y-115432196D01*
X178534443Y-115225488D01*
X178534442Y-115225486D01*
X178534442Y-115225482D01*
X178474145Y-115026708D01*
X178376227Y-114843517D01*
X178376225Y-114843513D01*
X178244452Y-114682947D01*
X178083886Y-114551175D01*
X178083886Y-114551174D01*
X177900692Y-114453255D01*
X177712599Y-114396198D01*
X177701918Y-114392958D01*
X177701917Y-114392957D01*
X177701911Y-114392956D01*
X177495203Y-114372598D01*
X177495197Y-114372598D01*
X177288488Y-114392956D01*
X177089707Y-114453255D01*
X176906513Y-114551174D01*
X176906513Y-114551175D01*
X176745947Y-114682947D01*
X176614175Y-114843513D01*
X176614174Y-114843513D01*
X176516255Y-115026707D01*
X176455956Y-115225488D01*
X176435598Y-115432196D01*
X170934802Y-115432196D01*
X170914443Y-115225488D01*
X170914442Y-115225486D01*
X170914442Y-115225482D01*
X170854145Y-115026708D01*
X170756227Y-114843517D01*
X170756225Y-114843513D01*
X170624452Y-114682947D01*
X170463886Y-114551175D01*
X170463886Y-114551174D01*
X170280692Y-114453255D01*
X170092599Y-114396198D01*
X170081918Y-114392958D01*
X170081917Y-114392957D01*
X170081911Y-114392956D01*
X169875203Y-114372598D01*
X169875197Y-114372598D01*
X169668488Y-114392956D01*
X169469707Y-114453255D01*
X169286513Y-114551174D01*
X169286513Y-114551175D01*
X169125947Y-114682947D01*
X168994175Y-114843513D01*
X168994174Y-114843513D01*
X168896255Y-115026707D01*
X168835956Y-115225488D01*
X168815598Y-115432196D01*
X165799700Y-115432196D01*
X165799700Y-115357888D01*
X165771623Y-115216736D01*
X165777951Y-115146024D01*
X165819693Y-115091288D01*
X165908104Y-115025104D01*
X165995644Y-114908165D01*
X165995644Y-114908164D01*
X166046694Y-114771293D01*
X166053199Y-114710797D01*
X166053200Y-114710785D01*
X166053200Y-114416200D01*
X164900600Y-114416200D01*
X164950975Y-114395334D01*
X165028334Y-114317975D01*
X165070200Y-114216901D01*
X165070200Y-114107499D01*
X165028334Y-114006425D01*
X164950975Y-113929066D01*
X164900600Y-113908200D01*
X165049200Y-113908200D01*
X166053200Y-113908200D01*
X166053200Y-113613614D01*
X166053199Y-113613602D01*
X166046694Y-113553106D01*
X165995644Y-113416235D01*
X165995644Y-113416234D01*
X165908104Y-113299295D01*
X165791165Y-113211755D01*
X165654293Y-113160705D01*
X165593797Y-113154200D01*
X165049200Y-113154200D01*
X165049200Y-113908200D01*
X164900600Y-113908200D01*
X164849901Y-113887200D01*
X164740499Y-113887200D01*
X164639425Y-113929066D01*
X164562066Y-114006425D01*
X164541200Y-114056800D01*
X164541200Y-113154200D01*
X164225700Y-113154200D01*
X164157579Y-113134198D01*
X164111086Y-113080542D01*
X164099700Y-113028200D01*
X164099700Y-112844012D01*
X164119702Y-112775891D01*
X164136600Y-112754922D01*
X166697787Y-110193734D01*
X166760097Y-110159711D01*
X166830912Y-110164775D01*
X166887748Y-110207322D01*
X166912559Y-110273842D01*
X166912274Y-110295176D01*
X166910598Y-110312199D01*
X166910598Y-110312203D01*
X166930956Y-110518911D01*
X166930957Y-110518917D01*
X166930958Y-110518918D01*
X166945301Y-110566200D01*
X166991255Y-110717692D01*
X167089174Y-110900886D01*
X167220947Y-111061452D01*
X167381513Y-111193224D01*
X167381513Y-111193225D01*
X167381517Y-111193227D01*
X167564708Y-111291145D01*
X167763482Y-111351442D01*
X167763486Y-111351442D01*
X167763488Y-111351443D01*
X167970197Y-111371802D01*
X167970200Y-111371802D01*
X167970203Y-111371802D01*
X168176911Y-111351443D01*
X168176912Y-111351442D01*
X168176918Y-111351442D01*
X168375692Y-111291145D01*
X168558883Y-111193227D01*
X168558884Y-111193225D01*
X168558886Y-111193225D01*
X168558886Y-111193224D01*
X168719452Y-111061452D01*
X168851227Y-110900883D01*
X168949145Y-110717692D01*
X169009442Y-110518918D01*
X169014596Y-110466594D01*
X169029802Y-110312203D01*
X169029802Y-110312196D01*
X169009443Y-110105488D01*
X169009442Y-110105486D01*
X169009442Y-110105482D01*
X168995099Y-110058200D01*
X170494117Y-110058200D01*
X171468514Y-110058200D01*
X171460120Y-110066594D01*
X171407459Y-110157806D01*
X171380200Y-110259539D01*
X171380200Y-110364861D01*
X171407459Y-110466594D01*
X171460120Y-110557806D01*
X171468514Y-110566200D01*
X170494118Y-110566200D01*
X170546386Y-110761268D01*
X170546388Y-110761273D01*
X170643112Y-110968698D01*
X170774384Y-111156174D01*
X170774389Y-111156180D01*
X170936219Y-111318010D01*
X170936225Y-111318015D01*
X171123701Y-111449287D01*
X171331126Y-111546011D01*
X171331131Y-111546013D01*
X171526200Y-111598281D01*
X171526200Y-110623886D01*
X171534594Y-110632280D01*
X171625806Y-110684941D01*
X171727539Y-110712200D01*
X171832861Y-110712200D01*
X171934594Y-110684941D01*
X172025806Y-110632280D01*
X172034200Y-110623886D01*
X172034200Y-111598281D01*
X172229268Y-111546013D01*
X172229273Y-111546011D01*
X172436698Y-111449287D01*
X172624174Y-111318015D01*
X172624180Y-111318010D01*
X172786010Y-111156180D01*
X172786015Y-111156174D01*
X172917287Y-110968698D01*
X173014011Y-110761273D01*
X173014013Y-110761268D01*
X173066282Y-110566200D01*
X172091886Y-110566200D01*
X172100280Y-110557806D01*
X172152941Y-110466594D01*
X172180200Y-110364861D01*
X172180200Y-110312196D01*
X174530598Y-110312196D01*
X174530598Y-110312203D01*
X174550956Y-110518911D01*
X174550957Y-110518917D01*
X174550958Y-110518918D01*
X174565301Y-110566200D01*
X174611255Y-110717692D01*
X174709174Y-110900886D01*
X174840947Y-111061452D01*
X175001513Y-111193224D01*
X175001513Y-111193225D01*
X175001517Y-111193227D01*
X175184708Y-111291145D01*
X175383482Y-111351442D01*
X175383486Y-111351442D01*
X175383488Y-111351443D01*
X175590197Y-111371802D01*
X175590200Y-111371802D01*
X175590203Y-111371802D01*
X175796911Y-111351443D01*
X175796912Y-111351442D01*
X175796918Y-111351442D01*
X175995692Y-111291145D01*
X176178883Y-111193227D01*
X176178884Y-111193225D01*
X176178886Y-111193225D01*
X176178886Y-111193224D01*
X176339452Y-111061452D01*
X176471227Y-110900883D01*
X176569145Y-110717692D01*
X176629442Y-110518918D01*
X176634596Y-110466594D01*
X176649802Y-110312203D01*
X176649802Y-110312196D01*
X176629443Y-110105488D01*
X176629442Y-110105486D01*
X176629442Y-110105482D01*
X176569145Y-109906708D01*
X176471227Y-109723517D01*
X176471225Y-109723513D01*
X176339452Y-109562947D01*
X176178886Y-109431175D01*
X176178886Y-109431174D01*
X175995692Y-109333255D01*
X175907126Y-109306389D01*
X175796918Y-109272958D01*
X175796917Y-109272957D01*
X175796911Y-109272956D01*
X175590203Y-109252598D01*
X175590197Y-109252598D01*
X175383488Y-109272956D01*
X175184707Y-109333255D01*
X175001513Y-109431174D01*
X175001513Y-109431175D01*
X174840947Y-109562947D01*
X174709175Y-109723513D01*
X174709174Y-109723513D01*
X174611255Y-109906707D01*
X174550956Y-110105488D01*
X174530598Y-110312196D01*
X172180200Y-110312196D01*
X172180200Y-110259539D01*
X172152941Y-110157806D01*
X172100280Y-110066594D01*
X172091886Y-110058200D01*
X173066282Y-110058200D01*
X173014013Y-109863131D01*
X173014011Y-109863126D01*
X172917287Y-109655701D01*
X172786015Y-109468225D01*
X172786010Y-109468219D01*
X172624180Y-109306389D01*
X172624174Y-109306384D01*
X172436698Y-109175112D01*
X172229273Y-109078388D01*
X172229271Y-109078387D01*
X172034200Y-109026117D01*
X172034200Y-110000514D01*
X172025806Y-109992120D01*
X171934594Y-109939459D01*
X171832861Y-109912200D01*
X171727539Y-109912200D01*
X171625806Y-109939459D01*
X171534594Y-109992120D01*
X171526200Y-110000514D01*
X171526200Y-109026117D01*
X171526199Y-109026117D01*
X171331128Y-109078387D01*
X171331126Y-109078388D01*
X171123701Y-109175112D01*
X170936225Y-109306384D01*
X170936219Y-109306389D01*
X170774389Y-109468219D01*
X170774384Y-109468225D01*
X170643112Y-109655701D01*
X170546388Y-109863126D01*
X170546386Y-109863131D01*
X170494117Y-110058200D01*
X168995099Y-110058200D01*
X168949145Y-109906708D01*
X168851227Y-109723517D01*
X168851225Y-109723513D01*
X168719452Y-109562947D01*
X168558886Y-109431175D01*
X168558886Y-109431174D01*
X168375692Y-109333255D01*
X168287126Y-109306389D01*
X168176918Y-109272958D01*
X168176917Y-109272957D01*
X168176911Y-109272956D01*
X167970203Y-109252598D01*
X167970201Y-109252598D01*
X167970200Y-109252598D01*
X167967512Y-109252862D01*
X167953178Y-109254274D01*
X167883425Y-109241042D01*
X167831898Y-109192200D01*
X167814958Y-109123255D01*
X167837981Y-109056095D01*
X167851729Y-109039793D01*
X168275476Y-108616047D01*
X168280760Y-108606894D01*
X168325701Y-108529054D01*
X168351700Y-108432025D01*
X168351700Y-103759489D01*
X168371702Y-103691368D01*
X168418302Y-103648368D01*
X168558883Y-103573227D01*
X168719452Y-103441452D01*
X168851227Y-103280883D01*
X168949145Y-103097692D01*
X169009442Y-102898918D01*
X169013497Y-102857754D01*
X169029802Y-102692203D01*
X169029802Y-102692196D01*
X170720598Y-102692196D01*
X170720598Y-102692203D01*
X170740956Y-102898911D01*
X170801255Y-103097692D01*
X170899174Y-103280886D01*
X171030947Y-103441452D01*
X171191513Y-103573224D01*
X171191513Y-103573225D01*
X171191517Y-103573227D01*
X171374708Y-103671145D01*
X171573482Y-103731442D01*
X171573486Y-103731442D01*
X171573488Y-103731443D01*
X171780197Y-103751802D01*
X171780200Y-103751802D01*
X171780203Y-103751802D01*
X171986911Y-103731443D01*
X171986912Y-103731442D01*
X171986918Y-103731442D01*
X172185692Y-103671145D01*
X172368883Y-103573227D01*
X172368884Y-103573225D01*
X172368886Y-103573225D01*
X172368886Y-103573224D01*
X172529452Y-103441452D01*
X172661227Y-103280883D01*
X172759145Y-103097692D01*
X172819442Y-102898918D01*
X172823497Y-102857754D01*
X172839802Y-102692203D01*
X172839802Y-102692196D01*
X174530598Y-102692196D01*
X174530598Y-102692203D01*
X174550956Y-102898911D01*
X174611255Y-103097692D01*
X174709174Y-103280886D01*
X174840947Y-103441452D01*
X175001513Y-103573224D01*
X175001513Y-103573225D01*
X175001517Y-103573227D01*
X175184708Y-103671145D01*
X175383482Y-103731442D01*
X175383486Y-103731442D01*
X175383488Y-103731443D01*
X175590197Y-103751802D01*
X175590200Y-103751802D01*
X175590203Y-103751802D01*
X175796911Y-103731443D01*
X175796912Y-103731442D01*
X175796918Y-103731442D01*
X175995692Y-103671145D01*
X176178883Y-103573227D01*
X176178884Y-103573225D01*
X176178886Y-103573225D01*
X176178886Y-103573224D01*
X176339452Y-103441452D01*
X176471227Y-103280883D01*
X176569145Y-103097692D01*
X176629442Y-102898918D01*
X176633497Y-102857754D01*
X176649802Y-102692203D01*
X176649802Y-102692196D01*
X176629443Y-102485488D01*
X176629442Y-102485486D01*
X176629442Y-102485482D01*
X176569145Y-102286708D01*
X176471227Y-102103517D01*
X176471225Y-102103513D01*
X176339452Y-101942947D01*
X176178886Y-101811175D01*
X176178886Y-101811174D01*
X175995692Y-101713255D01*
X175796911Y-101652956D01*
X175590203Y-101632598D01*
X175590197Y-101632598D01*
X175383488Y-101652956D01*
X175184707Y-101713255D01*
X175001513Y-101811174D01*
X175001513Y-101811175D01*
X174840947Y-101942947D01*
X174709175Y-102103513D01*
X174709174Y-102103513D01*
X174611255Y-102286707D01*
X174550956Y-102485488D01*
X174530598Y-102692196D01*
X172839802Y-102692196D01*
X172819443Y-102485488D01*
X172819442Y-102485486D01*
X172819442Y-102485482D01*
X172759145Y-102286708D01*
X172661227Y-102103517D01*
X172661225Y-102103513D01*
X172529452Y-101942947D01*
X172368886Y-101811175D01*
X172368886Y-101811174D01*
X172185692Y-101713255D01*
X171986911Y-101652956D01*
X171780203Y-101632598D01*
X171780197Y-101632598D01*
X171573488Y-101652956D01*
X171374707Y-101713255D01*
X171191513Y-101811174D01*
X171191513Y-101811175D01*
X171030947Y-101942947D01*
X170899175Y-102103513D01*
X170899174Y-102103513D01*
X170801255Y-102286707D01*
X170740956Y-102485488D01*
X170720598Y-102692196D01*
X169029802Y-102692196D01*
X169009443Y-102485488D01*
X169009442Y-102485486D01*
X169009442Y-102485482D01*
X168949145Y-102286708D01*
X168851227Y-102103517D01*
X168851225Y-102103513D01*
X168719452Y-101942947D01*
X168558886Y-101811175D01*
X168558886Y-101811174D01*
X168375692Y-101713255D01*
X168176911Y-101652956D01*
X167970203Y-101632598D01*
X167970197Y-101632598D01*
X167763488Y-101652956D01*
X167564707Y-101713255D01*
X167381513Y-101811174D01*
X167381513Y-101811175D01*
X167220947Y-101942947D01*
X167089175Y-102103513D01*
X167089174Y-102103513D01*
X166991255Y-102286707D01*
X166930956Y-102485488D01*
X166910598Y-102692196D01*
X166910598Y-102692203D01*
X166930956Y-102898911D01*
X166991255Y-103097692D01*
X167089174Y-103280886D01*
X167220947Y-103441452D01*
X167381513Y-103573224D01*
X167381517Y-103573227D01*
X167522096Y-103648368D01*
X167572744Y-103698119D01*
X167588700Y-103759489D01*
X167588700Y-108171586D01*
X167568698Y-108239707D01*
X167551795Y-108260681D01*
X165661101Y-110151375D01*
X165598789Y-110185401D01*
X165527974Y-110180336D01*
X165471138Y-110137789D01*
X165451432Y-110098858D01*
X165393145Y-109906708D01*
X165295227Y-109723517D01*
X165295225Y-109723513D01*
X165163452Y-109562947D01*
X165002886Y-109431175D01*
X165002886Y-109431174D01*
X164819692Y-109333255D01*
X164731126Y-109306389D01*
X164620918Y-109272958D01*
X164620917Y-109272957D01*
X164620911Y-109272956D01*
X164414203Y-109252598D01*
X164414197Y-109252598D01*
X164207488Y-109272956D01*
X164008707Y-109333255D01*
X163825513Y-109431174D01*
X163825513Y-109431175D01*
X163664947Y-109562947D01*
X163533175Y-109723513D01*
X163533174Y-109723513D01*
X163435255Y-109906707D01*
X163374956Y-110105488D01*
X163354598Y-110312196D01*
X163354598Y-110312203D01*
X163374956Y-110518911D01*
X163374957Y-110518917D01*
X163374958Y-110518918D01*
X163389301Y-110566200D01*
X163435255Y-110717692D01*
X163533174Y-110900886D01*
X163664947Y-111061452D01*
X163825513Y-111193224D01*
X163825513Y-111193225D01*
X163825517Y-111193227D01*
X164008708Y-111291145D01*
X164200858Y-111349432D01*
X164260235Y-111388345D01*
X164289151Y-111453186D01*
X164278421Y-111523367D01*
X164253375Y-111559100D01*
X163483953Y-112328524D01*
X163483952Y-112328524D01*
X163412929Y-112399546D01*
X163412921Y-112399556D01*
X163362700Y-112486541D01*
X163336700Y-112583576D01*
X163336700Y-118429423D01*
X163336699Y-118429423D01*
X163336700Y-118429425D01*
X163362699Y-118526454D01*
X163405491Y-118600573D01*
X163412924Y-118613447D01*
X163412927Y-118613450D01*
X163412930Y-118613454D01*
X164446482Y-119647005D01*
X164480507Y-119709317D01*
X164475443Y-119780132D01*
X164432896Y-119836968D01*
X164366376Y-119861779D01*
X164357387Y-119862100D01*
X162196813Y-119862100D01*
X162128692Y-119842098D01*
X162107718Y-119825195D01*
X158169182Y-115886659D01*
X158135156Y-115824347D01*
X158137703Y-115760988D01*
X158176991Y-115631472D01*
X158176993Y-115631461D01*
X158196618Y-115432203D01*
X158196618Y-115432196D01*
X158693782Y-115432196D01*
X158693782Y-115432203D01*
X158713406Y-115631461D01*
X158713406Y-115631463D01*
X158771532Y-115823077D01*
X158771534Y-115823083D01*
X158865920Y-115999666D01*
X158865922Y-115999669D01*
X158992948Y-116154452D01*
X159147731Y-116281478D01*
X159147733Y-116281479D01*
X159315674Y-116371246D01*
X159324320Y-116375867D01*
X159515931Y-116433992D01*
X159515935Y-116433992D01*
X159515937Y-116433993D01*
X159715197Y-116453618D01*
X159715200Y-116453618D01*
X159715203Y-116453618D01*
X159914461Y-116433993D01*
X159914463Y-116433993D01*
X159914464Y-116433992D01*
X159914469Y-116433992D01*
X160106080Y-116375867D01*
X160282669Y-116281478D01*
X160437452Y-116154452D01*
X160564478Y-115999669D01*
X160658867Y-115823080D01*
X160716992Y-115631469D01*
X160736618Y-115432200D01*
X160716993Y-115232938D01*
X160716993Y-115232936D01*
X160716992Y-115232933D01*
X160716992Y-115232931D01*
X160658867Y-115041320D01*
X160564478Y-114864731D01*
X160437452Y-114709948D01*
X160282669Y-114582922D01*
X160282667Y-114582921D01*
X160282666Y-114582920D01*
X160106083Y-114488534D01*
X160106077Y-114488532D01*
X159914462Y-114430406D01*
X159715203Y-114410782D01*
X159715197Y-114410782D01*
X159515938Y-114430406D01*
X159515936Y-114430406D01*
X159324322Y-114488532D01*
X159324316Y-114488534D01*
X159147733Y-114582920D01*
X158992948Y-114709948D01*
X158865920Y-114864733D01*
X158771534Y-115041316D01*
X158771532Y-115041322D01*
X158713406Y-115232936D01*
X158713406Y-115232938D01*
X158693782Y-115432196D01*
X158196618Y-115432196D01*
X158176993Y-115232938D01*
X158176993Y-115232936D01*
X158176992Y-115232933D01*
X158176992Y-115232931D01*
X158118867Y-115041320D01*
X158024478Y-114864731D01*
X157897452Y-114709948D01*
X157742669Y-114582922D01*
X157742667Y-114582921D01*
X157742666Y-114582920D01*
X157566083Y-114488534D01*
X157566077Y-114488532D01*
X157374462Y-114430406D01*
X157175203Y-114410782D01*
X157175197Y-114410782D01*
X156975938Y-114430406D01*
X156975936Y-114430406D01*
X156784322Y-114488532D01*
X156784316Y-114488534D01*
X156607733Y-114582920D01*
X156452948Y-114709948D01*
X156325920Y-114864733D01*
X156231534Y-115041316D01*
X156231532Y-115041322D01*
X156173406Y-115232936D01*
X156173406Y-115232938D01*
X156153782Y-115432196D01*
X156153782Y-115432203D01*
X156173406Y-115631461D01*
X156173406Y-115631463D01*
X156231532Y-115823077D01*
X156231534Y-115823083D01*
X156325920Y-115999666D01*
X156325922Y-115999669D01*
X156452948Y-116154452D01*
X156607731Y-116281478D01*
X156667125Y-116313225D01*
X156727096Y-116345280D01*
X156777744Y-116395032D01*
X156793700Y-116456402D01*
X156793700Y-120301986D01*
X156773698Y-120370107D01*
X156756795Y-120391081D01*
X155089657Y-122058218D01*
X155027345Y-122092244D01*
X154963986Y-122089697D01*
X154834472Y-122050408D01*
X154834461Y-122050406D01*
X154635203Y-122030782D01*
X154635197Y-122030782D01*
X154435938Y-122050406D01*
X154435936Y-122050406D01*
X154244322Y-122108532D01*
X154244316Y-122108534D01*
X154067733Y-122202920D01*
X153912948Y-122329948D01*
X153785920Y-122484733D01*
X153691534Y-122661316D01*
X153691532Y-122661322D01*
X153633406Y-122852936D01*
X153633406Y-122852938D01*
X153617522Y-123014221D01*
X153602216Y-123052126D01*
X153382028Y-123052126D01*
X153382033Y-123052113D01*
X153368336Y-123025349D01*
X153366608Y-123012853D01*
X153350682Y-122830825D01*
X153293168Y-122616176D01*
X153293166Y-122616172D01*
X153199251Y-122414771D01*
X153155015Y-122351595D01*
X153155013Y-122351595D01*
X152476200Y-123030408D01*
X152476200Y-123002040D01*
X152450236Y-122905139D01*
X152400076Y-122818260D01*
X152329140Y-122747324D01*
X152242261Y-122697164D01*
X152145360Y-122671200D01*
X152116990Y-122671200D01*
X152795803Y-121992385D01*
X152795803Y-121992384D01*
X152732625Y-121948146D01*
X152531227Y-121854233D01*
X152531223Y-121854231D01*
X152316574Y-121796717D01*
X152095200Y-121777349D01*
X151873825Y-121796717D01*
X151659176Y-121854231D01*
X151659172Y-121854233D01*
X151457775Y-121948146D01*
X151394594Y-121992385D01*
X152073409Y-122671200D01*
X152045040Y-122671200D01*
X151948139Y-122697164D01*
X151861260Y-122747324D01*
X151790324Y-122818260D01*
X151740164Y-122905139D01*
X151714200Y-123002040D01*
X151714200Y-123030409D01*
X151035385Y-122351594D01*
X150991146Y-122414775D01*
X150897233Y-122616172D01*
X150897231Y-122616176D01*
X150839717Y-122830825D01*
X150820349Y-123052200D01*
X140857252Y-123052200D01*
X140861199Y-123015497D01*
X140861200Y-123015485D01*
X140861200Y-122135900D01*
X139797053Y-122135900D01*
X139813333Y-122107702D01*
X139853200Y-121958917D01*
X139853200Y-121804883D01*
X139813333Y-121656098D01*
X139797053Y-121627900D01*
X140861200Y-121627900D01*
X140861200Y-120748314D01*
X140861199Y-120748302D01*
X140854694Y-120687806D01*
X140803644Y-120550935D01*
X140803644Y-120550934D01*
X140716104Y-120433995D01*
X140599165Y-120346455D01*
X140462293Y-120295405D01*
X140401797Y-120288900D01*
X139522200Y-120288900D01*
X139522200Y-121353047D01*
X139494002Y-121336767D01*
X139345217Y-121296900D01*
X139191183Y-121296900D01*
X139042398Y-121336767D01*
X139014200Y-121353047D01*
X139014200Y-120288900D01*
X138134602Y-120288900D01*
X138074106Y-120295405D01*
X137937235Y-120346455D01*
X137937234Y-120346455D01*
X137820295Y-120433995D01*
X137732755Y-120550934D01*
X137732755Y-120550935D01*
X137681705Y-120687806D01*
X137675200Y-120748302D01*
X127508500Y-120748302D01*
X127508500Y-115432196D01*
X151073782Y-115432196D01*
X151073782Y-115432203D01*
X151093406Y-115631461D01*
X151093406Y-115631463D01*
X151151532Y-115823077D01*
X151151534Y-115823083D01*
X151245920Y-115999666D01*
X151245922Y-115999669D01*
X151372948Y-116154452D01*
X151527731Y-116281478D01*
X151527733Y-116281479D01*
X151695674Y-116371246D01*
X151704320Y-116375867D01*
X151895931Y-116433992D01*
X151895935Y-116433992D01*
X151895937Y-116433993D01*
X152095197Y-116453618D01*
X152095200Y-116453618D01*
X152095203Y-116453618D01*
X152294461Y-116433993D01*
X152294463Y-116433993D01*
X152294464Y-116433992D01*
X152294469Y-116433992D01*
X152486080Y-116375867D01*
X152662669Y-116281478D01*
X152817452Y-116154452D01*
X152944478Y-115999669D01*
X153038867Y-115823080D01*
X153096992Y-115631469D01*
X153116618Y-115432200D01*
X153116618Y-115432196D01*
X153613782Y-115432196D01*
X153613782Y-115432203D01*
X153633406Y-115631461D01*
X153633406Y-115631463D01*
X153691532Y-115823077D01*
X153691534Y-115823083D01*
X153785920Y-115999666D01*
X153785922Y-115999669D01*
X153912948Y-116154452D01*
X154067731Y-116281478D01*
X154067733Y-116281479D01*
X154235674Y-116371246D01*
X154244320Y-116375867D01*
X154435931Y-116433992D01*
X154435935Y-116433992D01*
X154435937Y-116433993D01*
X154635197Y-116453618D01*
X154635200Y-116453618D01*
X154635203Y-116453618D01*
X154834461Y-116433993D01*
X154834463Y-116433993D01*
X154834464Y-116433992D01*
X154834469Y-116433992D01*
X155026080Y-116375867D01*
X155202669Y-116281478D01*
X155357452Y-116154452D01*
X155484478Y-115999669D01*
X155578867Y-115823080D01*
X155636992Y-115631469D01*
X155656618Y-115432200D01*
X155636993Y-115232938D01*
X155636993Y-115232936D01*
X155636992Y-115232933D01*
X155636992Y-115232931D01*
X155578867Y-115041320D01*
X155484478Y-114864731D01*
X155357452Y-114709948D01*
X155202669Y-114582922D01*
X155202667Y-114582921D01*
X155202666Y-114582920D01*
X155026083Y-114488534D01*
X155026077Y-114488532D01*
X154834462Y-114430406D01*
X154635203Y-114410782D01*
X154635197Y-114410782D01*
X154435938Y-114430406D01*
X154435936Y-114430406D01*
X154244322Y-114488532D01*
X154244316Y-114488534D01*
X154067733Y-114582920D01*
X153912948Y-114709948D01*
X153785920Y-114864733D01*
X153691534Y-115041316D01*
X153691532Y-115041322D01*
X153633406Y-115232936D01*
X153633406Y-115232938D01*
X153613782Y-115432196D01*
X153116618Y-115432196D01*
X153096993Y-115232938D01*
X153096993Y-115232936D01*
X153096992Y-115232933D01*
X153096992Y-115232931D01*
X153038867Y-115041320D01*
X152944478Y-114864731D01*
X152817452Y-114709948D01*
X152662669Y-114582922D01*
X152662667Y-114582921D01*
X152662666Y-114582920D01*
X152486083Y-114488534D01*
X152486077Y-114488532D01*
X152294462Y-114430406D01*
X152095203Y-114410782D01*
X152095197Y-114410782D01*
X151895938Y-114430406D01*
X151895936Y-114430406D01*
X151704322Y-114488532D01*
X151704316Y-114488534D01*
X151527733Y-114582920D01*
X151372948Y-114709948D01*
X151245920Y-114864733D01*
X151151534Y-115041316D01*
X151151532Y-115041322D01*
X151093406Y-115232936D01*
X151093406Y-115232938D01*
X151073782Y-115432196D01*
X127508500Y-115432196D01*
X127508500Y-110312196D01*
X156115598Y-110312196D01*
X156115598Y-110312203D01*
X156135956Y-110518911D01*
X156135957Y-110518917D01*
X156135958Y-110518918D01*
X156150301Y-110566200D01*
X156196255Y-110717692D01*
X156294174Y-110900886D01*
X156425947Y-111061452D01*
X156586513Y-111193224D01*
X156586513Y-111193225D01*
X156586517Y-111193227D01*
X156769708Y-111291145D01*
X156968482Y-111351442D01*
X156968486Y-111351442D01*
X156968488Y-111351443D01*
X157175197Y-111371802D01*
X157175200Y-111371802D01*
X157175203Y-111371802D01*
X157381911Y-111351443D01*
X157381912Y-111351442D01*
X157381918Y-111351442D01*
X157580692Y-111291145D01*
X157763883Y-111193227D01*
X157763884Y-111193225D01*
X157763886Y-111193225D01*
X157763886Y-111193224D01*
X157924452Y-111061452D01*
X158056227Y-110900883D01*
X158154145Y-110717692D01*
X158214442Y-110518918D01*
X158219596Y-110466594D01*
X158234802Y-110312203D01*
X158234802Y-110312196D01*
X159925598Y-110312196D01*
X159925598Y-110312203D01*
X159945956Y-110518911D01*
X159945957Y-110518917D01*
X159945958Y-110518918D01*
X159960301Y-110566200D01*
X160006255Y-110717692D01*
X160104174Y-110900886D01*
X160235947Y-111061452D01*
X160396513Y-111193224D01*
X160396513Y-111193225D01*
X160396517Y-111193227D01*
X160579708Y-111291145D01*
X160778482Y-111351442D01*
X160778486Y-111351442D01*
X160778488Y-111351443D01*
X160985197Y-111371802D01*
X160985200Y-111371802D01*
X160985203Y-111371802D01*
X161191911Y-111351443D01*
X161191912Y-111351442D01*
X161191918Y-111351442D01*
X161390692Y-111291145D01*
X161573883Y-111193227D01*
X161573884Y-111193225D01*
X161573886Y-111193225D01*
X161573886Y-111193224D01*
X161734452Y-111061452D01*
X161866227Y-110900883D01*
X161964145Y-110717692D01*
X162024442Y-110518918D01*
X162029596Y-110466594D01*
X162044802Y-110312203D01*
X162044802Y-110312196D01*
X162024443Y-110105488D01*
X162024442Y-110105486D01*
X162024442Y-110105482D01*
X161964145Y-109906708D01*
X161866227Y-109723517D01*
X161866225Y-109723513D01*
X161734452Y-109562947D01*
X161573886Y-109431175D01*
X161573886Y-109431174D01*
X161390692Y-109333255D01*
X161302126Y-109306389D01*
X161191918Y-109272958D01*
X161191917Y-109272957D01*
X161191911Y-109272956D01*
X160985203Y-109252598D01*
X160985197Y-109252598D01*
X160778488Y-109272956D01*
X160579707Y-109333255D01*
X160396513Y-109431174D01*
X160396513Y-109431175D01*
X160235947Y-109562947D01*
X160104175Y-109723513D01*
X160104174Y-109723513D01*
X160006255Y-109906707D01*
X159945956Y-110105488D01*
X159925598Y-110312196D01*
X158234802Y-110312196D01*
X158214443Y-110105488D01*
X158214442Y-110105486D01*
X158214442Y-110105482D01*
X158154145Y-109906708D01*
X158056227Y-109723517D01*
X158056225Y-109723513D01*
X157924452Y-109562947D01*
X157763886Y-109431175D01*
X157763886Y-109431174D01*
X157580692Y-109333255D01*
X157492126Y-109306389D01*
X157381918Y-109272958D01*
X157381917Y-109272957D01*
X157381911Y-109272956D01*
X157175203Y-109252598D01*
X157175197Y-109252598D01*
X156968488Y-109272956D01*
X156769707Y-109333255D01*
X156586513Y-109431174D01*
X156586513Y-109431175D01*
X156425947Y-109562947D01*
X156294175Y-109723513D01*
X156294174Y-109723513D01*
X156196255Y-109906707D01*
X156135956Y-110105488D01*
X156115598Y-110312196D01*
X127508500Y-110312196D01*
X127508500Y-103940595D01*
X151901540Y-103940595D01*
X151901540Y-103940604D01*
X151922136Y-104162872D01*
X151922137Y-104162874D01*
X151983226Y-104377580D01*
X152082726Y-104577404D01*
X152082727Y-104577405D01*
X152082728Y-104577407D01*
X152217248Y-104755542D01*
X152382214Y-104905928D01*
X152382216Y-104905929D01*
X152382217Y-104905930D01*
X152572008Y-105023443D01*
X152616639Y-105040733D01*
X152700209Y-105073109D01*
X152756504Y-105116368D01*
X152780474Y-105183196D01*
X152764510Y-105252374D01*
X152713679Y-105301940D01*
X152700209Y-105308091D01*
X152572014Y-105357754D01*
X152572007Y-105357757D01*
X152382214Y-105475271D01*
X152217248Y-105625657D01*
X152082728Y-105803792D01*
X151983226Y-106003620D01*
X151983223Y-106003628D01*
X151922136Y-106218327D01*
X151901540Y-106440595D01*
X151901540Y-106440604D01*
X151922136Y-106662872D01*
X151922137Y-106662874D01*
X151983226Y-106877580D01*
X152082726Y-107077404D01*
X152082727Y-107077405D01*
X152082728Y-107077407D01*
X152217248Y-107255542D01*
X152382214Y-107405928D01*
X152382216Y-107405929D01*
X152382217Y-107405930D01*
X152538950Y-107502974D01*
X152586336Y-107555839D01*
X152597619Y-107625933D01*
X152569216Y-107691000D01*
X152510143Y-107730382D01*
X152472618Y-107736100D01*
X152136136Y-107736100D01*
X152136126Y-107736101D01*
X152061899Y-107750865D01*
X151977715Y-107807116D01*
X151921466Y-107891297D01*
X151906700Y-107965530D01*
X151906700Y-109915663D01*
X151906701Y-109915673D01*
X151921465Y-109989900D01*
X151977716Y-110074084D01*
X152061897Y-110130333D01*
X152061899Y-110130334D01*
X152136133Y-110145100D01*
X154086266Y-110145099D01*
X154086269Y-110145098D01*
X154086273Y-110145098D01*
X154135526Y-110135301D01*
X154160501Y-110130334D01*
X154244684Y-110074084D01*
X154300934Y-109989901D01*
X154315700Y-109915667D01*
X154315699Y-107965534D01*
X154315698Y-107965530D01*
X154315698Y-107965526D01*
X154300934Y-107891299D01*
X154244683Y-107807115D01*
X154160502Y-107750866D01*
X154086269Y-107736100D01*
X153749782Y-107736100D01*
X153681661Y-107716098D01*
X153635168Y-107662442D01*
X153625064Y-107592168D01*
X153654558Y-107527588D01*
X153683446Y-107502976D01*
X153840183Y-107405930D01*
X154005150Y-107255543D01*
X154139674Y-107077404D01*
X154239174Y-106877580D01*
X154300263Y-106662874D01*
X154320860Y-106440600D01*
X154300263Y-106218326D01*
X154239174Y-106003620D01*
X154139674Y-105803796D01*
X154139671Y-105803792D01*
X154005151Y-105625657D01*
X153840185Y-105475271D01*
X153650392Y-105357757D01*
X153650385Y-105357754D01*
X153522190Y-105308091D01*
X153465895Y-105264832D01*
X153441925Y-105198004D01*
X153457889Y-105128826D01*
X153508720Y-105079260D01*
X153522190Y-105073109D01*
X153552469Y-105061378D01*
X153650392Y-105023443D01*
X153840183Y-104905930D01*
X154005150Y-104755543D01*
X154139674Y-104577404D01*
X154239174Y-104377580D01*
X154300263Y-104162874D01*
X154320860Y-103940600D01*
X154300263Y-103718326D01*
X154239174Y-103503620D01*
X154139674Y-103303796D01*
X154122371Y-103280883D01*
X154005151Y-103125657D01*
X153840185Y-102975271D01*
X153650392Y-102857757D01*
X153650385Y-102857754D01*
X153442245Y-102777119D01*
X153398582Y-102768957D01*
X153222813Y-102736100D01*
X152999587Y-102736100D01*
X152858033Y-102762561D01*
X152780154Y-102777119D01*
X152572014Y-102857754D01*
X152572007Y-102857757D01*
X152382214Y-102975271D01*
X152217248Y-103125657D01*
X152082728Y-103303792D01*
X151983226Y-103503620D01*
X151983223Y-103503628D01*
X151922136Y-103718327D01*
X151901540Y-103940595D01*
X127508500Y-103940595D01*
X127508500Y-101881900D01*
X137759048Y-101881900D01*
X137777628Y-102117983D01*
X137832911Y-102348254D01*
X137923536Y-102567041D01*
X138027135Y-102736100D01*
X138047271Y-102768958D01*
X138047272Y-102768960D01*
X138201067Y-102949032D01*
X138375127Y-103097692D01*
X138381143Y-103102830D01*
X138583059Y-103226564D01*
X138801846Y-103317189D01*
X139032117Y-103372472D01*
X139268200Y-103391052D01*
X139504283Y-103372472D01*
X139734554Y-103317189D01*
X139953341Y-103226564D01*
X140155257Y-103102830D01*
X140335332Y-102949032D01*
X140489130Y-102768957D01*
X140536169Y-102692196D01*
X156115598Y-102692196D01*
X156115598Y-102692203D01*
X156135956Y-102898911D01*
X156196255Y-103097692D01*
X156294174Y-103280886D01*
X156425947Y-103441452D01*
X156586513Y-103573224D01*
X156586513Y-103573225D01*
X156586517Y-103573227D01*
X156769708Y-103671145D01*
X156968482Y-103731442D01*
X156968486Y-103731442D01*
X156968488Y-103731443D01*
X157175197Y-103751802D01*
X157175200Y-103751802D01*
X157175203Y-103751802D01*
X157381911Y-103731443D01*
X157381912Y-103731442D01*
X157381918Y-103731442D01*
X157580692Y-103671145D01*
X157763883Y-103573227D01*
X157763884Y-103573225D01*
X157763886Y-103573225D01*
X157763886Y-103573224D01*
X157924452Y-103441452D01*
X158056227Y-103280883D01*
X158154145Y-103097692D01*
X158214442Y-102898918D01*
X158218497Y-102857754D01*
X158234802Y-102692203D01*
X158234802Y-102692196D01*
X159925598Y-102692196D01*
X159925598Y-102692203D01*
X159945956Y-102898911D01*
X160006255Y-103097692D01*
X160104174Y-103280886D01*
X160235947Y-103441452D01*
X160396513Y-103573224D01*
X160396513Y-103573225D01*
X160396517Y-103573227D01*
X160579708Y-103671145D01*
X160778482Y-103731442D01*
X160778486Y-103731442D01*
X160778488Y-103731443D01*
X160985197Y-103751802D01*
X160985200Y-103751802D01*
X160985203Y-103751802D01*
X161191911Y-103731443D01*
X161191912Y-103731442D01*
X161191918Y-103731442D01*
X161390692Y-103671145D01*
X161573883Y-103573227D01*
X161573884Y-103573225D01*
X161573886Y-103573225D01*
X161573886Y-103573224D01*
X161734452Y-103441452D01*
X161866227Y-103280883D01*
X161964145Y-103097692D01*
X162024442Y-102898918D01*
X162028497Y-102857754D01*
X162044802Y-102692203D01*
X162044802Y-102692196D01*
X163354598Y-102692196D01*
X163354598Y-102692203D01*
X163374956Y-102898911D01*
X163435255Y-103097692D01*
X163533174Y-103280886D01*
X163664947Y-103441452D01*
X163825513Y-103573224D01*
X163825513Y-103573225D01*
X163825517Y-103573227D01*
X164008708Y-103671145D01*
X164207482Y-103731442D01*
X164207486Y-103731442D01*
X164207488Y-103731443D01*
X164414197Y-103751802D01*
X164414200Y-103751802D01*
X164414203Y-103751802D01*
X164620911Y-103731443D01*
X164620912Y-103731442D01*
X164620918Y-103731442D01*
X164819692Y-103671145D01*
X165002883Y-103573227D01*
X165002884Y-103573225D01*
X165002886Y-103573225D01*
X165002886Y-103573224D01*
X165163452Y-103441452D01*
X165295227Y-103280883D01*
X165393145Y-103097692D01*
X165453442Y-102898918D01*
X165457497Y-102857754D01*
X165473802Y-102692203D01*
X165473802Y-102692196D01*
X165453443Y-102485488D01*
X165453442Y-102485486D01*
X165453442Y-102485482D01*
X165393145Y-102286708D01*
X165295227Y-102103517D01*
X165295225Y-102103513D01*
X165163452Y-101942947D01*
X165002886Y-101811175D01*
X165002886Y-101811174D01*
X164819692Y-101713255D01*
X164620911Y-101652956D01*
X164414203Y-101632598D01*
X164414197Y-101632598D01*
X164207488Y-101652956D01*
X164008707Y-101713255D01*
X163825513Y-101811174D01*
X163825513Y-101811175D01*
X163664947Y-101942947D01*
X163533175Y-102103513D01*
X163533174Y-102103513D01*
X163435255Y-102286707D01*
X163374956Y-102485488D01*
X163354598Y-102692196D01*
X162044802Y-102692196D01*
X162024443Y-102485488D01*
X162024442Y-102485486D01*
X162024442Y-102485482D01*
X161964145Y-102286708D01*
X161866227Y-102103517D01*
X161866225Y-102103513D01*
X161734452Y-101942947D01*
X161573886Y-101811175D01*
X161573886Y-101811174D01*
X161390692Y-101713255D01*
X161191911Y-101652956D01*
X160985203Y-101632598D01*
X160985197Y-101632598D01*
X160778488Y-101652956D01*
X160579707Y-101713255D01*
X160396513Y-101811174D01*
X160396513Y-101811175D01*
X160235947Y-101942947D01*
X160104175Y-102103513D01*
X160104174Y-102103513D01*
X160006255Y-102286707D01*
X159945956Y-102485488D01*
X159925598Y-102692196D01*
X158234802Y-102692196D01*
X158214443Y-102485488D01*
X158214442Y-102485486D01*
X158214442Y-102485482D01*
X158154145Y-102286708D01*
X158056227Y-102103517D01*
X158056225Y-102103513D01*
X157924452Y-101942947D01*
X157763886Y-101811175D01*
X157763886Y-101811174D01*
X157580692Y-101713255D01*
X157381911Y-101652956D01*
X157175203Y-101632598D01*
X157175197Y-101632598D01*
X156968488Y-101652956D01*
X156769707Y-101713255D01*
X156586513Y-101811174D01*
X156586513Y-101811175D01*
X156425947Y-101942947D01*
X156294175Y-102103513D01*
X156294174Y-102103513D01*
X156196255Y-102286707D01*
X156135956Y-102485488D01*
X156115598Y-102692196D01*
X140536169Y-102692196D01*
X140612864Y-102567041D01*
X140703489Y-102348254D01*
X140758772Y-102117983D01*
X140777352Y-101881900D01*
X140758772Y-101645817D01*
X140703489Y-101415546D01*
X140612864Y-101196759D01*
X140489130Y-100994843D01*
X140489127Y-100994839D01*
X140335332Y-100814767D01*
X140155260Y-100660972D01*
X140155258Y-100660971D01*
X140155257Y-100660970D01*
X139953341Y-100537236D01*
X139734554Y-100446611D01*
X139504283Y-100391328D01*
X139268200Y-100372748D01*
X139032117Y-100391328D01*
X138801845Y-100446611D01*
X138583060Y-100537235D01*
X138381141Y-100660971D01*
X138381139Y-100660972D01*
X138201067Y-100814767D01*
X138047272Y-100994839D01*
X138047271Y-100994841D01*
X137923535Y-101196760D01*
X137832911Y-101415545D01*
X137832911Y-101415546D01*
X137777628Y-101645817D01*
X137759048Y-101881900D01*
X127508500Y-101881900D01*
X127508500Y-91439995D01*
X145525554Y-91439995D01*
X145525554Y-91440004D01*
X145545295Y-91653044D01*
X145545295Y-91653047D01*
X145545296Y-91653048D01*
X145603849Y-91858840D01*
X145699219Y-92050370D01*
X145699220Y-92050371D01*
X145699221Y-92050373D01*
X145828155Y-92221110D01*
X145986278Y-92365258D01*
X145986279Y-92365259D01*
X146168178Y-92477886D01*
X146168181Y-92477887D01*
X146168190Y-92477893D01*
X146367698Y-92555183D01*
X146367699Y-92555183D01*
X146367703Y-92555185D01*
X146477163Y-92575646D01*
X146540445Y-92607824D01*
X146576288Y-92669108D01*
X146573307Y-92740043D01*
X146532450Y-92798105D01*
X146466688Y-92824860D01*
X146454008Y-92825500D01*
X145759936Y-92825500D01*
X145759926Y-92825501D01*
X145685699Y-92840265D01*
X145601515Y-92896516D01*
X145545266Y-92980697D01*
X145530500Y-93054930D01*
X145530500Y-94905063D01*
X145530501Y-94905073D01*
X145545265Y-94979300D01*
X145601516Y-95063484D01*
X145685697Y-95119733D01*
X145685699Y-95119734D01*
X145759933Y-95134500D01*
X147610066Y-95134499D01*
X147610069Y-95134498D01*
X147610073Y-95134498D01*
X147659326Y-95124701D01*
X147684301Y-95119734D01*
X147768484Y-95063484D01*
X147824734Y-94979301D01*
X147839500Y-94905067D01*
X147839500Y-94665300D01*
X147859502Y-94597179D01*
X147913158Y-94550686D01*
X147965500Y-94539300D01*
X158104501Y-94539300D01*
X158172622Y-94559302D01*
X158219115Y-94612958D01*
X158230501Y-94665300D01*
X158230501Y-94905072D01*
X158245265Y-94979300D01*
X158301516Y-95063484D01*
X158385697Y-95119733D01*
X158385699Y-95119734D01*
X158459933Y-95134500D01*
X160310066Y-95134499D01*
X160310069Y-95134498D01*
X160310073Y-95134498D01*
X160359326Y-95124701D01*
X160384301Y-95119734D01*
X160468484Y-95063484D01*
X160524734Y-94979301D01*
X160539500Y-94905067D01*
X160539499Y-94534813D01*
X160559501Y-94466694D01*
X160576399Y-94445723D01*
X160630076Y-94392047D01*
X160680301Y-94305054D01*
X160706300Y-94208025D01*
X160706300Y-94107575D01*
X160680301Y-94010546D01*
X160680299Y-94010543D01*
X160680299Y-94010541D01*
X160630078Y-93923556D01*
X160630070Y-93923546D01*
X160576404Y-93869880D01*
X160542378Y-93807568D01*
X160539499Y-93780785D01*
X160539499Y-93054936D01*
X160539498Y-93054927D01*
X160524734Y-92980699D01*
X160468483Y-92896515D01*
X160384302Y-92840266D01*
X160310069Y-92825500D01*
X159615993Y-92825500D01*
X159547872Y-92805498D01*
X159501379Y-92751842D01*
X159491275Y-92681568D01*
X159520769Y-92616988D01*
X159580495Y-92578604D01*
X159592825Y-92575648D01*
X159702297Y-92555185D01*
X159901810Y-92477893D01*
X160083722Y-92365258D01*
X160241841Y-92221114D01*
X160370781Y-92050370D01*
X160466151Y-91858840D01*
X160524704Y-91653048D01*
X160544446Y-91440000D01*
X160524704Y-91226952D01*
X160466151Y-91021160D01*
X160370781Y-90829630D01*
X160370778Y-90829626D01*
X160241844Y-90658889D01*
X160083721Y-90514741D01*
X160083720Y-90514740D01*
X159901821Y-90402113D01*
X159901814Y-90402109D01*
X159901810Y-90402107D01*
X159901805Y-90402105D01*
X159702301Y-90324816D01*
X159702302Y-90324816D01*
X159702297Y-90324815D01*
X159491980Y-90285500D01*
X159278020Y-90285500D01*
X159119313Y-90315167D01*
X159067697Y-90324816D01*
X158868194Y-90402105D01*
X158868178Y-90402113D01*
X158686279Y-90514740D01*
X158686278Y-90514741D01*
X158528155Y-90658889D01*
X158399221Y-90829626D01*
X158303849Y-91021160D01*
X158303847Y-91021165D01*
X158245295Y-91226955D01*
X158225554Y-91439995D01*
X158225554Y-91440004D01*
X158245295Y-91653044D01*
X158245295Y-91653047D01*
X158245296Y-91653048D01*
X158303849Y-91858840D01*
X158399219Y-92050370D01*
X158399220Y-92050371D01*
X158399221Y-92050373D01*
X158528155Y-92221110D01*
X158686278Y-92365258D01*
X158686279Y-92365259D01*
X158868178Y-92477886D01*
X158868181Y-92477887D01*
X158868190Y-92477893D01*
X159067698Y-92555183D01*
X159067699Y-92555183D01*
X159067703Y-92555185D01*
X159177163Y-92575646D01*
X159240445Y-92607824D01*
X159276288Y-92669108D01*
X159273307Y-92740043D01*
X159232450Y-92798105D01*
X159166688Y-92824860D01*
X159154008Y-92825500D01*
X158459936Y-92825500D01*
X158459926Y-92825501D01*
X158385699Y-92840265D01*
X158301515Y-92896516D01*
X158245266Y-92980697D01*
X158230500Y-93054930D01*
X158230500Y-93650300D01*
X158210498Y-93718421D01*
X158156842Y-93764914D01*
X158104500Y-93776300D01*
X147965499Y-93776300D01*
X147897378Y-93756298D01*
X147850885Y-93702642D01*
X147839499Y-93650300D01*
X147839499Y-93054936D01*
X147839498Y-93054927D01*
X147824734Y-92980699D01*
X147768483Y-92896515D01*
X147684302Y-92840266D01*
X147610069Y-92825500D01*
X146915993Y-92825500D01*
X146847872Y-92805498D01*
X146801379Y-92751842D01*
X146791275Y-92681568D01*
X146820769Y-92616988D01*
X146880495Y-92578604D01*
X146892825Y-92575648D01*
X147002297Y-92555185D01*
X147201810Y-92477893D01*
X147383722Y-92365258D01*
X147541841Y-92221114D01*
X147670781Y-92050370D01*
X147766151Y-91858840D01*
X147824704Y-91653048D01*
X147844446Y-91440000D01*
X147824704Y-91226952D01*
X147766151Y-91021160D01*
X147670781Y-90829630D01*
X147670778Y-90829626D01*
X147541844Y-90658889D01*
X147383721Y-90514741D01*
X147383720Y-90514740D01*
X147201821Y-90402113D01*
X147201814Y-90402109D01*
X147201810Y-90402107D01*
X147201805Y-90402105D01*
X147002301Y-90324816D01*
X147002302Y-90324816D01*
X147002297Y-90324815D01*
X146791980Y-90285500D01*
X146578020Y-90285500D01*
X146419313Y-90315167D01*
X146367697Y-90324816D01*
X146168194Y-90402105D01*
X146168178Y-90402113D01*
X145986279Y-90514740D01*
X145986278Y-90514741D01*
X145828155Y-90658889D01*
X145699221Y-90829626D01*
X145603849Y-91021160D01*
X145603847Y-91021165D01*
X145545295Y-91226955D01*
X145525554Y-91439995D01*
X127508500Y-91439995D01*
X127508500Y-45846994D01*
X146425728Y-45846994D01*
X146425728Y-45847005D01*
X146444795Y-46150073D01*
X146444796Y-46150086D01*
X146444797Y-46150090D01*
X146501702Y-46448400D01*
X146595548Y-46737225D01*
X146724852Y-47012011D01*
X146724854Y-47012014D01*
X146724857Y-47012020D01*
X146887576Y-47268425D01*
X146887579Y-47268428D01*
X147081153Y-47502418D01*
X147081156Y-47502421D01*
X147302535Y-47710311D01*
X147548225Y-47888815D01*
X147814350Y-48035118D01*
X148019617Y-48116388D01*
X148096707Y-48146911D01*
X148096710Y-48146911D01*
X148096713Y-48146913D01*
X148390861Y-48222438D01*
X148692155Y-48260500D01*
X148692159Y-48260500D01*
X159155841Y-48260500D01*
X159155845Y-48260500D01*
X159457139Y-48222438D01*
X159751287Y-48146913D01*
X160033650Y-48035118D01*
X160299775Y-47888815D01*
X160545465Y-47710311D01*
X160766844Y-47502421D01*
X160960423Y-47268425D01*
X161123148Y-47012011D01*
X161252452Y-46737225D01*
X161346298Y-46448400D01*
X161403203Y-46150090D01*
X161422272Y-45847000D01*
X161408527Y-45628539D01*
X161403204Y-45543926D01*
X161403203Y-45543910D01*
X161346298Y-45245600D01*
X161252452Y-44956775D01*
X161123148Y-44681989D01*
X161123142Y-44681979D01*
X160960423Y-44425574D01*
X160960420Y-44425571D01*
X160766846Y-44191581D01*
X160766842Y-44191577D01*
X160545463Y-43983687D01*
X160299777Y-43805186D01*
X160258990Y-43782763D01*
X160033650Y-43658882D01*
X159952378Y-43626704D01*
X159751292Y-43547088D01*
X159751274Y-43547083D01*
X159457153Y-43471565D01*
X159457145Y-43471563D01*
X159457139Y-43471562D01*
X159457129Y-43471560D01*
X159457125Y-43471560D01*
X159155859Y-43433501D01*
X159155848Y-43433500D01*
X159155845Y-43433500D01*
X159070945Y-43433500D01*
X148910945Y-43433500D01*
X148844000Y-43433500D01*
X148692155Y-43433500D01*
X148692152Y-43433500D01*
X148692140Y-43433501D01*
X148390874Y-43471560D01*
X148390867Y-43471561D01*
X148390861Y-43471562D01*
X148390856Y-43471563D01*
X148390846Y-43471565D01*
X148096725Y-43547083D01*
X148096707Y-43547088D01*
X147814350Y-43658882D01*
X147548222Y-43805186D01*
X147302536Y-43983687D01*
X147081157Y-44191577D01*
X147081153Y-44191581D01*
X146887579Y-44425571D01*
X146887576Y-44425574D01*
X146724857Y-44681979D01*
X146724850Y-44681993D01*
X146595551Y-44956768D01*
X146595549Y-44956772D01*
X146501703Y-45245596D01*
X146501701Y-45245603D01*
X146444798Y-45543903D01*
X146444795Y-45543926D01*
X146425728Y-45846994D01*
X127508500Y-45846994D01*
X127508500Y-42036500D01*
X127528502Y-41968379D01*
X127582158Y-41921886D01*
X127634500Y-41910500D01*
X180213500Y-41910500D01*
X180281621Y-41930502D01*
G37*
%TD.AperFunction*%
%TD*%
M02*
