%TF.GenerationSoftware,KiCad,Pcbnew,8.0.3*%
%TF.CreationDate,2024-07-07T15:03:45+03:00*%
%TF.ProjectId,Test,54657374-2e6b-4696-9361-645f70636258,v01*%
%TF.SameCoordinates,Original*%
%TF.FileFunction,Legend,Bot*%
%TF.FilePolarity,Positive*%
%FSLAX46Y46*%
G04 Gerber Fmt 4.6, Leading zero omitted, Abs format (unit mm)*
G04 Created by KiCad (PCBNEW 8.0.3) date 2024-07-07 15:03:45*
%MOMM*%
%LPD*%
G01*
G04 APERTURE LIST*
%ADD10C,0.508000*%
G04 APERTURE END LIST*
D10*
X170571504Y-82212736D02*
X171781028Y-82212736D01*
X171781028Y-82212736D02*
X171901980Y-83422260D01*
X171901980Y-83422260D02*
X171781028Y-83301307D01*
X171781028Y-83301307D02*
X171539123Y-83180355D01*
X171539123Y-83180355D02*
X170934361Y-83180355D01*
X170934361Y-83180355D02*
X170692456Y-83301307D01*
X170692456Y-83301307D02*
X170571504Y-83422260D01*
X170571504Y-83422260D02*
X170450551Y-83664164D01*
X170450551Y-83664164D02*
X170450551Y-84268926D01*
X170450551Y-84268926D02*
X170571504Y-84510831D01*
X170571504Y-84510831D02*
X170692456Y-84631784D01*
X170692456Y-84631784D02*
X170934361Y-84752736D01*
X170934361Y-84752736D02*
X171539123Y-84752736D01*
X171539123Y-84752736D02*
X171781028Y-84631784D01*
X171781028Y-84631784D02*
X171901980Y-84510831D01*
X168152456Y-82212736D02*
X169361980Y-82212736D01*
X169361980Y-82212736D02*
X169482932Y-83422260D01*
X169482932Y-83422260D02*
X169361980Y-83301307D01*
X169361980Y-83301307D02*
X169120075Y-83180355D01*
X169120075Y-83180355D02*
X168515313Y-83180355D01*
X168515313Y-83180355D02*
X168273408Y-83301307D01*
X168273408Y-83301307D02*
X168152456Y-83422260D01*
X168152456Y-83422260D02*
X168031503Y-83664164D01*
X168031503Y-83664164D02*
X168031503Y-84268926D01*
X168031503Y-84268926D02*
X168152456Y-84510831D01*
X168152456Y-84510831D02*
X168273408Y-84631784D01*
X168273408Y-84631784D02*
X168515313Y-84752736D01*
X168515313Y-84752736D02*
X169120075Y-84752736D01*
X169120075Y-84752736D02*
X169361980Y-84631784D01*
X169361980Y-84631784D02*
X169482932Y-84510831D01*
X165733408Y-82212736D02*
X166942932Y-82212736D01*
X166942932Y-82212736D02*
X167063884Y-83422260D01*
X167063884Y-83422260D02*
X166942932Y-83301307D01*
X166942932Y-83301307D02*
X166701027Y-83180355D01*
X166701027Y-83180355D02*
X166096265Y-83180355D01*
X166096265Y-83180355D02*
X165854360Y-83301307D01*
X165854360Y-83301307D02*
X165733408Y-83422260D01*
X165733408Y-83422260D02*
X165612455Y-83664164D01*
X165612455Y-83664164D02*
X165612455Y-84268926D01*
X165612455Y-84268926D02*
X165733408Y-84510831D01*
X165733408Y-84510831D02*
X165854360Y-84631784D01*
X165854360Y-84631784D02*
X166096265Y-84752736D01*
X166096265Y-84752736D02*
X166701027Y-84752736D01*
X166701027Y-84752736D02*
X166942932Y-84631784D01*
X166942932Y-84631784D02*
X167063884Y-84510831D01*
X161741979Y-83422260D02*
X161379122Y-83543212D01*
X161379122Y-83543212D02*
X161258169Y-83664164D01*
X161258169Y-83664164D02*
X161137217Y-83906069D01*
X161137217Y-83906069D02*
X161137217Y-84268926D01*
X161137217Y-84268926D02*
X161258169Y-84510831D01*
X161258169Y-84510831D02*
X161379122Y-84631784D01*
X161379122Y-84631784D02*
X161621027Y-84752736D01*
X161621027Y-84752736D02*
X162588646Y-84752736D01*
X162588646Y-84752736D02*
X162588646Y-82212736D01*
X162588646Y-82212736D02*
X161741979Y-82212736D01*
X161741979Y-82212736D02*
X161500074Y-82333688D01*
X161500074Y-82333688D02*
X161379122Y-82454641D01*
X161379122Y-82454641D02*
X161258169Y-82696545D01*
X161258169Y-82696545D02*
X161258169Y-82938450D01*
X161258169Y-82938450D02*
X161379122Y-83180355D01*
X161379122Y-83180355D02*
X161500074Y-83301307D01*
X161500074Y-83301307D02*
X161741979Y-83422260D01*
X161741979Y-83422260D02*
X162588646Y-83422260D01*
X158960074Y-84752736D02*
X158960074Y-83422260D01*
X158960074Y-83422260D02*
X159081027Y-83180355D01*
X159081027Y-83180355D02*
X159322931Y-83059403D01*
X159322931Y-83059403D02*
X159806741Y-83059403D01*
X159806741Y-83059403D02*
X160048646Y-83180355D01*
X158960074Y-84631784D02*
X159201979Y-84752736D01*
X159201979Y-84752736D02*
X159806741Y-84752736D01*
X159806741Y-84752736D02*
X160048646Y-84631784D01*
X160048646Y-84631784D02*
X160169598Y-84389879D01*
X160169598Y-84389879D02*
X160169598Y-84147974D01*
X160169598Y-84147974D02*
X160048646Y-83906069D01*
X160048646Y-83906069D02*
X159806741Y-83785117D01*
X159806741Y-83785117D02*
X159201979Y-83785117D01*
X159201979Y-83785117D02*
X158960074Y-83664164D01*
X156661979Y-84752736D02*
X156661979Y-82212736D01*
X156661979Y-84631784D02*
X156903884Y-84752736D01*
X156903884Y-84752736D02*
X157387693Y-84752736D01*
X157387693Y-84752736D02*
X157629598Y-84631784D01*
X157629598Y-84631784D02*
X157750551Y-84510831D01*
X157750551Y-84510831D02*
X157871503Y-84268926D01*
X157871503Y-84268926D02*
X157871503Y-83543212D01*
X157871503Y-83543212D02*
X157750551Y-83301307D01*
X157750551Y-83301307D02*
X157629598Y-83180355D01*
X157629598Y-83180355D02*
X157387693Y-83059403D01*
X157387693Y-83059403D02*
X156903884Y-83059403D01*
X156903884Y-83059403D02*
X156661979Y-83180355D01*
X154363884Y-83059403D02*
X154363884Y-85115593D01*
X154363884Y-85115593D02*
X154484837Y-85357498D01*
X154484837Y-85357498D02*
X154605789Y-85478450D01*
X154605789Y-85478450D02*
X154847694Y-85599403D01*
X154847694Y-85599403D02*
X155210551Y-85599403D01*
X155210551Y-85599403D02*
X155452456Y-85478450D01*
X154363884Y-84631784D02*
X154605789Y-84752736D01*
X154605789Y-84752736D02*
X155089598Y-84752736D01*
X155089598Y-84752736D02*
X155331503Y-84631784D01*
X155331503Y-84631784D02*
X155452456Y-84510831D01*
X155452456Y-84510831D02*
X155573408Y-84268926D01*
X155573408Y-84268926D02*
X155573408Y-83543212D01*
X155573408Y-83543212D02*
X155452456Y-83301307D01*
X155452456Y-83301307D02*
X155331503Y-83180355D01*
X155331503Y-83180355D02*
X155089598Y-83059403D01*
X155089598Y-83059403D02*
X154605789Y-83059403D01*
X154605789Y-83059403D02*
X154363884Y-83180355D01*
X152186742Y-84631784D02*
X152428646Y-84752736D01*
X152428646Y-84752736D02*
X152912456Y-84752736D01*
X152912456Y-84752736D02*
X153154361Y-84631784D01*
X153154361Y-84631784D02*
X153275313Y-84389879D01*
X153275313Y-84389879D02*
X153275313Y-83422260D01*
X153275313Y-83422260D02*
X153154361Y-83180355D01*
X153154361Y-83180355D02*
X152912456Y-83059403D01*
X152912456Y-83059403D02*
X152428646Y-83059403D01*
X152428646Y-83059403D02*
X152186742Y-83180355D01*
X152186742Y-83180355D02*
X152065789Y-83422260D01*
X152065789Y-83422260D02*
X152065789Y-83664164D01*
X152065789Y-83664164D02*
X153275313Y-83906069D01*
X149283884Y-83059403D02*
X148679122Y-84752736D01*
X148679122Y-84752736D02*
X148074361Y-83059403D01*
X146139123Y-84631784D02*
X146381027Y-84752736D01*
X146381027Y-84752736D02*
X146864837Y-84752736D01*
X146864837Y-84752736D02*
X147106742Y-84631784D01*
X147106742Y-84631784D02*
X147227694Y-84389879D01*
X147227694Y-84389879D02*
X147227694Y-83422260D01*
X147227694Y-83422260D02*
X147106742Y-83180355D01*
X147106742Y-83180355D02*
X146864837Y-83059403D01*
X146864837Y-83059403D02*
X146381027Y-83059403D01*
X146381027Y-83059403D02*
X146139123Y-83180355D01*
X146139123Y-83180355D02*
X146018170Y-83422260D01*
X146018170Y-83422260D02*
X146018170Y-83664164D01*
X146018170Y-83664164D02*
X147227694Y-83906069D01*
X144929599Y-84752736D02*
X144929599Y-83059403D01*
X144929599Y-83543212D02*
X144808646Y-83301307D01*
X144808646Y-83301307D02*
X144687694Y-83180355D01*
X144687694Y-83180355D02*
X144445789Y-83059403D01*
X144445789Y-83059403D02*
X144203884Y-83059403D01*
X143357218Y-84510831D02*
X143236265Y-84631784D01*
X143236265Y-84631784D02*
X143357218Y-84752736D01*
X143357218Y-84752736D02*
X143478170Y-84631784D01*
X143478170Y-84631784D02*
X143357218Y-84510831D01*
X143357218Y-84510831D02*
X143357218Y-84752736D01*
X140212456Y-84752736D02*
X140212456Y-82212736D01*
X139123884Y-84027022D02*
X137914360Y-84027022D01*
X139365789Y-84752736D02*
X138519122Y-82212736D01*
X138519122Y-82212736D02*
X137672455Y-84752736D01*
X136825789Y-84752736D02*
X136825789Y-82212736D01*
X136825789Y-82212736D02*
X135858170Y-82212736D01*
X135858170Y-82212736D02*
X135616265Y-82333688D01*
X135616265Y-82333688D02*
X135495312Y-82454641D01*
X135495312Y-82454641D02*
X135374360Y-82696545D01*
X135374360Y-82696545D02*
X135374360Y-83059403D01*
X135374360Y-83059403D02*
X135495312Y-83301307D01*
X135495312Y-83301307D02*
X135616265Y-83422260D01*
X135616265Y-83422260D02*
X135858170Y-83543212D01*
X135858170Y-83543212D02*
X136825789Y-83543212D01*
M02*
