%TF.GenerationSoftware,KiCad,Pcbnew,8.0.3*%
%TF.CreationDate,2024-07-07T15:03:49+03:00*%
%TF.ProjectId,Test,54657374-2e6b-4696-9361-645f70636258,v01*%
%TF.SameCoordinates,Original*%
%TF.FileFunction,Drillmap*%
%TF.FilePolarity,Positive*%
%FSLAX45Y45*%
G04 Gerber Fmt 4.5, Leading zero omitted, Abs format (unit mm)*
G04 Created by KiCad (PCBNEW 8.0.3) date 2024-07-07 15:03:49*
%MOMM*%
%LPD*%
G01*
G04 APERTURE LIST*
%ADD10C,0.025400*%
%ADD11C,0.200000*%
%ADD12C,0.100000*%
%ADD13C,0.117000*%
%ADD14C,0.150000*%
G04 APERTURE END LIST*
D10*
X14884400Y-4775200D02*
G75*
G02*
X14884400Y-4394200I0J190500D01*
G01*
X14884400Y-4394200D02*
X15900400Y-4394200D01*
X18084800Y-12700000D02*
X18084800Y-4140200D01*
X14884400Y-4775200D02*
X15900400Y-4775200D01*
X12700000Y-4140200D02*
X12700000Y-12700000D01*
X15900400Y-4394200D02*
G75*
G02*
X15900400Y-4775200I0J-190500D01*
G01*
X12700000Y-12700000D02*
X18084800Y-12700000D01*
X18084800Y-4140200D02*
X12700000Y-4140200D01*
D11*
D12*
X16452020Y-11388720D02*
X16507020Y-11443720D01*
X16507020Y-11388720D02*
X16452020Y-11443720D01*
X16452020Y-11515720D02*
X16507020Y-11570720D01*
X16507020Y-11515720D02*
X16452020Y-11570720D01*
X16452020Y-11642720D02*
X16507020Y-11697720D01*
X16507020Y-11642720D02*
X16452020Y-11697720D01*
X16588260Y-12024360D02*
G75*
G02*
X16528260Y-12024360I-30000J0D01*
G01*
X16528260Y-12024360D02*
G75*
G02*
X16588260Y-12024360I30000J0D01*
G01*
X16588260Y-12224360D02*
G75*
G02*
X16528260Y-12224360I-30000J0D01*
G01*
X16528260Y-12224360D02*
G75*
G02*
X16588260Y-12224360I30000J0D01*
G01*
X15209520Y-11505120D02*
X15209520Y-11581320D01*
X15171420Y-11543220D02*
X15247620Y-11543220D01*
X15209520Y-12267120D02*
X15209520Y-12343320D01*
X15171420Y-12305220D02*
X15247620Y-12305220D01*
X15463520Y-11505120D02*
X15463520Y-11581320D01*
X15425420Y-11543220D02*
X15501620Y-11543220D01*
X15463520Y-12267120D02*
X15463520Y-12343320D01*
X15425420Y-12305220D02*
X15501620Y-12305220D01*
X15717520Y-11505120D02*
X15717520Y-11581320D01*
X15679420Y-11543220D02*
X15755620Y-11543220D01*
X15717520Y-12267120D02*
X15717520Y-12343320D01*
X15679420Y-12305220D02*
X15755620Y-12305220D01*
X15971520Y-11505120D02*
X15971520Y-11581320D01*
X15933420Y-11543220D02*
X16009620Y-11543220D01*
X15971520Y-12267120D02*
X15971520Y-12343320D01*
X15933420Y-12305220D02*
X16009620Y-12305220D01*
X15745804Y-10297505D02*
X15745804Y-10240936D01*
X15689235Y-10240936D01*
X15689235Y-10297505D01*
X15745804Y-10297505D01*
X15745804Y-11059505D02*
X15745804Y-11002936D01*
X15689235Y-11002936D01*
X15689235Y-11059505D01*
X15745804Y-11059505D01*
X16126804Y-10297505D02*
X16126804Y-10240936D01*
X16070235Y-10240936D01*
X16070235Y-10297505D01*
X16126804Y-10297505D01*
X16126804Y-11059505D02*
X16126804Y-11002936D01*
X16070235Y-11002936D01*
X16070235Y-11059505D01*
X16126804Y-11059505D01*
X16469704Y-10297505D02*
X16469704Y-10240936D01*
X16413135Y-10240936D01*
X16413135Y-10297505D01*
X16469704Y-10297505D01*
X16469704Y-11059505D02*
X16469704Y-11002936D01*
X16413135Y-11002936D01*
X16413135Y-11059505D01*
X16469704Y-11059505D01*
X16825305Y-10297505D02*
X16825305Y-10240936D01*
X16768735Y-10240936D01*
X16768735Y-10297505D01*
X16825305Y-10297505D01*
X16825305Y-11059505D02*
X16825305Y-11002936D01*
X16768735Y-11002936D01*
X16768735Y-11059505D01*
X16825305Y-11059505D01*
X17015805Y-11571504D02*
X17015805Y-11514935D01*
X16959236Y-11514935D01*
X16959236Y-11571504D01*
X17015805Y-11571504D01*
X17206305Y-10297505D02*
X17206305Y-10240936D01*
X17149736Y-10240936D01*
X17149736Y-10297505D01*
X17206305Y-10297505D01*
X17206305Y-11059505D02*
X17206305Y-11002936D01*
X17149736Y-11002936D01*
X17149736Y-11059505D01*
X17206305Y-11059505D01*
X17396805Y-11976444D02*
X17396805Y-11919875D01*
X17340236Y-11919875D01*
X17340236Y-11976444D01*
X17396805Y-11976444D01*
X17396805Y-12226444D02*
X17396805Y-12169875D01*
X17340236Y-12169875D01*
X17340236Y-12226444D01*
X17396805Y-12226444D01*
X17587305Y-10297505D02*
X17587305Y-10240936D01*
X17530736Y-10240936D01*
X17530736Y-10297505D01*
X17587305Y-10297505D01*
X17587305Y-11059505D02*
X17587305Y-11002936D01*
X17530736Y-11002936D01*
X17530736Y-11059505D01*
X17587305Y-11059505D01*
X17777805Y-11571504D02*
X17777805Y-11514935D01*
X17721236Y-11514935D01*
X17721236Y-11571504D01*
X17777805Y-11571504D01*
X14668500Y-9189000D02*
X14713500Y-9144000D01*
X14668500Y-9099000D01*
X14623500Y-9144000D01*
X14668500Y-9189000D01*
X14668500Y-9443000D02*
X14713500Y-9398000D01*
X14668500Y-9353000D01*
X14623500Y-9398000D01*
X14668500Y-9443000D01*
X15311120Y-10439060D02*
X15356120Y-10394060D01*
X15311120Y-10349060D01*
X15266120Y-10394060D01*
X15311120Y-10439060D01*
X15311120Y-10689060D02*
X15356120Y-10644060D01*
X15311120Y-10599060D01*
X15266120Y-10644060D01*
X15311120Y-10689060D01*
X15311120Y-10939060D02*
X15356120Y-10894060D01*
X15311120Y-10849060D01*
X15266120Y-10894060D01*
X15311120Y-10939060D01*
X15938500Y-9189000D02*
X15983500Y-9144000D01*
X15938500Y-9099000D01*
X15893500Y-9144000D01*
X15938500Y-9189000D01*
X15938500Y-9443000D02*
X15983500Y-9398000D01*
X15938500Y-9353000D01*
X15893500Y-9398000D01*
X15938500Y-9443000D01*
D13*
X13868320Y-12129690D02*
X13985320Y-12246690D01*
X13985320Y-12129690D02*
X13868320Y-12246690D01*
X13985320Y-12188190D02*
G75*
G02*
X13868320Y-12188190I-58500J0D01*
G01*
X13868320Y-12188190D02*
G75*
G02*
X13985320Y-12188190I58500J0D01*
G01*
D14*
X13851820Y-10113190D02*
X14001820Y-10263190D01*
X14001820Y-10113190D02*
X13851820Y-10263190D01*
X13926820Y-10113190D02*
X13926820Y-10263190D01*
X13851820Y-10188190D02*
X14001820Y-10188190D01*
D11*
X12959507Y-13012754D02*
X12959507Y-12812754D01*
X12959507Y-12812754D02*
X13007126Y-12812754D01*
X13007126Y-12812754D02*
X13035697Y-12822278D01*
X13035697Y-12822278D02*
X13054745Y-12841325D01*
X13054745Y-12841325D02*
X13064269Y-12860373D01*
X13064269Y-12860373D02*
X13073792Y-12898468D01*
X13073792Y-12898468D02*
X13073792Y-12927039D01*
X13073792Y-12927039D02*
X13064269Y-12965135D01*
X13064269Y-12965135D02*
X13054745Y-12984182D01*
X13054745Y-12984182D02*
X13035697Y-13003230D01*
X13035697Y-13003230D02*
X13007126Y-13012754D01*
X13007126Y-13012754D02*
X12959507Y-13012754D01*
X13159507Y-13012754D02*
X13159507Y-12879420D01*
X13159507Y-12917516D02*
X13169031Y-12898468D01*
X13169031Y-12898468D02*
X13178554Y-12888944D01*
X13178554Y-12888944D02*
X13197602Y-12879420D01*
X13197602Y-12879420D02*
X13216650Y-12879420D01*
X13283316Y-13012754D02*
X13283316Y-12879420D01*
X13283316Y-12812754D02*
X13273792Y-12822278D01*
X13273792Y-12822278D02*
X13283316Y-12831801D01*
X13283316Y-12831801D02*
X13292840Y-12822278D01*
X13292840Y-12822278D02*
X13283316Y-12812754D01*
X13283316Y-12812754D02*
X13283316Y-12831801D01*
X13407126Y-13012754D02*
X13388078Y-13003230D01*
X13388078Y-13003230D02*
X13378554Y-12984182D01*
X13378554Y-12984182D02*
X13378554Y-12812754D01*
X13511888Y-13012754D02*
X13492840Y-13003230D01*
X13492840Y-13003230D02*
X13483316Y-12984182D01*
X13483316Y-12984182D02*
X13483316Y-12812754D01*
X13740459Y-13012754D02*
X13740459Y-12812754D01*
X13740459Y-12812754D02*
X13807126Y-12955611D01*
X13807126Y-12955611D02*
X13873792Y-12812754D01*
X13873792Y-12812754D02*
X13873792Y-13012754D01*
X14054745Y-13012754D02*
X14054745Y-12907992D01*
X14054745Y-12907992D02*
X14045221Y-12888944D01*
X14045221Y-12888944D02*
X14026173Y-12879420D01*
X14026173Y-12879420D02*
X13988078Y-12879420D01*
X13988078Y-12879420D02*
X13969031Y-12888944D01*
X14054745Y-13003230D02*
X14035697Y-13012754D01*
X14035697Y-13012754D02*
X13988078Y-13012754D01*
X13988078Y-13012754D02*
X13969031Y-13003230D01*
X13969031Y-13003230D02*
X13959507Y-12984182D01*
X13959507Y-12984182D02*
X13959507Y-12965135D01*
X13959507Y-12965135D02*
X13969031Y-12946087D01*
X13969031Y-12946087D02*
X13988078Y-12936563D01*
X13988078Y-12936563D02*
X14035697Y-12936563D01*
X14035697Y-12936563D02*
X14054745Y-12927039D01*
X14149983Y-12879420D02*
X14149983Y-13079420D01*
X14149983Y-12888944D02*
X14169031Y-12879420D01*
X14169031Y-12879420D02*
X14207126Y-12879420D01*
X14207126Y-12879420D02*
X14226173Y-12888944D01*
X14226173Y-12888944D02*
X14235697Y-12898468D01*
X14235697Y-12898468D02*
X14245221Y-12917516D01*
X14245221Y-12917516D02*
X14245221Y-12974658D01*
X14245221Y-12974658D02*
X14235697Y-12993706D01*
X14235697Y-12993706D02*
X14226173Y-13003230D01*
X14226173Y-13003230D02*
X14207126Y-13012754D01*
X14207126Y-13012754D02*
X14169031Y-13012754D01*
X14169031Y-13012754D02*
X14149983Y-13003230D01*
X14330935Y-12993706D02*
X14340459Y-13003230D01*
X14340459Y-13003230D02*
X14330935Y-13012754D01*
X14330935Y-13012754D02*
X14321412Y-13003230D01*
X14321412Y-13003230D02*
X14330935Y-12993706D01*
X14330935Y-12993706D02*
X14330935Y-13012754D01*
X14330935Y-12888944D02*
X14340459Y-12898468D01*
X14340459Y-12898468D02*
X14330935Y-12907992D01*
X14330935Y-12907992D02*
X14321412Y-12898468D01*
X14321412Y-12898468D02*
X14330935Y-12888944D01*
X14330935Y-12888944D02*
X14330935Y-12907992D01*
D12*
X12643730Y-13313770D02*
X12698730Y-13368770D01*
X12698730Y-13313770D02*
X12643730Y-13368770D01*
D11*
X12997602Y-13232754D02*
X13016650Y-13232754D01*
X13016650Y-13232754D02*
X13035697Y-13242278D01*
X13035697Y-13242278D02*
X13045221Y-13251801D01*
X13045221Y-13251801D02*
X13054745Y-13270849D01*
X13054745Y-13270849D02*
X13064269Y-13308944D01*
X13064269Y-13308944D02*
X13064269Y-13356563D01*
X13064269Y-13356563D02*
X13054745Y-13394658D01*
X13054745Y-13394658D02*
X13045221Y-13413706D01*
X13045221Y-13413706D02*
X13035697Y-13423230D01*
X13035697Y-13423230D02*
X13016650Y-13432754D01*
X13016650Y-13432754D02*
X12997602Y-13432754D01*
X12997602Y-13432754D02*
X12978554Y-13423230D01*
X12978554Y-13423230D02*
X12969031Y-13413706D01*
X12969031Y-13413706D02*
X12959507Y-13394658D01*
X12959507Y-13394658D02*
X12949983Y-13356563D01*
X12949983Y-13356563D02*
X12949983Y-13308944D01*
X12949983Y-13308944D02*
X12959507Y-13270849D01*
X12959507Y-13270849D02*
X12969031Y-13251801D01*
X12969031Y-13251801D02*
X12978554Y-13242278D01*
X12978554Y-13242278D02*
X12997602Y-13232754D01*
X13149983Y-13413706D02*
X13159507Y-13423230D01*
X13159507Y-13423230D02*
X13149983Y-13432754D01*
X13149983Y-13432754D02*
X13140459Y-13423230D01*
X13140459Y-13423230D02*
X13149983Y-13413706D01*
X13149983Y-13413706D02*
X13149983Y-13432754D01*
X13340459Y-13232754D02*
X13245221Y-13232754D01*
X13245221Y-13232754D02*
X13235697Y-13327992D01*
X13235697Y-13327992D02*
X13245221Y-13318468D01*
X13245221Y-13318468D02*
X13264269Y-13308944D01*
X13264269Y-13308944D02*
X13311888Y-13308944D01*
X13311888Y-13308944D02*
X13330935Y-13318468D01*
X13330935Y-13318468D02*
X13340459Y-13327992D01*
X13340459Y-13327992D02*
X13349983Y-13347039D01*
X13349983Y-13347039D02*
X13349983Y-13394658D01*
X13349983Y-13394658D02*
X13340459Y-13413706D01*
X13340459Y-13413706D02*
X13330935Y-13423230D01*
X13330935Y-13423230D02*
X13311888Y-13432754D01*
X13311888Y-13432754D02*
X13264269Y-13432754D01*
X13264269Y-13432754D02*
X13245221Y-13423230D01*
X13245221Y-13423230D02*
X13235697Y-13413706D01*
X13530935Y-13232754D02*
X13435697Y-13232754D01*
X13435697Y-13232754D02*
X13426173Y-13327992D01*
X13426173Y-13327992D02*
X13435697Y-13318468D01*
X13435697Y-13318468D02*
X13454745Y-13308944D01*
X13454745Y-13308944D02*
X13502364Y-13308944D01*
X13502364Y-13308944D02*
X13521412Y-13318468D01*
X13521412Y-13318468D02*
X13530935Y-13327992D01*
X13530935Y-13327992D02*
X13540459Y-13347039D01*
X13540459Y-13347039D02*
X13540459Y-13394658D01*
X13540459Y-13394658D02*
X13530935Y-13413706D01*
X13530935Y-13413706D02*
X13521412Y-13423230D01*
X13521412Y-13423230D02*
X13502364Y-13432754D01*
X13502364Y-13432754D02*
X13454745Y-13432754D01*
X13454745Y-13432754D02*
X13435697Y-13423230D01*
X13435697Y-13423230D02*
X13426173Y-13413706D01*
X13664269Y-13232754D02*
X13683316Y-13232754D01*
X13683316Y-13232754D02*
X13702364Y-13242278D01*
X13702364Y-13242278D02*
X13711888Y-13251801D01*
X13711888Y-13251801D02*
X13721412Y-13270849D01*
X13721412Y-13270849D02*
X13730935Y-13308944D01*
X13730935Y-13308944D02*
X13730935Y-13356563D01*
X13730935Y-13356563D02*
X13721412Y-13394658D01*
X13721412Y-13394658D02*
X13711888Y-13413706D01*
X13711888Y-13413706D02*
X13702364Y-13423230D01*
X13702364Y-13423230D02*
X13683316Y-13432754D01*
X13683316Y-13432754D02*
X13664269Y-13432754D01*
X13664269Y-13432754D02*
X13645221Y-13423230D01*
X13645221Y-13423230D02*
X13635697Y-13413706D01*
X13635697Y-13413706D02*
X13626173Y-13394658D01*
X13626173Y-13394658D02*
X13616650Y-13356563D01*
X13616650Y-13356563D02*
X13616650Y-13308944D01*
X13616650Y-13308944D02*
X13626173Y-13270849D01*
X13626173Y-13270849D02*
X13635697Y-13251801D01*
X13635697Y-13251801D02*
X13645221Y-13242278D01*
X13645221Y-13242278D02*
X13664269Y-13232754D01*
X13816650Y-13432754D02*
X13816650Y-13299420D01*
X13816650Y-13318468D02*
X13826173Y-13308944D01*
X13826173Y-13308944D02*
X13845221Y-13299420D01*
X13845221Y-13299420D02*
X13873793Y-13299420D01*
X13873793Y-13299420D02*
X13892840Y-13308944D01*
X13892840Y-13308944D02*
X13902364Y-13327992D01*
X13902364Y-13327992D02*
X13902364Y-13432754D01*
X13902364Y-13327992D02*
X13911888Y-13308944D01*
X13911888Y-13308944D02*
X13930935Y-13299420D01*
X13930935Y-13299420D02*
X13959507Y-13299420D01*
X13959507Y-13299420D02*
X13978554Y-13308944D01*
X13978554Y-13308944D02*
X13988078Y-13327992D01*
X13988078Y-13327992D02*
X13988078Y-13432754D01*
X14083316Y-13432754D02*
X14083316Y-13299420D01*
X14083316Y-13318468D02*
X14092840Y-13308944D01*
X14092840Y-13308944D02*
X14111888Y-13299420D01*
X14111888Y-13299420D02*
X14140459Y-13299420D01*
X14140459Y-13299420D02*
X14159507Y-13308944D01*
X14159507Y-13308944D02*
X14169031Y-13327992D01*
X14169031Y-13327992D02*
X14169031Y-13432754D01*
X14169031Y-13327992D02*
X14178554Y-13308944D01*
X14178554Y-13308944D02*
X14197602Y-13299420D01*
X14197602Y-13299420D02*
X14226173Y-13299420D01*
X14226173Y-13299420D02*
X14245221Y-13308944D01*
X14245221Y-13308944D02*
X14254745Y-13327992D01*
X14254745Y-13327992D02*
X14254745Y-13432754D01*
X14645221Y-13223230D02*
X14473793Y-13480373D01*
X14902364Y-13232754D02*
X14921412Y-13232754D01*
X14921412Y-13232754D02*
X14940459Y-13242278D01*
X14940459Y-13242278D02*
X14949983Y-13251801D01*
X14949983Y-13251801D02*
X14959507Y-13270849D01*
X14959507Y-13270849D02*
X14969031Y-13308944D01*
X14969031Y-13308944D02*
X14969031Y-13356563D01*
X14969031Y-13356563D02*
X14959507Y-13394658D01*
X14959507Y-13394658D02*
X14949983Y-13413706D01*
X14949983Y-13413706D02*
X14940459Y-13423230D01*
X14940459Y-13423230D02*
X14921412Y-13432754D01*
X14921412Y-13432754D02*
X14902364Y-13432754D01*
X14902364Y-13432754D02*
X14883316Y-13423230D01*
X14883316Y-13423230D02*
X14873793Y-13413706D01*
X14873793Y-13413706D02*
X14864269Y-13394658D01*
X14864269Y-13394658D02*
X14854745Y-13356563D01*
X14854745Y-13356563D02*
X14854745Y-13308944D01*
X14854745Y-13308944D02*
X14864269Y-13270849D01*
X14864269Y-13270849D02*
X14873793Y-13251801D01*
X14873793Y-13251801D02*
X14883316Y-13242278D01*
X14883316Y-13242278D02*
X14902364Y-13232754D01*
X15054745Y-13413706D02*
X15064269Y-13423230D01*
X15064269Y-13423230D02*
X15054745Y-13432754D01*
X15054745Y-13432754D02*
X15045221Y-13423230D01*
X15045221Y-13423230D02*
X15054745Y-13413706D01*
X15054745Y-13413706D02*
X15054745Y-13432754D01*
X15188078Y-13232754D02*
X15207126Y-13232754D01*
X15207126Y-13232754D02*
X15226174Y-13242278D01*
X15226174Y-13242278D02*
X15235697Y-13251801D01*
X15235697Y-13251801D02*
X15245221Y-13270849D01*
X15245221Y-13270849D02*
X15254745Y-13308944D01*
X15254745Y-13308944D02*
X15254745Y-13356563D01*
X15254745Y-13356563D02*
X15245221Y-13394658D01*
X15245221Y-13394658D02*
X15235697Y-13413706D01*
X15235697Y-13413706D02*
X15226174Y-13423230D01*
X15226174Y-13423230D02*
X15207126Y-13432754D01*
X15207126Y-13432754D02*
X15188078Y-13432754D01*
X15188078Y-13432754D02*
X15169031Y-13423230D01*
X15169031Y-13423230D02*
X15159507Y-13413706D01*
X15159507Y-13413706D02*
X15149983Y-13394658D01*
X15149983Y-13394658D02*
X15140459Y-13356563D01*
X15140459Y-13356563D02*
X15140459Y-13308944D01*
X15140459Y-13308944D02*
X15149983Y-13270849D01*
X15149983Y-13270849D02*
X15159507Y-13251801D01*
X15159507Y-13251801D02*
X15169031Y-13242278D01*
X15169031Y-13242278D02*
X15188078Y-13232754D01*
X15330936Y-13251801D02*
X15340459Y-13242278D01*
X15340459Y-13242278D02*
X15359507Y-13232754D01*
X15359507Y-13232754D02*
X15407126Y-13232754D01*
X15407126Y-13232754D02*
X15426174Y-13242278D01*
X15426174Y-13242278D02*
X15435697Y-13251801D01*
X15435697Y-13251801D02*
X15445221Y-13270849D01*
X15445221Y-13270849D02*
X15445221Y-13289897D01*
X15445221Y-13289897D02*
X15435697Y-13318468D01*
X15435697Y-13318468D02*
X15321412Y-13432754D01*
X15321412Y-13432754D02*
X15445221Y-13432754D01*
X15635697Y-13432754D02*
X15521412Y-13432754D01*
X15578555Y-13432754D02*
X15578555Y-13232754D01*
X15578555Y-13232754D02*
X15559507Y-13261325D01*
X15559507Y-13261325D02*
X15540459Y-13280373D01*
X15540459Y-13280373D02*
X15521412Y-13289897D01*
X15702364Y-13232754D02*
X15835697Y-13232754D01*
X15835697Y-13232754D02*
X15749983Y-13432754D01*
X15902364Y-13232754D02*
X15902364Y-13270849D01*
X15978555Y-13232754D02*
X15978555Y-13270849D01*
X16273793Y-13508944D02*
X16264269Y-13499420D01*
X16264269Y-13499420D02*
X16245221Y-13470849D01*
X16245221Y-13470849D02*
X16235698Y-13451801D01*
X16235698Y-13451801D02*
X16226174Y-13423230D01*
X16226174Y-13423230D02*
X16216650Y-13375611D01*
X16216650Y-13375611D02*
X16216650Y-13337516D01*
X16216650Y-13337516D02*
X16226174Y-13289897D01*
X16226174Y-13289897D02*
X16235698Y-13261325D01*
X16235698Y-13261325D02*
X16245221Y-13242278D01*
X16245221Y-13242278D02*
X16264269Y-13213706D01*
X16264269Y-13213706D02*
X16273793Y-13204182D01*
X16330936Y-13232754D02*
X16454745Y-13232754D01*
X16454745Y-13232754D02*
X16388078Y-13308944D01*
X16388078Y-13308944D02*
X16416650Y-13308944D01*
X16416650Y-13308944D02*
X16435698Y-13318468D01*
X16435698Y-13318468D02*
X16445221Y-13327992D01*
X16445221Y-13327992D02*
X16454745Y-13347039D01*
X16454745Y-13347039D02*
X16454745Y-13394658D01*
X16454745Y-13394658D02*
X16445221Y-13413706D01*
X16445221Y-13413706D02*
X16435698Y-13423230D01*
X16435698Y-13423230D02*
X16416650Y-13432754D01*
X16416650Y-13432754D02*
X16359507Y-13432754D01*
X16359507Y-13432754D02*
X16340459Y-13423230D01*
X16340459Y-13423230D02*
X16330936Y-13413706D01*
X16692840Y-13432754D02*
X16692840Y-13232754D01*
X16778555Y-13432754D02*
X16778555Y-13327992D01*
X16778555Y-13327992D02*
X16769031Y-13308944D01*
X16769031Y-13308944D02*
X16749983Y-13299420D01*
X16749983Y-13299420D02*
X16721412Y-13299420D01*
X16721412Y-13299420D02*
X16702364Y-13308944D01*
X16702364Y-13308944D02*
X16692840Y-13318468D01*
X16902364Y-13432754D02*
X16883317Y-13423230D01*
X16883317Y-13423230D02*
X16873793Y-13413706D01*
X16873793Y-13413706D02*
X16864269Y-13394658D01*
X16864269Y-13394658D02*
X16864269Y-13337516D01*
X16864269Y-13337516D02*
X16873793Y-13318468D01*
X16873793Y-13318468D02*
X16883317Y-13308944D01*
X16883317Y-13308944D02*
X16902364Y-13299420D01*
X16902364Y-13299420D02*
X16930936Y-13299420D01*
X16930936Y-13299420D02*
X16949983Y-13308944D01*
X16949983Y-13308944D02*
X16959507Y-13318468D01*
X16959507Y-13318468D02*
X16969031Y-13337516D01*
X16969031Y-13337516D02*
X16969031Y-13394658D01*
X16969031Y-13394658D02*
X16959507Y-13413706D01*
X16959507Y-13413706D02*
X16949983Y-13423230D01*
X16949983Y-13423230D02*
X16930936Y-13432754D01*
X16930936Y-13432754D02*
X16902364Y-13432754D01*
X17083317Y-13432754D02*
X17064269Y-13423230D01*
X17064269Y-13423230D02*
X17054745Y-13404182D01*
X17054745Y-13404182D02*
X17054745Y-13232754D01*
X17235698Y-13423230D02*
X17216650Y-13432754D01*
X17216650Y-13432754D02*
X17178555Y-13432754D01*
X17178555Y-13432754D02*
X17159507Y-13423230D01*
X17159507Y-13423230D02*
X17149983Y-13404182D01*
X17149983Y-13404182D02*
X17149983Y-13327992D01*
X17149983Y-13327992D02*
X17159507Y-13308944D01*
X17159507Y-13308944D02*
X17178555Y-13299420D01*
X17178555Y-13299420D02*
X17216650Y-13299420D01*
X17216650Y-13299420D02*
X17235698Y-13308944D01*
X17235698Y-13308944D02*
X17245222Y-13327992D01*
X17245222Y-13327992D02*
X17245222Y-13347039D01*
X17245222Y-13347039D02*
X17149983Y-13366087D01*
X17321412Y-13423230D02*
X17340460Y-13432754D01*
X17340460Y-13432754D02*
X17378555Y-13432754D01*
X17378555Y-13432754D02*
X17397603Y-13423230D01*
X17397603Y-13423230D02*
X17407126Y-13404182D01*
X17407126Y-13404182D02*
X17407126Y-13394658D01*
X17407126Y-13394658D02*
X17397603Y-13375611D01*
X17397603Y-13375611D02*
X17378555Y-13366087D01*
X17378555Y-13366087D02*
X17349983Y-13366087D01*
X17349983Y-13366087D02*
X17330936Y-13356563D01*
X17330936Y-13356563D02*
X17321412Y-13337516D01*
X17321412Y-13337516D02*
X17321412Y-13327992D01*
X17321412Y-13327992D02*
X17330936Y-13308944D01*
X17330936Y-13308944D02*
X17349983Y-13299420D01*
X17349983Y-13299420D02*
X17378555Y-13299420D01*
X17378555Y-13299420D02*
X17397603Y-13308944D01*
X17473793Y-13508944D02*
X17483317Y-13499420D01*
X17483317Y-13499420D02*
X17502364Y-13470849D01*
X17502364Y-13470849D02*
X17511888Y-13451801D01*
X17511888Y-13451801D02*
X17521412Y-13423230D01*
X17521412Y-13423230D02*
X17530936Y-13375611D01*
X17530936Y-13375611D02*
X17530936Y-13337516D01*
X17530936Y-13337516D02*
X17521412Y-13289897D01*
X17521412Y-13289897D02*
X17511888Y-13261325D01*
X17511888Y-13261325D02*
X17502364Y-13242278D01*
X17502364Y-13242278D02*
X17483317Y-13213706D01*
X17483317Y-13213706D02*
X17473793Y-13204182D01*
D12*
X12698730Y-13605270D02*
G75*
G02*
X12638730Y-13605270I-30000J0D01*
G01*
X12638730Y-13605270D02*
G75*
G02*
X12698730Y-13605270I30000J0D01*
G01*
D11*
X12997602Y-13496754D02*
X13016650Y-13496754D01*
X13016650Y-13496754D02*
X13035697Y-13506278D01*
X13035697Y-13506278D02*
X13045221Y-13515801D01*
X13045221Y-13515801D02*
X13054745Y-13534849D01*
X13054745Y-13534849D02*
X13064269Y-13572944D01*
X13064269Y-13572944D02*
X13064269Y-13620563D01*
X13064269Y-13620563D02*
X13054745Y-13658658D01*
X13054745Y-13658658D02*
X13045221Y-13677706D01*
X13045221Y-13677706D02*
X13035697Y-13687230D01*
X13035697Y-13687230D02*
X13016650Y-13696754D01*
X13016650Y-13696754D02*
X12997602Y-13696754D01*
X12997602Y-13696754D02*
X12978554Y-13687230D01*
X12978554Y-13687230D02*
X12969031Y-13677706D01*
X12969031Y-13677706D02*
X12959507Y-13658658D01*
X12959507Y-13658658D02*
X12949983Y-13620563D01*
X12949983Y-13620563D02*
X12949983Y-13572944D01*
X12949983Y-13572944D02*
X12959507Y-13534849D01*
X12959507Y-13534849D02*
X12969031Y-13515801D01*
X12969031Y-13515801D02*
X12978554Y-13506278D01*
X12978554Y-13506278D02*
X12997602Y-13496754D01*
X13149983Y-13677706D02*
X13159507Y-13687230D01*
X13159507Y-13687230D02*
X13149983Y-13696754D01*
X13149983Y-13696754D02*
X13140459Y-13687230D01*
X13140459Y-13687230D02*
X13149983Y-13677706D01*
X13149983Y-13677706D02*
X13149983Y-13696754D01*
X13330935Y-13496754D02*
X13292840Y-13496754D01*
X13292840Y-13496754D02*
X13273792Y-13506278D01*
X13273792Y-13506278D02*
X13264269Y-13515801D01*
X13264269Y-13515801D02*
X13245221Y-13544373D01*
X13245221Y-13544373D02*
X13235697Y-13582468D01*
X13235697Y-13582468D02*
X13235697Y-13658658D01*
X13235697Y-13658658D02*
X13245221Y-13677706D01*
X13245221Y-13677706D02*
X13254745Y-13687230D01*
X13254745Y-13687230D02*
X13273792Y-13696754D01*
X13273792Y-13696754D02*
X13311888Y-13696754D01*
X13311888Y-13696754D02*
X13330935Y-13687230D01*
X13330935Y-13687230D02*
X13340459Y-13677706D01*
X13340459Y-13677706D02*
X13349983Y-13658658D01*
X13349983Y-13658658D02*
X13349983Y-13611039D01*
X13349983Y-13611039D02*
X13340459Y-13591992D01*
X13340459Y-13591992D02*
X13330935Y-13582468D01*
X13330935Y-13582468D02*
X13311888Y-13572944D01*
X13311888Y-13572944D02*
X13273792Y-13572944D01*
X13273792Y-13572944D02*
X13254745Y-13582468D01*
X13254745Y-13582468D02*
X13245221Y-13591992D01*
X13245221Y-13591992D02*
X13235697Y-13611039D01*
X13473792Y-13496754D02*
X13492840Y-13496754D01*
X13492840Y-13496754D02*
X13511888Y-13506278D01*
X13511888Y-13506278D02*
X13521412Y-13515801D01*
X13521412Y-13515801D02*
X13530935Y-13534849D01*
X13530935Y-13534849D02*
X13540459Y-13572944D01*
X13540459Y-13572944D02*
X13540459Y-13620563D01*
X13540459Y-13620563D02*
X13530935Y-13658658D01*
X13530935Y-13658658D02*
X13521412Y-13677706D01*
X13521412Y-13677706D02*
X13511888Y-13687230D01*
X13511888Y-13687230D02*
X13492840Y-13696754D01*
X13492840Y-13696754D02*
X13473792Y-13696754D01*
X13473792Y-13696754D02*
X13454745Y-13687230D01*
X13454745Y-13687230D02*
X13445221Y-13677706D01*
X13445221Y-13677706D02*
X13435697Y-13658658D01*
X13435697Y-13658658D02*
X13426173Y-13620563D01*
X13426173Y-13620563D02*
X13426173Y-13572944D01*
X13426173Y-13572944D02*
X13435697Y-13534849D01*
X13435697Y-13534849D02*
X13445221Y-13515801D01*
X13445221Y-13515801D02*
X13454745Y-13506278D01*
X13454745Y-13506278D02*
X13473792Y-13496754D01*
X13664269Y-13496754D02*
X13683316Y-13496754D01*
X13683316Y-13496754D02*
X13702364Y-13506278D01*
X13702364Y-13506278D02*
X13711888Y-13515801D01*
X13711888Y-13515801D02*
X13721412Y-13534849D01*
X13721412Y-13534849D02*
X13730935Y-13572944D01*
X13730935Y-13572944D02*
X13730935Y-13620563D01*
X13730935Y-13620563D02*
X13721412Y-13658658D01*
X13721412Y-13658658D02*
X13711888Y-13677706D01*
X13711888Y-13677706D02*
X13702364Y-13687230D01*
X13702364Y-13687230D02*
X13683316Y-13696754D01*
X13683316Y-13696754D02*
X13664269Y-13696754D01*
X13664269Y-13696754D02*
X13645221Y-13687230D01*
X13645221Y-13687230D02*
X13635697Y-13677706D01*
X13635697Y-13677706D02*
X13626173Y-13658658D01*
X13626173Y-13658658D02*
X13616650Y-13620563D01*
X13616650Y-13620563D02*
X13616650Y-13572944D01*
X13616650Y-13572944D02*
X13626173Y-13534849D01*
X13626173Y-13534849D02*
X13635697Y-13515801D01*
X13635697Y-13515801D02*
X13645221Y-13506278D01*
X13645221Y-13506278D02*
X13664269Y-13496754D01*
X13816650Y-13696754D02*
X13816650Y-13563420D01*
X13816650Y-13582468D02*
X13826173Y-13572944D01*
X13826173Y-13572944D02*
X13845221Y-13563420D01*
X13845221Y-13563420D02*
X13873793Y-13563420D01*
X13873793Y-13563420D02*
X13892840Y-13572944D01*
X13892840Y-13572944D02*
X13902364Y-13591992D01*
X13902364Y-13591992D02*
X13902364Y-13696754D01*
X13902364Y-13591992D02*
X13911888Y-13572944D01*
X13911888Y-13572944D02*
X13930935Y-13563420D01*
X13930935Y-13563420D02*
X13959507Y-13563420D01*
X13959507Y-13563420D02*
X13978554Y-13572944D01*
X13978554Y-13572944D02*
X13988078Y-13591992D01*
X13988078Y-13591992D02*
X13988078Y-13696754D01*
X14083316Y-13696754D02*
X14083316Y-13563420D01*
X14083316Y-13582468D02*
X14092840Y-13572944D01*
X14092840Y-13572944D02*
X14111888Y-13563420D01*
X14111888Y-13563420D02*
X14140459Y-13563420D01*
X14140459Y-13563420D02*
X14159507Y-13572944D01*
X14159507Y-13572944D02*
X14169031Y-13591992D01*
X14169031Y-13591992D02*
X14169031Y-13696754D01*
X14169031Y-13591992D02*
X14178554Y-13572944D01*
X14178554Y-13572944D02*
X14197602Y-13563420D01*
X14197602Y-13563420D02*
X14226173Y-13563420D01*
X14226173Y-13563420D02*
X14245221Y-13572944D01*
X14245221Y-13572944D02*
X14254745Y-13591992D01*
X14254745Y-13591992D02*
X14254745Y-13696754D01*
X14645221Y-13487230D02*
X14473793Y-13744373D01*
X14902364Y-13496754D02*
X14921412Y-13496754D01*
X14921412Y-13496754D02*
X14940459Y-13506278D01*
X14940459Y-13506278D02*
X14949983Y-13515801D01*
X14949983Y-13515801D02*
X14959507Y-13534849D01*
X14959507Y-13534849D02*
X14969031Y-13572944D01*
X14969031Y-13572944D02*
X14969031Y-13620563D01*
X14969031Y-13620563D02*
X14959507Y-13658658D01*
X14959507Y-13658658D02*
X14949983Y-13677706D01*
X14949983Y-13677706D02*
X14940459Y-13687230D01*
X14940459Y-13687230D02*
X14921412Y-13696754D01*
X14921412Y-13696754D02*
X14902364Y-13696754D01*
X14902364Y-13696754D02*
X14883316Y-13687230D01*
X14883316Y-13687230D02*
X14873793Y-13677706D01*
X14873793Y-13677706D02*
X14864269Y-13658658D01*
X14864269Y-13658658D02*
X14854745Y-13620563D01*
X14854745Y-13620563D02*
X14854745Y-13572944D01*
X14854745Y-13572944D02*
X14864269Y-13534849D01*
X14864269Y-13534849D02*
X14873793Y-13515801D01*
X14873793Y-13515801D02*
X14883316Y-13506278D01*
X14883316Y-13506278D02*
X14902364Y-13496754D01*
X15054745Y-13677706D02*
X15064269Y-13687230D01*
X15064269Y-13687230D02*
X15054745Y-13696754D01*
X15054745Y-13696754D02*
X15045221Y-13687230D01*
X15045221Y-13687230D02*
X15054745Y-13677706D01*
X15054745Y-13677706D02*
X15054745Y-13696754D01*
X15188078Y-13496754D02*
X15207126Y-13496754D01*
X15207126Y-13496754D02*
X15226174Y-13506278D01*
X15226174Y-13506278D02*
X15235697Y-13515801D01*
X15235697Y-13515801D02*
X15245221Y-13534849D01*
X15245221Y-13534849D02*
X15254745Y-13572944D01*
X15254745Y-13572944D02*
X15254745Y-13620563D01*
X15254745Y-13620563D02*
X15245221Y-13658658D01*
X15245221Y-13658658D02*
X15235697Y-13677706D01*
X15235697Y-13677706D02*
X15226174Y-13687230D01*
X15226174Y-13687230D02*
X15207126Y-13696754D01*
X15207126Y-13696754D02*
X15188078Y-13696754D01*
X15188078Y-13696754D02*
X15169031Y-13687230D01*
X15169031Y-13687230D02*
X15159507Y-13677706D01*
X15159507Y-13677706D02*
X15149983Y-13658658D01*
X15149983Y-13658658D02*
X15140459Y-13620563D01*
X15140459Y-13620563D02*
X15140459Y-13572944D01*
X15140459Y-13572944D02*
X15149983Y-13534849D01*
X15149983Y-13534849D02*
X15159507Y-13515801D01*
X15159507Y-13515801D02*
X15169031Y-13506278D01*
X15169031Y-13506278D02*
X15188078Y-13496754D01*
X15330936Y-13515801D02*
X15340459Y-13506278D01*
X15340459Y-13506278D02*
X15359507Y-13496754D01*
X15359507Y-13496754D02*
X15407126Y-13496754D01*
X15407126Y-13496754D02*
X15426174Y-13506278D01*
X15426174Y-13506278D02*
X15435697Y-13515801D01*
X15435697Y-13515801D02*
X15445221Y-13534849D01*
X15445221Y-13534849D02*
X15445221Y-13553897D01*
X15445221Y-13553897D02*
X15435697Y-13582468D01*
X15435697Y-13582468D02*
X15321412Y-13696754D01*
X15321412Y-13696754D02*
X15445221Y-13696754D01*
X15511888Y-13496754D02*
X15635697Y-13496754D01*
X15635697Y-13496754D02*
X15569031Y-13572944D01*
X15569031Y-13572944D02*
X15597602Y-13572944D01*
X15597602Y-13572944D02*
X15616650Y-13582468D01*
X15616650Y-13582468D02*
X15626174Y-13591992D01*
X15626174Y-13591992D02*
X15635697Y-13611039D01*
X15635697Y-13611039D02*
X15635697Y-13658658D01*
X15635697Y-13658658D02*
X15626174Y-13677706D01*
X15626174Y-13677706D02*
X15616650Y-13687230D01*
X15616650Y-13687230D02*
X15597602Y-13696754D01*
X15597602Y-13696754D02*
X15540459Y-13696754D01*
X15540459Y-13696754D02*
X15521412Y-13687230D01*
X15521412Y-13687230D02*
X15511888Y-13677706D01*
X15807126Y-13496754D02*
X15769031Y-13496754D01*
X15769031Y-13496754D02*
X15749983Y-13506278D01*
X15749983Y-13506278D02*
X15740459Y-13515801D01*
X15740459Y-13515801D02*
X15721412Y-13544373D01*
X15721412Y-13544373D02*
X15711888Y-13582468D01*
X15711888Y-13582468D02*
X15711888Y-13658658D01*
X15711888Y-13658658D02*
X15721412Y-13677706D01*
X15721412Y-13677706D02*
X15730936Y-13687230D01*
X15730936Y-13687230D02*
X15749983Y-13696754D01*
X15749983Y-13696754D02*
X15788078Y-13696754D01*
X15788078Y-13696754D02*
X15807126Y-13687230D01*
X15807126Y-13687230D02*
X15816650Y-13677706D01*
X15816650Y-13677706D02*
X15826174Y-13658658D01*
X15826174Y-13658658D02*
X15826174Y-13611039D01*
X15826174Y-13611039D02*
X15816650Y-13591992D01*
X15816650Y-13591992D02*
X15807126Y-13582468D01*
X15807126Y-13582468D02*
X15788078Y-13572944D01*
X15788078Y-13572944D02*
X15749983Y-13572944D01*
X15749983Y-13572944D02*
X15730936Y-13582468D01*
X15730936Y-13582468D02*
X15721412Y-13591992D01*
X15721412Y-13591992D02*
X15711888Y-13611039D01*
X15902364Y-13496754D02*
X15902364Y-13534849D01*
X15978555Y-13496754D02*
X15978555Y-13534849D01*
X16273793Y-13772944D02*
X16264269Y-13763420D01*
X16264269Y-13763420D02*
X16245221Y-13734849D01*
X16245221Y-13734849D02*
X16235698Y-13715801D01*
X16235698Y-13715801D02*
X16226174Y-13687230D01*
X16226174Y-13687230D02*
X16216650Y-13639611D01*
X16216650Y-13639611D02*
X16216650Y-13601516D01*
X16216650Y-13601516D02*
X16226174Y-13553897D01*
X16226174Y-13553897D02*
X16235698Y-13525325D01*
X16235698Y-13525325D02*
X16245221Y-13506278D01*
X16245221Y-13506278D02*
X16264269Y-13477706D01*
X16264269Y-13477706D02*
X16273793Y-13468182D01*
X16340459Y-13515801D02*
X16349983Y-13506278D01*
X16349983Y-13506278D02*
X16369031Y-13496754D01*
X16369031Y-13496754D02*
X16416650Y-13496754D01*
X16416650Y-13496754D02*
X16435698Y-13506278D01*
X16435698Y-13506278D02*
X16445221Y-13515801D01*
X16445221Y-13515801D02*
X16454745Y-13534849D01*
X16454745Y-13534849D02*
X16454745Y-13553897D01*
X16454745Y-13553897D02*
X16445221Y-13582468D01*
X16445221Y-13582468D02*
X16330936Y-13696754D01*
X16330936Y-13696754D02*
X16454745Y-13696754D01*
X16692840Y-13696754D02*
X16692840Y-13496754D01*
X16778555Y-13696754D02*
X16778555Y-13591992D01*
X16778555Y-13591992D02*
X16769031Y-13572944D01*
X16769031Y-13572944D02*
X16749983Y-13563420D01*
X16749983Y-13563420D02*
X16721412Y-13563420D01*
X16721412Y-13563420D02*
X16702364Y-13572944D01*
X16702364Y-13572944D02*
X16692840Y-13582468D01*
X16902364Y-13696754D02*
X16883317Y-13687230D01*
X16883317Y-13687230D02*
X16873793Y-13677706D01*
X16873793Y-13677706D02*
X16864269Y-13658658D01*
X16864269Y-13658658D02*
X16864269Y-13601516D01*
X16864269Y-13601516D02*
X16873793Y-13582468D01*
X16873793Y-13582468D02*
X16883317Y-13572944D01*
X16883317Y-13572944D02*
X16902364Y-13563420D01*
X16902364Y-13563420D02*
X16930936Y-13563420D01*
X16930936Y-13563420D02*
X16949983Y-13572944D01*
X16949983Y-13572944D02*
X16959507Y-13582468D01*
X16959507Y-13582468D02*
X16969031Y-13601516D01*
X16969031Y-13601516D02*
X16969031Y-13658658D01*
X16969031Y-13658658D02*
X16959507Y-13677706D01*
X16959507Y-13677706D02*
X16949983Y-13687230D01*
X16949983Y-13687230D02*
X16930936Y-13696754D01*
X16930936Y-13696754D02*
X16902364Y-13696754D01*
X17083317Y-13696754D02*
X17064269Y-13687230D01*
X17064269Y-13687230D02*
X17054745Y-13668182D01*
X17054745Y-13668182D02*
X17054745Y-13496754D01*
X17235698Y-13687230D02*
X17216650Y-13696754D01*
X17216650Y-13696754D02*
X17178555Y-13696754D01*
X17178555Y-13696754D02*
X17159507Y-13687230D01*
X17159507Y-13687230D02*
X17149983Y-13668182D01*
X17149983Y-13668182D02*
X17149983Y-13591992D01*
X17149983Y-13591992D02*
X17159507Y-13572944D01*
X17159507Y-13572944D02*
X17178555Y-13563420D01*
X17178555Y-13563420D02*
X17216650Y-13563420D01*
X17216650Y-13563420D02*
X17235698Y-13572944D01*
X17235698Y-13572944D02*
X17245222Y-13591992D01*
X17245222Y-13591992D02*
X17245222Y-13611039D01*
X17245222Y-13611039D02*
X17149983Y-13630087D01*
X17321412Y-13687230D02*
X17340460Y-13696754D01*
X17340460Y-13696754D02*
X17378555Y-13696754D01*
X17378555Y-13696754D02*
X17397603Y-13687230D01*
X17397603Y-13687230D02*
X17407126Y-13668182D01*
X17407126Y-13668182D02*
X17407126Y-13658658D01*
X17407126Y-13658658D02*
X17397603Y-13639611D01*
X17397603Y-13639611D02*
X17378555Y-13630087D01*
X17378555Y-13630087D02*
X17349983Y-13630087D01*
X17349983Y-13630087D02*
X17330936Y-13620563D01*
X17330936Y-13620563D02*
X17321412Y-13601516D01*
X17321412Y-13601516D02*
X17321412Y-13591992D01*
X17321412Y-13591992D02*
X17330936Y-13572944D01*
X17330936Y-13572944D02*
X17349983Y-13563420D01*
X17349983Y-13563420D02*
X17378555Y-13563420D01*
X17378555Y-13563420D02*
X17397603Y-13572944D01*
X17473793Y-13772944D02*
X17483317Y-13763420D01*
X17483317Y-13763420D02*
X17502364Y-13734849D01*
X17502364Y-13734849D02*
X17511888Y-13715801D01*
X17511888Y-13715801D02*
X17521412Y-13687230D01*
X17521412Y-13687230D02*
X17530936Y-13639611D01*
X17530936Y-13639611D02*
X17530936Y-13601516D01*
X17530936Y-13601516D02*
X17521412Y-13553897D01*
X17521412Y-13553897D02*
X17511888Y-13525325D01*
X17511888Y-13525325D02*
X17502364Y-13506278D01*
X17502364Y-13506278D02*
X17483317Y-13477706D01*
X17483317Y-13477706D02*
X17473793Y-13468182D01*
D12*
X12660630Y-13831170D02*
X12660630Y-13907370D01*
X12622530Y-13869270D02*
X12698730Y-13869270D01*
D11*
X12997602Y-13760754D02*
X13016650Y-13760754D01*
X13016650Y-13760754D02*
X13035697Y-13770278D01*
X13035697Y-13770278D02*
X13045221Y-13779801D01*
X13045221Y-13779801D02*
X13054745Y-13798849D01*
X13054745Y-13798849D02*
X13064269Y-13836944D01*
X13064269Y-13836944D02*
X13064269Y-13884563D01*
X13064269Y-13884563D02*
X13054745Y-13922658D01*
X13054745Y-13922658D02*
X13045221Y-13941706D01*
X13045221Y-13941706D02*
X13035697Y-13951230D01*
X13035697Y-13951230D02*
X13016650Y-13960754D01*
X13016650Y-13960754D02*
X12997602Y-13960754D01*
X12997602Y-13960754D02*
X12978554Y-13951230D01*
X12978554Y-13951230D02*
X12969031Y-13941706D01*
X12969031Y-13941706D02*
X12959507Y-13922658D01*
X12959507Y-13922658D02*
X12949983Y-13884563D01*
X12949983Y-13884563D02*
X12949983Y-13836944D01*
X12949983Y-13836944D02*
X12959507Y-13798849D01*
X12959507Y-13798849D02*
X12969031Y-13779801D01*
X12969031Y-13779801D02*
X12978554Y-13770278D01*
X12978554Y-13770278D02*
X12997602Y-13760754D01*
X13149983Y-13941706D02*
X13159507Y-13951230D01*
X13159507Y-13951230D02*
X13149983Y-13960754D01*
X13149983Y-13960754D02*
X13140459Y-13951230D01*
X13140459Y-13951230D02*
X13149983Y-13941706D01*
X13149983Y-13941706D02*
X13149983Y-13960754D01*
X13226173Y-13760754D02*
X13359507Y-13760754D01*
X13359507Y-13760754D02*
X13273792Y-13960754D01*
X13521412Y-13760754D02*
X13483316Y-13760754D01*
X13483316Y-13760754D02*
X13464269Y-13770278D01*
X13464269Y-13770278D02*
X13454745Y-13779801D01*
X13454745Y-13779801D02*
X13435697Y-13808373D01*
X13435697Y-13808373D02*
X13426173Y-13846468D01*
X13426173Y-13846468D02*
X13426173Y-13922658D01*
X13426173Y-13922658D02*
X13435697Y-13941706D01*
X13435697Y-13941706D02*
X13445221Y-13951230D01*
X13445221Y-13951230D02*
X13464269Y-13960754D01*
X13464269Y-13960754D02*
X13502364Y-13960754D01*
X13502364Y-13960754D02*
X13521412Y-13951230D01*
X13521412Y-13951230D02*
X13530935Y-13941706D01*
X13530935Y-13941706D02*
X13540459Y-13922658D01*
X13540459Y-13922658D02*
X13540459Y-13875039D01*
X13540459Y-13875039D02*
X13530935Y-13855992D01*
X13530935Y-13855992D02*
X13521412Y-13846468D01*
X13521412Y-13846468D02*
X13502364Y-13836944D01*
X13502364Y-13836944D02*
X13464269Y-13836944D01*
X13464269Y-13836944D02*
X13445221Y-13846468D01*
X13445221Y-13846468D02*
X13435697Y-13855992D01*
X13435697Y-13855992D02*
X13426173Y-13875039D01*
X13616650Y-13779801D02*
X13626173Y-13770278D01*
X13626173Y-13770278D02*
X13645221Y-13760754D01*
X13645221Y-13760754D02*
X13692840Y-13760754D01*
X13692840Y-13760754D02*
X13711888Y-13770278D01*
X13711888Y-13770278D02*
X13721412Y-13779801D01*
X13721412Y-13779801D02*
X13730935Y-13798849D01*
X13730935Y-13798849D02*
X13730935Y-13817897D01*
X13730935Y-13817897D02*
X13721412Y-13846468D01*
X13721412Y-13846468D02*
X13607126Y-13960754D01*
X13607126Y-13960754D02*
X13730935Y-13960754D01*
X13816650Y-13960754D02*
X13816650Y-13827420D01*
X13816650Y-13846468D02*
X13826173Y-13836944D01*
X13826173Y-13836944D02*
X13845221Y-13827420D01*
X13845221Y-13827420D02*
X13873793Y-13827420D01*
X13873793Y-13827420D02*
X13892840Y-13836944D01*
X13892840Y-13836944D02*
X13902364Y-13855992D01*
X13902364Y-13855992D02*
X13902364Y-13960754D01*
X13902364Y-13855992D02*
X13911888Y-13836944D01*
X13911888Y-13836944D02*
X13930935Y-13827420D01*
X13930935Y-13827420D02*
X13959507Y-13827420D01*
X13959507Y-13827420D02*
X13978554Y-13836944D01*
X13978554Y-13836944D02*
X13988078Y-13855992D01*
X13988078Y-13855992D02*
X13988078Y-13960754D01*
X14083316Y-13960754D02*
X14083316Y-13827420D01*
X14083316Y-13846468D02*
X14092840Y-13836944D01*
X14092840Y-13836944D02*
X14111888Y-13827420D01*
X14111888Y-13827420D02*
X14140459Y-13827420D01*
X14140459Y-13827420D02*
X14159507Y-13836944D01*
X14159507Y-13836944D02*
X14169031Y-13855992D01*
X14169031Y-13855992D02*
X14169031Y-13960754D01*
X14169031Y-13855992D02*
X14178554Y-13836944D01*
X14178554Y-13836944D02*
X14197602Y-13827420D01*
X14197602Y-13827420D02*
X14226173Y-13827420D01*
X14226173Y-13827420D02*
X14245221Y-13836944D01*
X14245221Y-13836944D02*
X14254745Y-13855992D01*
X14254745Y-13855992D02*
X14254745Y-13960754D01*
X14645221Y-13751230D02*
X14473793Y-14008373D01*
X14902364Y-13760754D02*
X14921412Y-13760754D01*
X14921412Y-13760754D02*
X14940459Y-13770278D01*
X14940459Y-13770278D02*
X14949983Y-13779801D01*
X14949983Y-13779801D02*
X14959507Y-13798849D01*
X14959507Y-13798849D02*
X14969031Y-13836944D01*
X14969031Y-13836944D02*
X14969031Y-13884563D01*
X14969031Y-13884563D02*
X14959507Y-13922658D01*
X14959507Y-13922658D02*
X14949983Y-13941706D01*
X14949983Y-13941706D02*
X14940459Y-13951230D01*
X14940459Y-13951230D02*
X14921412Y-13960754D01*
X14921412Y-13960754D02*
X14902364Y-13960754D01*
X14902364Y-13960754D02*
X14883316Y-13951230D01*
X14883316Y-13951230D02*
X14873793Y-13941706D01*
X14873793Y-13941706D02*
X14864269Y-13922658D01*
X14864269Y-13922658D02*
X14854745Y-13884563D01*
X14854745Y-13884563D02*
X14854745Y-13836944D01*
X14854745Y-13836944D02*
X14864269Y-13798849D01*
X14864269Y-13798849D02*
X14873793Y-13779801D01*
X14873793Y-13779801D02*
X14883316Y-13770278D01*
X14883316Y-13770278D02*
X14902364Y-13760754D01*
X15054745Y-13941706D02*
X15064269Y-13951230D01*
X15064269Y-13951230D02*
X15054745Y-13960754D01*
X15054745Y-13960754D02*
X15045221Y-13951230D01*
X15045221Y-13951230D02*
X15054745Y-13941706D01*
X15054745Y-13941706D02*
X15054745Y-13960754D01*
X15188078Y-13760754D02*
X15207126Y-13760754D01*
X15207126Y-13760754D02*
X15226174Y-13770278D01*
X15226174Y-13770278D02*
X15235697Y-13779801D01*
X15235697Y-13779801D02*
X15245221Y-13798849D01*
X15245221Y-13798849D02*
X15254745Y-13836944D01*
X15254745Y-13836944D02*
X15254745Y-13884563D01*
X15254745Y-13884563D02*
X15245221Y-13922658D01*
X15245221Y-13922658D02*
X15235697Y-13941706D01*
X15235697Y-13941706D02*
X15226174Y-13951230D01*
X15226174Y-13951230D02*
X15207126Y-13960754D01*
X15207126Y-13960754D02*
X15188078Y-13960754D01*
X15188078Y-13960754D02*
X15169031Y-13951230D01*
X15169031Y-13951230D02*
X15159507Y-13941706D01*
X15159507Y-13941706D02*
X15149983Y-13922658D01*
X15149983Y-13922658D02*
X15140459Y-13884563D01*
X15140459Y-13884563D02*
X15140459Y-13836944D01*
X15140459Y-13836944D02*
X15149983Y-13798849D01*
X15149983Y-13798849D02*
X15159507Y-13779801D01*
X15159507Y-13779801D02*
X15169031Y-13770278D01*
X15169031Y-13770278D02*
X15188078Y-13760754D01*
X15321412Y-13760754D02*
X15445221Y-13760754D01*
X15445221Y-13760754D02*
X15378555Y-13836944D01*
X15378555Y-13836944D02*
X15407126Y-13836944D01*
X15407126Y-13836944D02*
X15426174Y-13846468D01*
X15426174Y-13846468D02*
X15435697Y-13855992D01*
X15435697Y-13855992D02*
X15445221Y-13875039D01*
X15445221Y-13875039D02*
X15445221Y-13922658D01*
X15445221Y-13922658D02*
X15435697Y-13941706D01*
X15435697Y-13941706D02*
X15426174Y-13951230D01*
X15426174Y-13951230D02*
X15407126Y-13960754D01*
X15407126Y-13960754D02*
X15349983Y-13960754D01*
X15349983Y-13960754D02*
X15330936Y-13951230D01*
X15330936Y-13951230D02*
X15321412Y-13941706D01*
X15569031Y-13760754D02*
X15588078Y-13760754D01*
X15588078Y-13760754D02*
X15607126Y-13770278D01*
X15607126Y-13770278D02*
X15616650Y-13779801D01*
X15616650Y-13779801D02*
X15626174Y-13798849D01*
X15626174Y-13798849D02*
X15635697Y-13836944D01*
X15635697Y-13836944D02*
X15635697Y-13884563D01*
X15635697Y-13884563D02*
X15626174Y-13922658D01*
X15626174Y-13922658D02*
X15616650Y-13941706D01*
X15616650Y-13941706D02*
X15607126Y-13951230D01*
X15607126Y-13951230D02*
X15588078Y-13960754D01*
X15588078Y-13960754D02*
X15569031Y-13960754D01*
X15569031Y-13960754D02*
X15549983Y-13951230D01*
X15549983Y-13951230D02*
X15540459Y-13941706D01*
X15540459Y-13941706D02*
X15530936Y-13922658D01*
X15530936Y-13922658D02*
X15521412Y-13884563D01*
X15521412Y-13884563D02*
X15521412Y-13836944D01*
X15521412Y-13836944D02*
X15530936Y-13798849D01*
X15530936Y-13798849D02*
X15540459Y-13779801D01*
X15540459Y-13779801D02*
X15549983Y-13770278D01*
X15549983Y-13770278D02*
X15569031Y-13760754D01*
X15759507Y-13760754D02*
X15778555Y-13760754D01*
X15778555Y-13760754D02*
X15797602Y-13770278D01*
X15797602Y-13770278D02*
X15807126Y-13779801D01*
X15807126Y-13779801D02*
X15816650Y-13798849D01*
X15816650Y-13798849D02*
X15826174Y-13836944D01*
X15826174Y-13836944D02*
X15826174Y-13884563D01*
X15826174Y-13884563D02*
X15816650Y-13922658D01*
X15816650Y-13922658D02*
X15807126Y-13941706D01*
X15807126Y-13941706D02*
X15797602Y-13951230D01*
X15797602Y-13951230D02*
X15778555Y-13960754D01*
X15778555Y-13960754D02*
X15759507Y-13960754D01*
X15759507Y-13960754D02*
X15740459Y-13951230D01*
X15740459Y-13951230D02*
X15730936Y-13941706D01*
X15730936Y-13941706D02*
X15721412Y-13922658D01*
X15721412Y-13922658D02*
X15711888Y-13884563D01*
X15711888Y-13884563D02*
X15711888Y-13836944D01*
X15711888Y-13836944D02*
X15721412Y-13798849D01*
X15721412Y-13798849D02*
X15730936Y-13779801D01*
X15730936Y-13779801D02*
X15740459Y-13770278D01*
X15740459Y-13770278D02*
X15759507Y-13760754D01*
X15902364Y-13760754D02*
X15902364Y-13798849D01*
X15978555Y-13760754D02*
X15978555Y-13798849D01*
X16273793Y-14036944D02*
X16264269Y-14027420D01*
X16264269Y-14027420D02*
X16245221Y-13998849D01*
X16245221Y-13998849D02*
X16235698Y-13979801D01*
X16235698Y-13979801D02*
X16226174Y-13951230D01*
X16226174Y-13951230D02*
X16216650Y-13903611D01*
X16216650Y-13903611D02*
X16216650Y-13865516D01*
X16216650Y-13865516D02*
X16226174Y-13817897D01*
X16226174Y-13817897D02*
X16235698Y-13789325D01*
X16235698Y-13789325D02*
X16245221Y-13770278D01*
X16245221Y-13770278D02*
X16264269Y-13741706D01*
X16264269Y-13741706D02*
X16273793Y-13732182D01*
X16378555Y-13846468D02*
X16359507Y-13836944D01*
X16359507Y-13836944D02*
X16349983Y-13827420D01*
X16349983Y-13827420D02*
X16340459Y-13808373D01*
X16340459Y-13808373D02*
X16340459Y-13798849D01*
X16340459Y-13798849D02*
X16349983Y-13779801D01*
X16349983Y-13779801D02*
X16359507Y-13770278D01*
X16359507Y-13770278D02*
X16378555Y-13760754D01*
X16378555Y-13760754D02*
X16416650Y-13760754D01*
X16416650Y-13760754D02*
X16435698Y-13770278D01*
X16435698Y-13770278D02*
X16445221Y-13779801D01*
X16445221Y-13779801D02*
X16454745Y-13798849D01*
X16454745Y-13798849D02*
X16454745Y-13808373D01*
X16454745Y-13808373D02*
X16445221Y-13827420D01*
X16445221Y-13827420D02*
X16435698Y-13836944D01*
X16435698Y-13836944D02*
X16416650Y-13846468D01*
X16416650Y-13846468D02*
X16378555Y-13846468D01*
X16378555Y-13846468D02*
X16359507Y-13855992D01*
X16359507Y-13855992D02*
X16349983Y-13865516D01*
X16349983Y-13865516D02*
X16340459Y-13884563D01*
X16340459Y-13884563D02*
X16340459Y-13922658D01*
X16340459Y-13922658D02*
X16349983Y-13941706D01*
X16349983Y-13941706D02*
X16359507Y-13951230D01*
X16359507Y-13951230D02*
X16378555Y-13960754D01*
X16378555Y-13960754D02*
X16416650Y-13960754D01*
X16416650Y-13960754D02*
X16435698Y-13951230D01*
X16435698Y-13951230D02*
X16445221Y-13941706D01*
X16445221Y-13941706D02*
X16454745Y-13922658D01*
X16454745Y-13922658D02*
X16454745Y-13884563D01*
X16454745Y-13884563D02*
X16445221Y-13865516D01*
X16445221Y-13865516D02*
X16435698Y-13855992D01*
X16435698Y-13855992D02*
X16416650Y-13846468D01*
X16692840Y-13960754D02*
X16692840Y-13760754D01*
X16778555Y-13960754D02*
X16778555Y-13855992D01*
X16778555Y-13855992D02*
X16769031Y-13836944D01*
X16769031Y-13836944D02*
X16749983Y-13827420D01*
X16749983Y-13827420D02*
X16721412Y-13827420D01*
X16721412Y-13827420D02*
X16702364Y-13836944D01*
X16702364Y-13836944D02*
X16692840Y-13846468D01*
X16902364Y-13960754D02*
X16883317Y-13951230D01*
X16883317Y-13951230D02*
X16873793Y-13941706D01*
X16873793Y-13941706D02*
X16864269Y-13922658D01*
X16864269Y-13922658D02*
X16864269Y-13865516D01*
X16864269Y-13865516D02*
X16873793Y-13846468D01*
X16873793Y-13846468D02*
X16883317Y-13836944D01*
X16883317Y-13836944D02*
X16902364Y-13827420D01*
X16902364Y-13827420D02*
X16930936Y-13827420D01*
X16930936Y-13827420D02*
X16949983Y-13836944D01*
X16949983Y-13836944D02*
X16959507Y-13846468D01*
X16959507Y-13846468D02*
X16969031Y-13865516D01*
X16969031Y-13865516D02*
X16969031Y-13922658D01*
X16969031Y-13922658D02*
X16959507Y-13941706D01*
X16959507Y-13941706D02*
X16949983Y-13951230D01*
X16949983Y-13951230D02*
X16930936Y-13960754D01*
X16930936Y-13960754D02*
X16902364Y-13960754D01*
X17083317Y-13960754D02*
X17064269Y-13951230D01*
X17064269Y-13951230D02*
X17054745Y-13932182D01*
X17054745Y-13932182D02*
X17054745Y-13760754D01*
X17235698Y-13951230D02*
X17216650Y-13960754D01*
X17216650Y-13960754D02*
X17178555Y-13960754D01*
X17178555Y-13960754D02*
X17159507Y-13951230D01*
X17159507Y-13951230D02*
X17149983Y-13932182D01*
X17149983Y-13932182D02*
X17149983Y-13855992D01*
X17149983Y-13855992D02*
X17159507Y-13836944D01*
X17159507Y-13836944D02*
X17178555Y-13827420D01*
X17178555Y-13827420D02*
X17216650Y-13827420D01*
X17216650Y-13827420D02*
X17235698Y-13836944D01*
X17235698Y-13836944D02*
X17245222Y-13855992D01*
X17245222Y-13855992D02*
X17245222Y-13875039D01*
X17245222Y-13875039D02*
X17149983Y-13894087D01*
X17321412Y-13951230D02*
X17340460Y-13960754D01*
X17340460Y-13960754D02*
X17378555Y-13960754D01*
X17378555Y-13960754D02*
X17397603Y-13951230D01*
X17397603Y-13951230D02*
X17407126Y-13932182D01*
X17407126Y-13932182D02*
X17407126Y-13922658D01*
X17407126Y-13922658D02*
X17397603Y-13903611D01*
X17397603Y-13903611D02*
X17378555Y-13894087D01*
X17378555Y-13894087D02*
X17349983Y-13894087D01*
X17349983Y-13894087D02*
X17330936Y-13884563D01*
X17330936Y-13884563D02*
X17321412Y-13865516D01*
X17321412Y-13865516D02*
X17321412Y-13855992D01*
X17321412Y-13855992D02*
X17330936Y-13836944D01*
X17330936Y-13836944D02*
X17349983Y-13827420D01*
X17349983Y-13827420D02*
X17378555Y-13827420D01*
X17378555Y-13827420D02*
X17397603Y-13836944D01*
X17473793Y-14036944D02*
X17483317Y-14027420D01*
X17483317Y-14027420D02*
X17502364Y-13998849D01*
X17502364Y-13998849D02*
X17511888Y-13979801D01*
X17511888Y-13979801D02*
X17521412Y-13951230D01*
X17521412Y-13951230D02*
X17530936Y-13903611D01*
X17530936Y-13903611D02*
X17530936Y-13865516D01*
X17530936Y-13865516D02*
X17521412Y-13817897D01*
X17521412Y-13817897D02*
X17511888Y-13789325D01*
X17511888Y-13789325D02*
X17502364Y-13770278D01*
X17502364Y-13770278D02*
X17483317Y-13741706D01*
X17483317Y-13741706D02*
X17473793Y-13732182D01*
D12*
X12687014Y-14161554D02*
X12687014Y-14104985D01*
X12630445Y-14104985D01*
X12630445Y-14161554D01*
X12687014Y-14161554D01*
D11*
X12997602Y-14024754D02*
X13016650Y-14024754D01*
X13016650Y-14024754D02*
X13035697Y-14034278D01*
X13035697Y-14034278D02*
X13045221Y-14043801D01*
X13045221Y-14043801D02*
X13054745Y-14062849D01*
X13054745Y-14062849D02*
X13064269Y-14100944D01*
X13064269Y-14100944D02*
X13064269Y-14148563D01*
X13064269Y-14148563D02*
X13054745Y-14186658D01*
X13054745Y-14186658D02*
X13045221Y-14205706D01*
X13045221Y-14205706D02*
X13035697Y-14215230D01*
X13035697Y-14215230D02*
X13016650Y-14224754D01*
X13016650Y-14224754D02*
X12997602Y-14224754D01*
X12997602Y-14224754D02*
X12978554Y-14215230D01*
X12978554Y-14215230D02*
X12969031Y-14205706D01*
X12969031Y-14205706D02*
X12959507Y-14186658D01*
X12959507Y-14186658D02*
X12949983Y-14148563D01*
X12949983Y-14148563D02*
X12949983Y-14100944D01*
X12949983Y-14100944D02*
X12959507Y-14062849D01*
X12959507Y-14062849D02*
X12969031Y-14043801D01*
X12969031Y-14043801D02*
X12978554Y-14034278D01*
X12978554Y-14034278D02*
X12997602Y-14024754D01*
X13149983Y-14205706D02*
X13159507Y-14215230D01*
X13159507Y-14215230D02*
X13149983Y-14224754D01*
X13149983Y-14224754D02*
X13140459Y-14215230D01*
X13140459Y-14215230D02*
X13149983Y-14205706D01*
X13149983Y-14205706D02*
X13149983Y-14224754D01*
X13273792Y-14110468D02*
X13254745Y-14100944D01*
X13254745Y-14100944D02*
X13245221Y-14091420D01*
X13245221Y-14091420D02*
X13235697Y-14072373D01*
X13235697Y-14072373D02*
X13235697Y-14062849D01*
X13235697Y-14062849D02*
X13245221Y-14043801D01*
X13245221Y-14043801D02*
X13254745Y-14034278D01*
X13254745Y-14034278D02*
X13273792Y-14024754D01*
X13273792Y-14024754D02*
X13311888Y-14024754D01*
X13311888Y-14024754D02*
X13330935Y-14034278D01*
X13330935Y-14034278D02*
X13340459Y-14043801D01*
X13340459Y-14043801D02*
X13349983Y-14062849D01*
X13349983Y-14062849D02*
X13349983Y-14072373D01*
X13349983Y-14072373D02*
X13340459Y-14091420D01*
X13340459Y-14091420D02*
X13330935Y-14100944D01*
X13330935Y-14100944D02*
X13311888Y-14110468D01*
X13311888Y-14110468D02*
X13273792Y-14110468D01*
X13273792Y-14110468D02*
X13254745Y-14119992D01*
X13254745Y-14119992D02*
X13245221Y-14129516D01*
X13245221Y-14129516D02*
X13235697Y-14148563D01*
X13235697Y-14148563D02*
X13235697Y-14186658D01*
X13235697Y-14186658D02*
X13245221Y-14205706D01*
X13245221Y-14205706D02*
X13254745Y-14215230D01*
X13254745Y-14215230D02*
X13273792Y-14224754D01*
X13273792Y-14224754D02*
X13311888Y-14224754D01*
X13311888Y-14224754D02*
X13330935Y-14215230D01*
X13330935Y-14215230D02*
X13340459Y-14205706D01*
X13340459Y-14205706D02*
X13349983Y-14186658D01*
X13349983Y-14186658D02*
X13349983Y-14148563D01*
X13349983Y-14148563D02*
X13340459Y-14129516D01*
X13340459Y-14129516D02*
X13330935Y-14119992D01*
X13330935Y-14119992D02*
X13311888Y-14110468D01*
X13473792Y-14024754D02*
X13492840Y-14024754D01*
X13492840Y-14024754D02*
X13511888Y-14034278D01*
X13511888Y-14034278D02*
X13521412Y-14043801D01*
X13521412Y-14043801D02*
X13530935Y-14062849D01*
X13530935Y-14062849D02*
X13540459Y-14100944D01*
X13540459Y-14100944D02*
X13540459Y-14148563D01*
X13540459Y-14148563D02*
X13530935Y-14186658D01*
X13530935Y-14186658D02*
X13521412Y-14205706D01*
X13521412Y-14205706D02*
X13511888Y-14215230D01*
X13511888Y-14215230D02*
X13492840Y-14224754D01*
X13492840Y-14224754D02*
X13473792Y-14224754D01*
X13473792Y-14224754D02*
X13454745Y-14215230D01*
X13454745Y-14215230D02*
X13445221Y-14205706D01*
X13445221Y-14205706D02*
X13435697Y-14186658D01*
X13435697Y-14186658D02*
X13426173Y-14148563D01*
X13426173Y-14148563D02*
X13426173Y-14100944D01*
X13426173Y-14100944D02*
X13435697Y-14062849D01*
X13435697Y-14062849D02*
X13445221Y-14043801D01*
X13445221Y-14043801D02*
X13454745Y-14034278D01*
X13454745Y-14034278D02*
X13473792Y-14024754D01*
X13664269Y-14024754D02*
X13683316Y-14024754D01*
X13683316Y-14024754D02*
X13702364Y-14034278D01*
X13702364Y-14034278D02*
X13711888Y-14043801D01*
X13711888Y-14043801D02*
X13721412Y-14062849D01*
X13721412Y-14062849D02*
X13730935Y-14100944D01*
X13730935Y-14100944D02*
X13730935Y-14148563D01*
X13730935Y-14148563D02*
X13721412Y-14186658D01*
X13721412Y-14186658D02*
X13711888Y-14205706D01*
X13711888Y-14205706D02*
X13702364Y-14215230D01*
X13702364Y-14215230D02*
X13683316Y-14224754D01*
X13683316Y-14224754D02*
X13664269Y-14224754D01*
X13664269Y-14224754D02*
X13645221Y-14215230D01*
X13645221Y-14215230D02*
X13635697Y-14205706D01*
X13635697Y-14205706D02*
X13626173Y-14186658D01*
X13626173Y-14186658D02*
X13616650Y-14148563D01*
X13616650Y-14148563D02*
X13616650Y-14100944D01*
X13616650Y-14100944D02*
X13626173Y-14062849D01*
X13626173Y-14062849D02*
X13635697Y-14043801D01*
X13635697Y-14043801D02*
X13645221Y-14034278D01*
X13645221Y-14034278D02*
X13664269Y-14024754D01*
X13816650Y-14224754D02*
X13816650Y-14091420D01*
X13816650Y-14110468D02*
X13826173Y-14100944D01*
X13826173Y-14100944D02*
X13845221Y-14091420D01*
X13845221Y-14091420D02*
X13873793Y-14091420D01*
X13873793Y-14091420D02*
X13892840Y-14100944D01*
X13892840Y-14100944D02*
X13902364Y-14119992D01*
X13902364Y-14119992D02*
X13902364Y-14224754D01*
X13902364Y-14119992D02*
X13911888Y-14100944D01*
X13911888Y-14100944D02*
X13930935Y-14091420D01*
X13930935Y-14091420D02*
X13959507Y-14091420D01*
X13959507Y-14091420D02*
X13978554Y-14100944D01*
X13978554Y-14100944D02*
X13988078Y-14119992D01*
X13988078Y-14119992D02*
X13988078Y-14224754D01*
X14083316Y-14224754D02*
X14083316Y-14091420D01*
X14083316Y-14110468D02*
X14092840Y-14100944D01*
X14092840Y-14100944D02*
X14111888Y-14091420D01*
X14111888Y-14091420D02*
X14140459Y-14091420D01*
X14140459Y-14091420D02*
X14159507Y-14100944D01*
X14159507Y-14100944D02*
X14169031Y-14119992D01*
X14169031Y-14119992D02*
X14169031Y-14224754D01*
X14169031Y-14119992D02*
X14178554Y-14100944D01*
X14178554Y-14100944D02*
X14197602Y-14091420D01*
X14197602Y-14091420D02*
X14226173Y-14091420D01*
X14226173Y-14091420D02*
X14245221Y-14100944D01*
X14245221Y-14100944D02*
X14254745Y-14119992D01*
X14254745Y-14119992D02*
X14254745Y-14224754D01*
X14645221Y-14015230D02*
X14473793Y-14272373D01*
X14902364Y-14024754D02*
X14921412Y-14024754D01*
X14921412Y-14024754D02*
X14940459Y-14034278D01*
X14940459Y-14034278D02*
X14949983Y-14043801D01*
X14949983Y-14043801D02*
X14959507Y-14062849D01*
X14959507Y-14062849D02*
X14969031Y-14100944D01*
X14969031Y-14100944D02*
X14969031Y-14148563D01*
X14969031Y-14148563D02*
X14959507Y-14186658D01*
X14959507Y-14186658D02*
X14949983Y-14205706D01*
X14949983Y-14205706D02*
X14940459Y-14215230D01*
X14940459Y-14215230D02*
X14921412Y-14224754D01*
X14921412Y-14224754D02*
X14902364Y-14224754D01*
X14902364Y-14224754D02*
X14883316Y-14215230D01*
X14883316Y-14215230D02*
X14873793Y-14205706D01*
X14873793Y-14205706D02*
X14864269Y-14186658D01*
X14864269Y-14186658D02*
X14854745Y-14148563D01*
X14854745Y-14148563D02*
X14854745Y-14100944D01*
X14854745Y-14100944D02*
X14864269Y-14062849D01*
X14864269Y-14062849D02*
X14873793Y-14043801D01*
X14873793Y-14043801D02*
X14883316Y-14034278D01*
X14883316Y-14034278D02*
X14902364Y-14024754D01*
X15054745Y-14205706D02*
X15064269Y-14215230D01*
X15064269Y-14215230D02*
X15054745Y-14224754D01*
X15054745Y-14224754D02*
X15045221Y-14215230D01*
X15045221Y-14215230D02*
X15054745Y-14205706D01*
X15054745Y-14205706D02*
X15054745Y-14224754D01*
X15188078Y-14024754D02*
X15207126Y-14024754D01*
X15207126Y-14024754D02*
X15226174Y-14034278D01*
X15226174Y-14034278D02*
X15235697Y-14043801D01*
X15235697Y-14043801D02*
X15245221Y-14062849D01*
X15245221Y-14062849D02*
X15254745Y-14100944D01*
X15254745Y-14100944D02*
X15254745Y-14148563D01*
X15254745Y-14148563D02*
X15245221Y-14186658D01*
X15245221Y-14186658D02*
X15235697Y-14205706D01*
X15235697Y-14205706D02*
X15226174Y-14215230D01*
X15226174Y-14215230D02*
X15207126Y-14224754D01*
X15207126Y-14224754D02*
X15188078Y-14224754D01*
X15188078Y-14224754D02*
X15169031Y-14215230D01*
X15169031Y-14215230D02*
X15159507Y-14205706D01*
X15159507Y-14205706D02*
X15149983Y-14186658D01*
X15149983Y-14186658D02*
X15140459Y-14148563D01*
X15140459Y-14148563D02*
X15140459Y-14100944D01*
X15140459Y-14100944D02*
X15149983Y-14062849D01*
X15149983Y-14062849D02*
X15159507Y-14043801D01*
X15159507Y-14043801D02*
X15169031Y-14034278D01*
X15169031Y-14034278D02*
X15188078Y-14024754D01*
X15321412Y-14024754D02*
X15445221Y-14024754D01*
X15445221Y-14024754D02*
X15378555Y-14100944D01*
X15378555Y-14100944D02*
X15407126Y-14100944D01*
X15407126Y-14100944D02*
X15426174Y-14110468D01*
X15426174Y-14110468D02*
X15435697Y-14119992D01*
X15435697Y-14119992D02*
X15445221Y-14139039D01*
X15445221Y-14139039D02*
X15445221Y-14186658D01*
X15445221Y-14186658D02*
X15435697Y-14205706D01*
X15435697Y-14205706D02*
X15426174Y-14215230D01*
X15426174Y-14215230D02*
X15407126Y-14224754D01*
X15407126Y-14224754D02*
X15349983Y-14224754D01*
X15349983Y-14224754D02*
X15330936Y-14215230D01*
X15330936Y-14215230D02*
X15321412Y-14205706D01*
X15635697Y-14224754D02*
X15521412Y-14224754D01*
X15578555Y-14224754D02*
X15578555Y-14024754D01*
X15578555Y-14024754D02*
X15559507Y-14053325D01*
X15559507Y-14053325D02*
X15540459Y-14072373D01*
X15540459Y-14072373D02*
X15521412Y-14081897D01*
X15816650Y-14024754D02*
X15721412Y-14024754D01*
X15721412Y-14024754D02*
X15711888Y-14119992D01*
X15711888Y-14119992D02*
X15721412Y-14110468D01*
X15721412Y-14110468D02*
X15740459Y-14100944D01*
X15740459Y-14100944D02*
X15788078Y-14100944D01*
X15788078Y-14100944D02*
X15807126Y-14110468D01*
X15807126Y-14110468D02*
X15816650Y-14119992D01*
X15816650Y-14119992D02*
X15826174Y-14139039D01*
X15826174Y-14139039D02*
X15826174Y-14186658D01*
X15826174Y-14186658D02*
X15816650Y-14205706D01*
X15816650Y-14205706D02*
X15807126Y-14215230D01*
X15807126Y-14215230D02*
X15788078Y-14224754D01*
X15788078Y-14224754D02*
X15740459Y-14224754D01*
X15740459Y-14224754D02*
X15721412Y-14215230D01*
X15721412Y-14215230D02*
X15711888Y-14205706D01*
X15902364Y-14024754D02*
X15902364Y-14062849D01*
X15978555Y-14024754D02*
X15978555Y-14062849D01*
X16273793Y-14300944D02*
X16264269Y-14291420D01*
X16264269Y-14291420D02*
X16245221Y-14262849D01*
X16245221Y-14262849D02*
X16235698Y-14243801D01*
X16235698Y-14243801D02*
X16226174Y-14215230D01*
X16226174Y-14215230D02*
X16216650Y-14167611D01*
X16216650Y-14167611D02*
X16216650Y-14129516D01*
X16216650Y-14129516D02*
X16226174Y-14081897D01*
X16226174Y-14081897D02*
X16235698Y-14053325D01*
X16235698Y-14053325D02*
X16245221Y-14034278D01*
X16245221Y-14034278D02*
X16264269Y-14005706D01*
X16264269Y-14005706D02*
X16273793Y-13996182D01*
X16454745Y-14224754D02*
X16340459Y-14224754D01*
X16397602Y-14224754D02*
X16397602Y-14024754D01*
X16397602Y-14024754D02*
X16378555Y-14053325D01*
X16378555Y-14053325D02*
X16359507Y-14072373D01*
X16359507Y-14072373D02*
X16340459Y-14081897D01*
X16626174Y-14024754D02*
X16588078Y-14024754D01*
X16588078Y-14024754D02*
X16569031Y-14034278D01*
X16569031Y-14034278D02*
X16559507Y-14043801D01*
X16559507Y-14043801D02*
X16540459Y-14072373D01*
X16540459Y-14072373D02*
X16530936Y-14110468D01*
X16530936Y-14110468D02*
X16530936Y-14186658D01*
X16530936Y-14186658D02*
X16540459Y-14205706D01*
X16540459Y-14205706D02*
X16549983Y-14215230D01*
X16549983Y-14215230D02*
X16569031Y-14224754D01*
X16569031Y-14224754D02*
X16607126Y-14224754D01*
X16607126Y-14224754D02*
X16626174Y-14215230D01*
X16626174Y-14215230D02*
X16635698Y-14205706D01*
X16635698Y-14205706D02*
X16645221Y-14186658D01*
X16645221Y-14186658D02*
X16645221Y-14139039D01*
X16645221Y-14139039D02*
X16635698Y-14119992D01*
X16635698Y-14119992D02*
X16626174Y-14110468D01*
X16626174Y-14110468D02*
X16607126Y-14100944D01*
X16607126Y-14100944D02*
X16569031Y-14100944D01*
X16569031Y-14100944D02*
X16549983Y-14110468D01*
X16549983Y-14110468D02*
X16540459Y-14119992D01*
X16540459Y-14119992D02*
X16530936Y-14139039D01*
X16883317Y-14224754D02*
X16883317Y-14024754D01*
X16969031Y-14224754D02*
X16969031Y-14119992D01*
X16969031Y-14119992D02*
X16959507Y-14100944D01*
X16959507Y-14100944D02*
X16940460Y-14091420D01*
X16940460Y-14091420D02*
X16911888Y-14091420D01*
X16911888Y-14091420D02*
X16892841Y-14100944D01*
X16892841Y-14100944D02*
X16883317Y-14110468D01*
X17092841Y-14224754D02*
X17073793Y-14215230D01*
X17073793Y-14215230D02*
X17064269Y-14205706D01*
X17064269Y-14205706D02*
X17054745Y-14186658D01*
X17054745Y-14186658D02*
X17054745Y-14129516D01*
X17054745Y-14129516D02*
X17064269Y-14110468D01*
X17064269Y-14110468D02*
X17073793Y-14100944D01*
X17073793Y-14100944D02*
X17092841Y-14091420D01*
X17092841Y-14091420D02*
X17121412Y-14091420D01*
X17121412Y-14091420D02*
X17140460Y-14100944D01*
X17140460Y-14100944D02*
X17149983Y-14110468D01*
X17149983Y-14110468D02*
X17159507Y-14129516D01*
X17159507Y-14129516D02*
X17159507Y-14186658D01*
X17159507Y-14186658D02*
X17149983Y-14205706D01*
X17149983Y-14205706D02*
X17140460Y-14215230D01*
X17140460Y-14215230D02*
X17121412Y-14224754D01*
X17121412Y-14224754D02*
X17092841Y-14224754D01*
X17273793Y-14224754D02*
X17254745Y-14215230D01*
X17254745Y-14215230D02*
X17245222Y-14196182D01*
X17245222Y-14196182D02*
X17245222Y-14024754D01*
X17426174Y-14215230D02*
X17407126Y-14224754D01*
X17407126Y-14224754D02*
X17369031Y-14224754D01*
X17369031Y-14224754D02*
X17349983Y-14215230D01*
X17349983Y-14215230D02*
X17340460Y-14196182D01*
X17340460Y-14196182D02*
X17340460Y-14119992D01*
X17340460Y-14119992D02*
X17349983Y-14100944D01*
X17349983Y-14100944D02*
X17369031Y-14091420D01*
X17369031Y-14091420D02*
X17407126Y-14091420D01*
X17407126Y-14091420D02*
X17426174Y-14100944D01*
X17426174Y-14100944D02*
X17435698Y-14119992D01*
X17435698Y-14119992D02*
X17435698Y-14139039D01*
X17435698Y-14139039D02*
X17340460Y-14158087D01*
X17511888Y-14215230D02*
X17530936Y-14224754D01*
X17530936Y-14224754D02*
X17569031Y-14224754D01*
X17569031Y-14224754D02*
X17588079Y-14215230D01*
X17588079Y-14215230D02*
X17597603Y-14196182D01*
X17597603Y-14196182D02*
X17597603Y-14186658D01*
X17597603Y-14186658D02*
X17588079Y-14167611D01*
X17588079Y-14167611D02*
X17569031Y-14158087D01*
X17569031Y-14158087D02*
X17540460Y-14158087D01*
X17540460Y-14158087D02*
X17521412Y-14148563D01*
X17521412Y-14148563D02*
X17511888Y-14129516D01*
X17511888Y-14129516D02*
X17511888Y-14119992D01*
X17511888Y-14119992D02*
X17521412Y-14100944D01*
X17521412Y-14100944D02*
X17540460Y-14091420D01*
X17540460Y-14091420D02*
X17569031Y-14091420D01*
X17569031Y-14091420D02*
X17588079Y-14100944D01*
X17664269Y-14300944D02*
X17673793Y-14291420D01*
X17673793Y-14291420D02*
X17692841Y-14262849D01*
X17692841Y-14262849D02*
X17702364Y-14243801D01*
X17702364Y-14243801D02*
X17711888Y-14215230D01*
X17711888Y-14215230D02*
X17721412Y-14167611D01*
X17721412Y-14167611D02*
X17721412Y-14129516D01*
X17721412Y-14129516D02*
X17711888Y-14081897D01*
X17711888Y-14081897D02*
X17702364Y-14053325D01*
X17702364Y-14053325D02*
X17692841Y-14034278D01*
X17692841Y-14034278D02*
X17673793Y-14005706D01*
X17673793Y-14005706D02*
X17664269Y-13996182D01*
D12*
X12653730Y-14442270D02*
X12698730Y-14397270D01*
X12653730Y-14352270D01*
X12608730Y-14397270D01*
X12653730Y-14442270D01*
D11*
X12997602Y-14288754D02*
X13016650Y-14288754D01*
X13016650Y-14288754D02*
X13035697Y-14298278D01*
X13035697Y-14298278D02*
X13045221Y-14307801D01*
X13045221Y-14307801D02*
X13054745Y-14326849D01*
X13054745Y-14326849D02*
X13064269Y-14364944D01*
X13064269Y-14364944D02*
X13064269Y-14412563D01*
X13064269Y-14412563D02*
X13054745Y-14450658D01*
X13054745Y-14450658D02*
X13045221Y-14469706D01*
X13045221Y-14469706D02*
X13035697Y-14479230D01*
X13035697Y-14479230D02*
X13016650Y-14488754D01*
X13016650Y-14488754D02*
X12997602Y-14488754D01*
X12997602Y-14488754D02*
X12978554Y-14479230D01*
X12978554Y-14479230D02*
X12969031Y-14469706D01*
X12969031Y-14469706D02*
X12959507Y-14450658D01*
X12959507Y-14450658D02*
X12949983Y-14412563D01*
X12949983Y-14412563D02*
X12949983Y-14364944D01*
X12949983Y-14364944D02*
X12959507Y-14326849D01*
X12959507Y-14326849D02*
X12969031Y-14307801D01*
X12969031Y-14307801D02*
X12978554Y-14298278D01*
X12978554Y-14298278D02*
X12997602Y-14288754D01*
X13149983Y-14469706D02*
X13159507Y-14479230D01*
X13159507Y-14479230D02*
X13149983Y-14488754D01*
X13149983Y-14488754D02*
X13140459Y-14479230D01*
X13140459Y-14479230D02*
X13149983Y-14469706D01*
X13149983Y-14469706D02*
X13149983Y-14488754D01*
X13254745Y-14488754D02*
X13292840Y-14488754D01*
X13292840Y-14488754D02*
X13311888Y-14479230D01*
X13311888Y-14479230D02*
X13321412Y-14469706D01*
X13321412Y-14469706D02*
X13340459Y-14441135D01*
X13340459Y-14441135D02*
X13349983Y-14403039D01*
X13349983Y-14403039D02*
X13349983Y-14326849D01*
X13349983Y-14326849D02*
X13340459Y-14307801D01*
X13340459Y-14307801D02*
X13330935Y-14298278D01*
X13330935Y-14298278D02*
X13311888Y-14288754D01*
X13311888Y-14288754D02*
X13273792Y-14288754D01*
X13273792Y-14288754D02*
X13254745Y-14298278D01*
X13254745Y-14298278D02*
X13245221Y-14307801D01*
X13245221Y-14307801D02*
X13235697Y-14326849D01*
X13235697Y-14326849D02*
X13235697Y-14374468D01*
X13235697Y-14374468D02*
X13245221Y-14393516D01*
X13245221Y-14393516D02*
X13254745Y-14403039D01*
X13254745Y-14403039D02*
X13273792Y-14412563D01*
X13273792Y-14412563D02*
X13311888Y-14412563D01*
X13311888Y-14412563D02*
X13330935Y-14403039D01*
X13330935Y-14403039D02*
X13340459Y-14393516D01*
X13340459Y-14393516D02*
X13349983Y-14374468D01*
X13473792Y-14288754D02*
X13492840Y-14288754D01*
X13492840Y-14288754D02*
X13511888Y-14298278D01*
X13511888Y-14298278D02*
X13521412Y-14307801D01*
X13521412Y-14307801D02*
X13530935Y-14326849D01*
X13530935Y-14326849D02*
X13540459Y-14364944D01*
X13540459Y-14364944D02*
X13540459Y-14412563D01*
X13540459Y-14412563D02*
X13530935Y-14450658D01*
X13530935Y-14450658D02*
X13521412Y-14469706D01*
X13521412Y-14469706D02*
X13511888Y-14479230D01*
X13511888Y-14479230D02*
X13492840Y-14488754D01*
X13492840Y-14488754D02*
X13473792Y-14488754D01*
X13473792Y-14488754D02*
X13454745Y-14479230D01*
X13454745Y-14479230D02*
X13445221Y-14469706D01*
X13445221Y-14469706D02*
X13435697Y-14450658D01*
X13435697Y-14450658D02*
X13426173Y-14412563D01*
X13426173Y-14412563D02*
X13426173Y-14364944D01*
X13426173Y-14364944D02*
X13435697Y-14326849D01*
X13435697Y-14326849D02*
X13445221Y-14307801D01*
X13445221Y-14307801D02*
X13454745Y-14298278D01*
X13454745Y-14298278D02*
X13473792Y-14288754D01*
X13664269Y-14288754D02*
X13683316Y-14288754D01*
X13683316Y-14288754D02*
X13702364Y-14298278D01*
X13702364Y-14298278D02*
X13711888Y-14307801D01*
X13711888Y-14307801D02*
X13721412Y-14326849D01*
X13721412Y-14326849D02*
X13730935Y-14364944D01*
X13730935Y-14364944D02*
X13730935Y-14412563D01*
X13730935Y-14412563D02*
X13721412Y-14450658D01*
X13721412Y-14450658D02*
X13711888Y-14469706D01*
X13711888Y-14469706D02*
X13702364Y-14479230D01*
X13702364Y-14479230D02*
X13683316Y-14488754D01*
X13683316Y-14488754D02*
X13664269Y-14488754D01*
X13664269Y-14488754D02*
X13645221Y-14479230D01*
X13645221Y-14479230D02*
X13635697Y-14469706D01*
X13635697Y-14469706D02*
X13626173Y-14450658D01*
X13626173Y-14450658D02*
X13616650Y-14412563D01*
X13616650Y-14412563D02*
X13616650Y-14364944D01*
X13616650Y-14364944D02*
X13626173Y-14326849D01*
X13626173Y-14326849D02*
X13635697Y-14307801D01*
X13635697Y-14307801D02*
X13645221Y-14298278D01*
X13645221Y-14298278D02*
X13664269Y-14288754D01*
X13816650Y-14488754D02*
X13816650Y-14355420D01*
X13816650Y-14374468D02*
X13826173Y-14364944D01*
X13826173Y-14364944D02*
X13845221Y-14355420D01*
X13845221Y-14355420D02*
X13873793Y-14355420D01*
X13873793Y-14355420D02*
X13892840Y-14364944D01*
X13892840Y-14364944D02*
X13902364Y-14383992D01*
X13902364Y-14383992D02*
X13902364Y-14488754D01*
X13902364Y-14383992D02*
X13911888Y-14364944D01*
X13911888Y-14364944D02*
X13930935Y-14355420D01*
X13930935Y-14355420D02*
X13959507Y-14355420D01*
X13959507Y-14355420D02*
X13978554Y-14364944D01*
X13978554Y-14364944D02*
X13988078Y-14383992D01*
X13988078Y-14383992D02*
X13988078Y-14488754D01*
X14083316Y-14488754D02*
X14083316Y-14355420D01*
X14083316Y-14374468D02*
X14092840Y-14364944D01*
X14092840Y-14364944D02*
X14111888Y-14355420D01*
X14111888Y-14355420D02*
X14140459Y-14355420D01*
X14140459Y-14355420D02*
X14159507Y-14364944D01*
X14159507Y-14364944D02*
X14169031Y-14383992D01*
X14169031Y-14383992D02*
X14169031Y-14488754D01*
X14169031Y-14383992D02*
X14178554Y-14364944D01*
X14178554Y-14364944D02*
X14197602Y-14355420D01*
X14197602Y-14355420D02*
X14226173Y-14355420D01*
X14226173Y-14355420D02*
X14245221Y-14364944D01*
X14245221Y-14364944D02*
X14254745Y-14383992D01*
X14254745Y-14383992D02*
X14254745Y-14488754D01*
X14645221Y-14279230D02*
X14473793Y-14536373D01*
X14902364Y-14288754D02*
X14921412Y-14288754D01*
X14921412Y-14288754D02*
X14940459Y-14298278D01*
X14940459Y-14298278D02*
X14949983Y-14307801D01*
X14949983Y-14307801D02*
X14959507Y-14326849D01*
X14959507Y-14326849D02*
X14969031Y-14364944D01*
X14969031Y-14364944D02*
X14969031Y-14412563D01*
X14969031Y-14412563D02*
X14959507Y-14450658D01*
X14959507Y-14450658D02*
X14949983Y-14469706D01*
X14949983Y-14469706D02*
X14940459Y-14479230D01*
X14940459Y-14479230D02*
X14921412Y-14488754D01*
X14921412Y-14488754D02*
X14902364Y-14488754D01*
X14902364Y-14488754D02*
X14883316Y-14479230D01*
X14883316Y-14479230D02*
X14873793Y-14469706D01*
X14873793Y-14469706D02*
X14864269Y-14450658D01*
X14864269Y-14450658D02*
X14854745Y-14412563D01*
X14854745Y-14412563D02*
X14854745Y-14364944D01*
X14854745Y-14364944D02*
X14864269Y-14326849D01*
X14864269Y-14326849D02*
X14873793Y-14307801D01*
X14873793Y-14307801D02*
X14883316Y-14298278D01*
X14883316Y-14298278D02*
X14902364Y-14288754D01*
X15054745Y-14469706D02*
X15064269Y-14479230D01*
X15064269Y-14479230D02*
X15054745Y-14488754D01*
X15054745Y-14488754D02*
X15045221Y-14479230D01*
X15045221Y-14479230D02*
X15054745Y-14469706D01*
X15054745Y-14469706D02*
X15054745Y-14488754D01*
X15188078Y-14288754D02*
X15207126Y-14288754D01*
X15207126Y-14288754D02*
X15226174Y-14298278D01*
X15226174Y-14298278D02*
X15235697Y-14307801D01*
X15235697Y-14307801D02*
X15245221Y-14326849D01*
X15245221Y-14326849D02*
X15254745Y-14364944D01*
X15254745Y-14364944D02*
X15254745Y-14412563D01*
X15254745Y-14412563D02*
X15245221Y-14450658D01*
X15245221Y-14450658D02*
X15235697Y-14469706D01*
X15235697Y-14469706D02*
X15226174Y-14479230D01*
X15226174Y-14479230D02*
X15207126Y-14488754D01*
X15207126Y-14488754D02*
X15188078Y-14488754D01*
X15188078Y-14488754D02*
X15169031Y-14479230D01*
X15169031Y-14479230D02*
X15159507Y-14469706D01*
X15159507Y-14469706D02*
X15149983Y-14450658D01*
X15149983Y-14450658D02*
X15140459Y-14412563D01*
X15140459Y-14412563D02*
X15140459Y-14364944D01*
X15140459Y-14364944D02*
X15149983Y-14326849D01*
X15149983Y-14326849D02*
X15159507Y-14307801D01*
X15159507Y-14307801D02*
X15169031Y-14298278D01*
X15169031Y-14298278D02*
X15188078Y-14288754D01*
X15321412Y-14288754D02*
X15445221Y-14288754D01*
X15445221Y-14288754D02*
X15378555Y-14364944D01*
X15378555Y-14364944D02*
X15407126Y-14364944D01*
X15407126Y-14364944D02*
X15426174Y-14374468D01*
X15426174Y-14374468D02*
X15435697Y-14383992D01*
X15435697Y-14383992D02*
X15445221Y-14403039D01*
X15445221Y-14403039D02*
X15445221Y-14450658D01*
X15445221Y-14450658D02*
X15435697Y-14469706D01*
X15435697Y-14469706D02*
X15426174Y-14479230D01*
X15426174Y-14479230D02*
X15407126Y-14488754D01*
X15407126Y-14488754D02*
X15349983Y-14488754D01*
X15349983Y-14488754D02*
X15330936Y-14479230D01*
X15330936Y-14479230D02*
X15321412Y-14469706D01*
X15626174Y-14288754D02*
X15530936Y-14288754D01*
X15530936Y-14288754D02*
X15521412Y-14383992D01*
X15521412Y-14383992D02*
X15530936Y-14374468D01*
X15530936Y-14374468D02*
X15549983Y-14364944D01*
X15549983Y-14364944D02*
X15597602Y-14364944D01*
X15597602Y-14364944D02*
X15616650Y-14374468D01*
X15616650Y-14374468D02*
X15626174Y-14383992D01*
X15626174Y-14383992D02*
X15635697Y-14403039D01*
X15635697Y-14403039D02*
X15635697Y-14450658D01*
X15635697Y-14450658D02*
X15626174Y-14469706D01*
X15626174Y-14469706D02*
X15616650Y-14479230D01*
X15616650Y-14479230D02*
X15597602Y-14488754D01*
X15597602Y-14488754D02*
X15549983Y-14488754D01*
X15549983Y-14488754D02*
X15530936Y-14479230D01*
X15530936Y-14479230D02*
X15521412Y-14469706D01*
X15807126Y-14355420D02*
X15807126Y-14488754D01*
X15759507Y-14279230D02*
X15711888Y-14422087D01*
X15711888Y-14422087D02*
X15835697Y-14422087D01*
X15902364Y-14288754D02*
X15902364Y-14326849D01*
X15978555Y-14288754D02*
X15978555Y-14326849D01*
X16273793Y-14564944D02*
X16264269Y-14555420D01*
X16264269Y-14555420D02*
X16245221Y-14526849D01*
X16245221Y-14526849D02*
X16235698Y-14507801D01*
X16235698Y-14507801D02*
X16226174Y-14479230D01*
X16226174Y-14479230D02*
X16216650Y-14431611D01*
X16216650Y-14431611D02*
X16216650Y-14393516D01*
X16216650Y-14393516D02*
X16226174Y-14345897D01*
X16226174Y-14345897D02*
X16235698Y-14317325D01*
X16235698Y-14317325D02*
X16245221Y-14298278D01*
X16245221Y-14298278D02*
X16264269Y-14269706D01*
X16264269Y-14269706D02*
X16273793Y-14260182D01*
X16330936Y-14288754D02*
X16464269Y-14288754D01*
X16464269Y-14288754D02*
X16378555Y-14488754D01*
X16692840Y-14488754D02*
X16692840Y-14288754D01*
X16778555Y-14488754D02*
X16778555Y-14383992D01*
X16778555Y-14383992D02*
X16769031Y-14364944D01*
X16769031Y-14364944D02*
X16749983Y-14355420D01*
X16749983Y-14355420D02*
X16721412Y-14355420D01*
X16721412Y-14355420D02*
X16702364Y-14364944D01*
X16702364Y-14364944D02*
X16692840Y-14374468D01*
X16902364Y-14488754D02*
X16883317Y-14479230D01*
X16883317Y-14479230D02*
X16873793Y-14469706D01*
X16873793Y-14469706D02*
X16864269Y-14450658D01*
X16864269Y-14450658D02*
X16864269Y-14393516D01*
X16864269Y-14393516D02*
X16873793Y-14374468D01*
X16873793Y-14374468D02*
X16883317Y-14364944D01*
X16883317Y-14364944D02*
X16902364Y-14355420D01*
X16902364Y-14355420D02*
X16930936Y-14355420D01*
X16930936Y-14355420D02*
X16949983Y-14364944D01*
X16949983Y-14364944D02*
X16959507Y-14374468D01*
X16959507Y-14374468D02*
X16969031Y-14393516D01*
X16969031Y-14393516D02*
X16969031Y-14450658D01*
X16969031Y-14450658D02*
X16959507Y-14469706D01*
X16959507Y-14469706D02*
X16949983Y-14479230D01*
X16949983Y-14479230D02*
X16930936Y-14488754D01*
X16930936Y-14488754D02*
X16902364Y-14488754D01*
X17083317Y-14488754D02*
X17064269Y-14479230D01*
X17064269Y-14479230D02*
X17054745Y-14460182D01*
X17054745Y-14460182D02*
X17054745Y-14288754D01*
X17235698Y-14479230D02*
X17216650Y-14488754D01*
X17216650Y-14488754D02*
X17178555Y-14488754D01*
X17178555Y-14488754D02*
X17159507Y-14479230D01*
X17159507Y-14479230D02*
X17149983Y-14460182D01*
X17149983Y-14460182D02*
X17149983Y-14383992D01*
X17149983Y-14383992D02*
X17159507Y-14364944D01*
X17159507Y-14364944D02*
X17178555Y-14355420D01*
X17178555Y-14355420D02*
X17216650Y-14355420D01*
X17216650Y-14355420D02*
X17235698Y-14364944D01*
X17235698Y-14364944D02*
X17245222Y-14383992D01*
X17245222Y-14383992D02*
X17245222Y-14403039D01*
X17245222Y-14403039D02*
X17149983Y-14422087D01*
X17321412Y-14479230D02*
X17340460Y-14488754D01*
X17340460Y-14488754D02*
X17378555Y-14488754D01*
X17378555Y-14488754D02*
X17397603Y-14479230D01*
X17397603Y-14479230D02*
X17407126Y-14460182D01*
X17407126Y-14460182D02*
X17407126Y-14450658D01*
X17407126Y-14450658D02*
X17397603Y-14431611D01*
X17397603Y-14431611D02*
X17378555Y-14422087D01*
X17378555Y-14422087D02*
X17349983Y-14422087D01*
X17349983Y-14422087D02*
X17330936Y-14412563D01*
X17330936Y-14412563D02*
X17321412Y-14393516D01*
X17321412Y-14393516D02*
X17321412Y-14383992D01*
X17321412Y-14383992D02*
X17330936Y-14364944D01*
X17330936Y-14364944D02*
X17349983Y-14355420D01*
X17349983Y-14355420D02*
X17378555Y-14355420D01*
X17378555Y-14355420D02*
X17397603Y-14364944D01*
X17473793Y-14564944D02*
X17483317Y-14555420D01*
X17483317Y-14555420D02*
X17502364Y-14526849D01*
X17502364Y-14526849D02*
X17511888Y-14507801D01*
X17511888Y-14507801D02*
X17521412Y-14479230D01*
X17521412Y-14479230D02*
X17530936Y-14431611D01*
X17530936Y-14431611D02*
X17530936Y-14393516D01*
X17530936Y-14393516D02*
X17521412Y-14345897D01*
X17521412Y-14345897D02*
X17511888Y-14317325D01*
X17511888Y-14317325D02*
X17502364Y-14298278D01*
X17502364Y-14298278D02*
X17483317Y-14269706D01*
X17483317Y-14269706D02*
X17473793Y-14260182D01*
D13*
X12581730Y-14602770D02*
X12698730Y-14719770D01*
X12698730Y-14602770D02*
X12581730Y-14719770D01*
X12698730Y-14661270D02*
G75*
G02*
X12581730Y-14661270I-58500J0D01*
G01*
X12581730Y-14661270D02*
G75*
G02*
X12698730Y-14661270I58500J0D01*
G01*
D11*
X13064269Y-14752754D02*
X12949983Y-14752754D01*
X13007126Y-14752754D02*
X13007126Y-14552754D01*
X13007126Y-14552754D02*
X12988078Y-14581325D01*
X12988078Y-14581325D02*
X12969031Y-14600373D01*
X12969031Y-14600373D02*
X12949983Y-14609897D01*
X13149983Y-14733706D02*
X13159507Y-14743230D01*
X13159507Y-14743230D02*
X13149983Y-14752754D01*
X13149983Y-14752754D02*
X13140459Y-14743230D01*
X13140459Y-14743230D02*
X13149983Y-14733706D01*
X13149983Y-14733706D02*
X13149983Y-14752754D01*
X13349983Y-14752754D02*
X13235697Y-14752754D01*
X13292840Y-14752754D02*
X13292840Y-14552754D01*
X13292840Y-14552754D02*
X13273792Y-14581325D01*
X13273792Y-14581325D02*
X13254745Y-14600373D01*
X13254745Y-14600373D02*
X13235697Y-14609897D01*
X13416650Y-14552754D02*
X13549983Y-14552754D01*
X13549983Y-14552754D02*
X13464269Y-14752754D01*
X13664269Y-14552754D02*
X13683316Y-14552754D01*
X13683316Y-14552754D02*
X13702364Y-14562278D01*
X13702364Y-14562278D02*
X13711888Y-14571801D01*
X13711888Y-14571801D02*
X13721412Y-14590849D01*
X13721412Y-14590849D02*
X13730935Y-14628944D01*
X13730935Y-14628944D02*
X13730935Y-14676563D01*
X13730935Y-14676563D02*
X13721412Y-14714658D01*
X13721412Y-14714658D02*
X13711888Y-14733706D01*
X13711888Y-14733706D02*
X13702364Y-14743230D01*
X13702364Y-14743230D02*
X13683316Y-14752754D01*
X13683316Y-14752754D02*
X13664269Y-14752754D01*
X13664269Y-14752754D02*
X13645221Y-14743230D01*
X13645221Y-14743230D02*
X13635697Y-14733706D01*
X13635697Y-14733706D02*
X13626173Y-14714658D01*
X13626173Y-14714658D02*
X13616650Y-14676563D01*
X13616650Y-14676563D02*
X13616650Y-14628944D01*
X13616650Y-14628944D02*
X13626173Y-14590849D01*
X13626173Y-14590849D02*
X13635697Y-14571801D01*
X13635697Y-14571801D02*
X13645221Y-14562278D01*
X13645221Y-14562278D02*
X13664269Y-14552754D01*
X13816650Y-14752754D02*
X13816650Y-14619420D01*
X13816650Y-14638468D02*
X13826173Y-14628944D01*
X13826173Y-14628944D02*
X13845221Y-14619420D01*
X13845221Y-14619420D02*
X13873793Y-14619420D01*
X13873793Y-14619420D02*
X13892840Y-14628944D01*
X13892840Y-14628944D02*
X13902364Y-14647992D01*
X13902364Y-14647992D02*
X13902364Y-14752754D01*
X13902364Y-14647992D02*
X13911888Y-14628944D01*
X13911888Y-14628944D02*
X13930935Y-14619420D01*
X13930935Y-14619420D02*
X13959507Y-14619420D01*
X13959507Y-14619420D02*
X13978554Y-14628944D01*
X13978554Y-14628944D02*
X13988078Y-14647992D01*
X13988078Y-14647992D02*
X13988078Y-14752754D01*
X14083316Y-14752754D02*
X14083316Y-14619420D01*
X14083316Y-14638468D02*
X14092840Y-14628944D01*
X14092840Y-14628944D02*
X14111888Y-14619420D01*
X14111888Y-14619420D02*
X14140459Y-14619420D01*
X14140459Y-14619420D02*
X14159507Y-14628944D01*
X14159507Y-14628944D02*
X14169031Y-14647992D01*
X14169031Y-14647992D02*
X14169031Y-14752754D01*
X14169031Y-14647992D02*
X14178554Y-14628944D01*
X14178554Y-14628944D02*
X14197602Y-14619420D01*
X14197602Y-14619420D02*
X14226173Y-14619420D01*
X14226173Y-14619420D02*
X14245221Y-14628944D01*
X14245221Y-14628944D02*
X14254745Y-14647992D01*
X14254745Y-14647992D02*
X14254745Y-14752754D01*
X14645221Y-14543230D02*
X14473793Y-14800373D01*
X14902364Y-14552754D02*
X14921412Y-14552754D01*
X14921412Y-14552754D02*
X14940459Y-14562278D01*
X14940459Y-14562278D02*
X14949983Y-14571801D01*
X14949983Y-14571801D02*
X14959507Y-14590849D01*
X14959507Y-14590849D02*
X14969031Y-14628944D01*
X14969031Y-14628944D02*
X14969031Y-14676563D01*
X14969031Y-14676563D02*
X14959507Y-14714658D01*
X14959507Y-14714658D02*
X14949983Y-14733706D01*
X14949983Y-14733706D02*
X14940459Y-14743230D01*
X14940459Y-14743230D02*
X14921412Y-14752754D01*
X14921412Y-14752754D02*
X14902364Y-14752754D01*
X14902364Y-14752754D02*
X14883316Y-14743230D01*
X14883316Y-14743230D02*
X14873793Y-14733706D01*
X14873793Y-14733706D02*
X14864269Y-14714658D01*
X14864269Y-14714658D02*
X14854745Y-14676563D01*
X14854745Y-14676563D02*
X14854745Y-14628944D01*
X14854745Y-14628944D02*
X14864269Y-14590849D01*
X14864269Y-14590849D02*
X14873793Y-14571801D01*
X14873793Y-14571801D02*
X14883316Y-14562278D01*
X14883316Y-14562278D02*
X14902364Y-14552754D01*
X15054745Y-14733706D02*
X15064269Y-14743230D01*
X15064269Y-14743230D02*
X15054745Y-14752754D01*
X15054745Y-14752754D02*
X15045221Y-14743230D01*
X15045221Y-14743230D02*
X15054745Y-14733706D01*
X15054745Y-14733706D02*
X15054745Y-14752754D01*
X15188078Y-14552754D02*
X15207126Y-14552754D01*
X15207126Y-14552754D02*
X15226174Y-14562278D01*
X15226174Y-14562278D02*
X15235697Y-14571801D01*
X15235697Y-14571801D02*
X15245221Y-14590849D01*
X15245221Y-14590849D02*
X15254745Y-14628944D01*
X15254745Y-14628944D02*
X15254745Y-14676563D01*
X15254745Y-14676563D02*
X15245221Y-14714658D01*
X15245221Y-14714658D02*
X15235697Y-14733706D01*
X15235697Y-14733706D02*
X15226174Y-14743230D01*
X15226174Y-14743230D02*
X15207126Y-14752754D01*
X15207126Y-14752754D02*
X15188078Y-14752754D01*
X15188078Y-14752754D02*
X15169031Y-14743230D01*
X15169031Y-14743230D02*
X15159507Y-14733706D01*
X15159507Y-14733706D02*
X15149983Y-14714658D01*
X15149983Y-14714658D02*
X15140459Y-14676563D01*
X15140459Y-14676563D02*
X15140459Y-14628944D01*
X15140459Y-14628944D02*
X15149983Y-14590849D01*
X15149983Y-14590849D02*
X15159507Y-14571801D01*
X15159507Y-14571801D02*
X15169031Y-14562278D01*
X15169031Y-14562278D02*
X15188078Y-14552754D01*
X15426174Y-14619420D02*
X15426174Y-14752754D01*
X15378555Y-14543230D02*
X15330936Y-14686087D01*
X15330936Y-14686087D02*
X15454745Y-14686087D01*
X15616650Y-14552754D02*
X15578555Y-14552754D01*
X15578555Y-14552754D02*
X15559507Y-14562278D01*
X15559507Y-14562278D02*
X15549983Y-14571801D01*
X15549983Y-14571801D02*
X15530936Y-14600373D01*
X15530936Y-14600373D02*
X15521412Y-14638468D01*
X15521412Y-14638468D02*
X15521412Y-14714658D01*
X15521412Y-14714658D02*
X15530936Y-14733706D01*
X15530936Y-14733706D02*
X15540459Y-14743230D01*
X15540459Y-14743230D02*
X15559507Y-14752754D01*
X15559507Y-14752754D02*
X15597602Y-14752754D01*
X15597602Y-14752754D02*
X15616650Y-14743230D01*
X15616650Y-14743230D02*
X15626174Y-14733706D01*
X15626174Y-14733706D02*
X15635697Y-14714658D01*
X15635697Y-14714658D02*
X15635697Y-14667039D01*
X15635697Y-14667039D02*
X15626174Y-14647992D01*
X15626174Y-14647992D02*
X15616650Y-14638468D01*
X15616650Y-14638468D02*
X15597602Y-14628944D01*
X15597602Y-14628944D02*
X15559507Y-14628944D01*
X15559507Y-14628944D02*
X15540459Y-14638468D01*
X15540459Y-14638468D02*
X15530936Y-14647992D01*
X15530936Y-14647992D02*
X15521412Y-14667039D01*
X15826174Y-14752754D02*
X15711888Y-14752754D01*
X15769031Y-14752754D02*
X15769031Y-14552754D01*
X15769031Y-14552754D02*
X15749983Y-14581325D01*
X15749983Y-14581325D02*
X15730936Y-14600373D01*
X15730936Y-14600373D02*
X15711888Y-14609897D01*
X15902364Y-14552754D02*
X15902364Y-14590849D01*
X15978555Y-14552754D02*
X15978555Y-14590849D01*
X16273793Y-14828944D02*
X16264269Y-14819420D01*
X16264269Y-14819420D02*
X16245221Y-14790849D01*
X16245221Y-14790849D02*
X16235698Y-14771801D01*
X16235698Y-14771801D02*
X16226174Y-14743230D01*
X16226174Y-14743230D02*
X16216650Y-14695611D01*
X16216650Y-14695611D02*
X16216650Y-14657516D01*
X16216650Y-14657516D02*
X16226174Y-14609897D01*
X16226174Y-14609897D02*
X16235698Y-14581325D01*
X16235698Y-14581325D02*
X16245221Y-14562278D01*
X16245221Y-14562278D02*
X16264269Y-14533706D01*
X16264269Y-14533706D02*
X16273793Y-14524182D01*
X16454745Y-14752754D02*
X16340459Y-14752754D01*
X16397602Y-14752754D02*
X16397602Y-14552754D01*
X16397602Y-14552754D02*
X16378555Y-14581325D01*
X16378555Y-14581325D02*
X16359507Y-14600373D01*
X16359507Y-14600373D02*
X16340459Y-14609897D01*
X16692840Y-14752754D02*
X16692840Y-14552754D01*
X16778555Y-14752754D02*
X16778555Y-14647992D01*
X16778555Y-14647992D02*
X16769031Y-14628944D01*
X16769031Y-14628944D02*
X16749983Y-14619420D01*
X16749983Y-14619420D02*
X16721412Y-14619420D01*
X16721412Y-14619420D02*
X16702364Y-14628944D01*
X16702364Y-14628944D02*
X16692840Y-14638468D01*
X16902364Y-14752754D02*
X16883317Y-14743230D01*
X16883317Y-14743230D02*
X16873793Y-14733706D01*
X16873793Y-14733706D02*
X16864269Y-14714658D01*
X16864269Y-14714658D02*
X16864269Y-14657516D01*
X16864269Y-14657516D02*
X16873793Y-14638468D01*
X16873793Y-14638468D02*
X16883317Y-14628944D01*
X16883317Y-14628944D02*
X16902364Y-14619420D01*
X16902364Y-14619420D02*
X16930936Y-14619420D01*
X16930936Y-14619420D02*
X16949983Y-14628944D01*
X16949983Y-14628944D02*
X16959507Y-14638468D01*
X16959507Y-14638468D02*
X16969031Y-14657516D01*
X16969031Y-14657516D02*
X16969031Y-14714658D01*
X16969031Y-14714658D02*
X16959507Y-14733706D01*
X16959507Y-14733706D02*
X16949983Y-14743230D01*
X16949983Y-14743230D02*
X16930936Y-14752754D01*
X16930936Y-14752754D02*
X16902364Y-14752754D01*
X17083317Y-14752754D02*
X17064269Y-14743230D01*
X17064269Y-14743230D02*
X17054745Y-14724182D01*
X17054745Y-14724182D02*
X17054745Y-14552754D01*
X17235698Y-14743230D02*
X17216650Y-14752754D01*
X17216650Y-14752754D02*
X17178555Y-14752754D01*
X17178555Y-14752754D02*
X17159507Y-14743230D01*
X17159507Y-14743230D02*
X17149983Y-14724182D01*
X17149983Y-14724182D02*
X17149983Y-14647992D01*
X17149983Y-14647992D02*
X17159507Y-14628944D01*
X17159507Y-14628944D02*
X17178555Y-14619420D01*
X17178555Y-14619420D02*
X17216650Y-14619420D01*
X17216650Y-14619420D02*
X17235698Y-14628944D01*
X17235698Y-14628944D02*
X17245222Y-14647992D01*
X17245222Y-14647992D02*
X17245222Y-14667039D01*
X17245222Y-14667039D02*
X17149983Y-14686087D01*
X17311888Y-14828944D02*
X17321412Y-14819420D01*
X17321412Y-14819420D02*
X17340460Y-14790849D01*
X17340460Y-14790849D02*
X17349983Y-14771801D01*
X17349983Y-14771801D02*
X17359507Y-14743230D01*
X17359507Y-14743230D02*
X17369031Y-14695611D01*
X17369031Y-14695611D02*
X17369031Y-14657516D01*
X17369031Y-14657516D02*
X17359507Y-14609897D01*
X17359507Y-14609897D02*
X17349983Y-14581325D01*
X17349983Y-14581325D02*
X17340460Y-14562278D01*
X17340460Y-14562278D02*
X17321412Y-14533706D01*
X17321412Y-14533706D02*
X17311888Y-14524182D01*
D14*
X12548730Y-14850270D02*
X12698730Y-15000270D01*
X12698730Y-14850270D02*
X12548730Y-15000270D01*
X12623730Y-14850270D02*
X12623730Y-15000270D01*
X12548730Y-14925270D02*
X12698730Y-14925270D01*
D11*
X13064269Y-15016754D02*
X12949983Y-15016754D01*
X13007126Y-15016754D02*
X13007126Y-14816754D01*
X13007126Y-14816754D02*
X12988078Y-14845325D01*
X12988078Y-14845325D02*
X12969031Y-14864373D01*
X12969031Y-14864373D02*
X12949983Y-14873897D01*
X13149983Y-14997706D02*
X13159507Y-15007230D01*
X13159507Y-15007230D02*
X13149983Y-15016754D01*
X13149983Y-15016754D02*
X13140459Y-15007230D01*
X13140459Y-15007230D02*
X13149983Y-14997706D01*
X13149983Y-14997706D02*
X13149983Y-15016754D01*
X13340459Y-14816754D02*
X13245221Y-14816754D01*
X13245221Y-14816754D02*
X13235697Y-14911992D01*
X13235697Y-14911992D02*
X13245221Y-14902468D01*
X13245221Y-14902468D02*
X13264269Y-14892944D01*
X13264269Y-14892944D02*
X13311888Y-14892944D01*
X13311888Y-14892944D02*
X13330935Y-14902468D01*
X13330935Y-14902468D02*
X13340459Y-14911992D01*
X13340459Y-14911992D02*
X13349983Y-14931039D01*
X13349983Y-14931039D02*
X13349983Y-14978658D01*
X13349983Y-14978658D02*
X13340459Y-14997706D01*
X13340459Y-14997706D02*
X13330935Y-15007230D01*
X13330935Y-15007230D02*
X13311888Y-15016754D01*
X13311888Y-15016754D02*
X13264269Y-15016754D01*
X13264269Y-15016754D02*
X13245221Y-15007230D01*
X13245221Y-15007230D02*
X13235697Y-14997706D01*
X13473792Y-14816754D02*
X13492840Y-14816754D01*
X13492840Y-14816754D02*
X13511888Y-14826278D01*
X13511888Y-14826278D02*
X13521412Y-14835801D01*
X13521412Y-14835801D02*
X13530935Y-14854849D01*
X13530935Y-14854849D02*
X13540459Y-14892944D01*
X13540459Y-14892944D02*
X13540459Y-14940563D01*
X13540459Y-14940563D02*
X13530935Y-14978658D01*
X13530935Y-14978658D02*
X13521412Y-14997706D01*
X13521412Y-14997706D02*
X13511888Y-15007230D01*
X13511888Y-15007230D02*
X13492840Y-15016754D01*
X13492840Y-15016754D02*
X13473792Y-15016754D01*
X13473792Y-15016754D02*
X13454745Y-15007230D01*
X13454745Y-15007230D02*
X13445221Y-14997706D01*
X13445221Y-14997706D02*
X13435697Y-14978658D01*
X13435697Y-14978658D02*
X13426173Y-14940563D01*
X13426173Y-14940563D02*
X13426173Y-14892944D01*
X13426173Y-14892944D02*
X13435697Y-14854849D01*
X13435697Y-14854849D02*
X13445221Y-14835801D01*
X13445221Y-14835801D02*
X13454745Y-14826278D01*
X13454745Y-14826278D02*
X13473792Y-14816754D01*
X13664269Y-14816754D02*
X13683316Y-14816754D01*
X13683316Y-14816754D02*
X13702364Y-14826278D01*
X13702364Y-14826278D02*
X13711888Y-14835801D01*
X13711888Y-14835801D02*
X13721412Y-14854849D01*
X13721412Y-14854849D02*
X13730935Y-14892944D01*
X13730935Y-14892944D02*
X13730935Y-14940563D01*
X13730935Y-14940563D02*
X13721412Y-14978658D01*
X13721412Y-14978658D02*
X13711888Y-14997706D01*
X13711888Y-14997706D02*
X13702364Y-15007230D01*
X13702364Y-15007230D02*
X13683316Y-15016754D01*
X13683316Y-15016754D02*
X13664269Y-15016754D01*
X13664269Y-15016754D02*
X13645221Y-15007230D01*
X13645221Y-15007230D02*
X13635697Y-14997706D01*
X13635697Y-14997706D02*
X13626173Y-14978658D01*
X13626173Y-14978658D02*
X13616650Y-14940563D01*
X13616650Y-14940563D02*
X13616650Y-14892944D01*
X13616650Y-14892944D02*
X13626173Y-14854849D01*
X13626173Y-14854849D02*
X13635697Y-14835801D01*
X13635697Y-14835801D02*
X13645221Y-14826278D01*
X13645221Y-14826278D02*
X13664269Y-14816754D01*
X13816650Y-15016754D02*
X13816650Y-14883420D01*
X13816650Y-14902468D02*
X13826173Y-14892944D01*
X13826173Y-14892944D02*
X13845221Y-14883420D01*
X13845221Y-14883420D02*
X13873793Y-14883420D01*
X13873793Y-14883420D02*
X13892840Y-14892944D01*
X13892840Y-14892944D02*
X13902364Y-14911992D01*
X13902364Y-14911992D02*
X13902364Y-15016754D01*
X13902364Y-14911992D02*
X13911888Y-14892944D01*
X13911888Y-14892944D02*
X13930935Y-14883420D01*
X13930935Y-14883420D02*
X13959507Y-14883420D01*
X13959507Y-14883420D02*
X13978554Y-14892944D01*
X13978554Y-14892944D02*
X13988078Y-14911992D01*
X13988078Y-14911992D02*
X13988078Y-15016754D01*
X14083316Y-15016754D02*
X14083316Y-14883420D01*
X14083316Y-14902468D02*
X14092840Y-14892944D01*
X14092840Y-14892944D02*
X14111888Y-14883420D01*
X14111888Y-14883420D02*
X14140459Y-14883420D01*
X14140459Y-14883420D02*
X14159507Y-14892944D01*
X14159507Y-14892944D02*
X14169031Y-14911992D01*
X14169031Y-14911992D02*
X14169031Y-15016754D01*
X14169031Y-14911992D02*
X14178554Y-14892944D01*
X14178554Y-14892944D02*
X14197602Y-14883420D01*
X14197602Y-14883420D02*
X14226173Y-14883420D01*
X14226173Y-14883420D02*
X14245221Y-14892944D01*
X14245221Y-14892944D02*
X14254745Y-14911992D01*
X14254745Y-14911992D02*
X14254745Y-15016754D01*
X14645221Y-14807230D02*
X14473793Y-15064373D01*
X14902364Y-14816754D02*
X14921412Y-14816754D01*
X14921412Y-14816754D02*
X14940459Y-14826278D01*
X14940459Y-14826278D02*
X14949983Y-14835801D01*
X14949983Y-14835801D02*
X14959507Y-14854849D01*
X14959507Y-14854849D02*
X14969031Y-14892944D01*
X14969031Y-14892944D02*
X14969031Y-14940563D01*
X14969031Y-14940563D02*
X14959507Y-14978658D01*
X14959507Y-14978658D02*
X14949983Y-14997706D01*
X14949983Y-14997706D02*
X14940459Y-15007230D01*
X14940459Y-15007230D02*
X14921412Y-15016754D01*
X14921412Y-15016754D02*
X14902364Y-15016754D01*
X14902364Y-15016754D02*
X14883316Y-15007230D01*
X14883316Y-15007230D02*
X14873793Y-14997706D01*
X14873793Y-14997706D02*
X14864269Y-14978658D01*
X14864269Y-14978658D02*
X14854745Y-14940563D01*
X14854745Y-14940563D02*
X14854745Y-14892944D01*
X14854745Y-14892944D02*
X14864269Y-14854849D01*
X14864269Y-14854849D02*
X14873793Y-14835801D01*
X14873793Y-14835801D02*
X14883316Y-14826278D01*
X14883316Y-14826278D02*
X14902364Y-14816754D01*
X15054745Y-14997706D02*
X15064269Y-15007230D01*
X15064269Y-15007230D02*
X15054745Y-15016754D01*
X15054745Y-15016754D02*
X15045221Y-15007230D01*
X15045221Y-15007230D02*
X15054745Y-14997706D01*
X15054745Y-14997706D02*
X15054745Y-15016754D01*
X15188078Y-14816754D02*
X15207126Y-14816754D01*
X15207126Y-14816754D02*
X15226174Y-14826278D01*
X15226174Y-14826278D02*
X15235697Y-14835801D01*
X15235697Y-14835801D02*
X15245221Y-14854849D01*
X15245221Y-14854849D02*
X15254745Y-14892944D01*
X15254745Y-14892944D02*
X15254745Y-14940563D01*
X15254745Y-14940563D02*
X15245221Y-14978658D01*
X15245221Y-14978658D02*
X15235697Y-14997706D01*
X15235697Y-14997706D02*
X15226174Y-15007230D01*
X15226174Y-15007230D02*
X15207126Y-15016754D01*
X15207126Y-15016754D02*
X15188078Y-15016754D01*
X15188078Y-15016754D02*
X15169031Y-15007230D01*
X15169031Y-15007230D02*
X15159507Y-14997706D01*
X15159507Y-14997706D02*
X15149983Y-14978658D01*
X15149983Y-14978658D02*
X15140459Y-14940563D01*
X15140459Y-14940563D02*
X15140459Y-14892944D01*
X15140459Y-14892944D02*
X15149983Y-14854849D01*
X15149983Y-14854849D02*
X15159507Y-14835801D01*
X15159507Y-14835801D02*
X15169031Y-14826278D01*
X15169031Y-14826278D02*
X15188078Y-14816754D01*
X15435697Y-14816754D02*
X15340459Y-14816754D01*
X15340459Y-14816754D02*
X15330936Y-14911992D01*
X15330936Y-14911992D02*
X15340459Y-14902468D01*
X15340459Y-14902468D02*
X15359507Y-14892944D01*
X15359507Y-14892944D02*
X15407126Y-14892944D01*
X15407126Y-14892944D02*
X15426174Y-14902468D01*
X15426174Y-14902468D02*
X15435697Y-14911992D01*
X15435697Y-14911992D02*
X15445221Y-14931039D01*
X15445221Y-14931039D02*
X15445221Y-14978658D01*
X15445221Y-14978658D02*
X15435697Y-14997706D01*
X15435697Y-14997706D02*
X15426174Y-15007230D01*
X15426174Y-15007230D02*
X15407126Y-15016754D01*
X15407126Y-15016754D02*
X15359507Y-15016754D01*
X15359507Y-15016754D02*
X15340459Y-15007230D01*
X15340459Y-15007230D02*
X15330936Y-14997706D01*
X15540459Y-15016754D02*
X15578555Y-15016754D01*
X15578555Y-15016754D02*
X15597602Y-15007230D01*
X15597602Y-15007230D02*
X15607126Y-14997706D01*
X15607126Y-14997706D02*
X15626174Y-14969135D01*
X15626174Y-14969135D02*
X15635697Y-14931039D01*
X15635697Y-14931039D02*
X15635697Y-14854849D01*
X15635697Y-14854849D02*
X15626174Y-14835801D01*
X15626174Y-14835801D02*
X15616650Y-14826278D01*
X15616650Y-14826278D02*
X15597602Y-14816754D01*
X15597602Y-14816754D02*
X15559507Y-14816754D01*
X15559507Y-14816754D02*
X15540459Y-14826278D01*
X15540459Y-14826278D02*
X15530936Y-14835801D01*
X15530936Y-14835801D02*
X15521412Y-14854849D01*
X15521412Y-14854849D02*
X15521412Y-14902468D01*
X15521412Y-14902468D02*
X15530936Y-14921516D01*
X15530936Y-14921516D02*
X15540459Y-14931039D01*
X15540459Y-14931039D02*
X15559507Y-14940563D01*
X15559507Y-14940563D02*
X15597602Y-14940563D01*
X15597602Y-14940563D02*
X15616650Y-14931039D01*
X15616650Y-14931039D02*
X15626174Y-14921516D01*
X15626174Y-14921516D02*
X15635697Y-14902468D01*
X15826174Y-15016754D02*
X15711888Y-15016754D01*
X15769031Y-15016754D02*
X15769031Y-14816754D01*
X15769031Y-14816754D02*
X15749983Y-14845325D01*
X15749983Y-14845325D02*
X15730936Y-14864373D01*
X15730936Y-14864373D02*
X15711888Y-14873897D01*
X15902364Y-14816754D02*
X15902364Y-14854849D01*
X15978555Y-14816754D02*
X15978555Y-14854849D01*
X16273793Y-15092944D02*
X16264269Y-15083420D01*
X16264269Y-15083420D02*
X16245221Y-15054849D01*
X16245221Y-15054849D02*
X16235698Y-15035801D01*
X16235698Y-15035801D02*
X16226174Y-15007230D01*
X16226174Y-15007230D02*
X16216650Y-14959611D01*
X16216650Y-14959611D02*
X16216650Y-14921516D01*
X16216650Y-14921516D02*
X16226174Y-14873897D01*
X16226174Y-14873897D02*
X16235698Y-14845325D01*
X16235698Y-14845325D02*
X16245221Y-14826278D01*
X16245221Y-14826278D02*
X16264269Y-14797706D01*
X16264269Y-14797706D02*
X16273793Y-14788182D01*
X16454745Y-15016754D02*
X16340459Y-15016754D01*
X16397602Y-15016754D02*
X16397602Y-14816754D01*
X16397602Y-14816754D02*
X16378555Y-14845325D01*
X16378555Y-14845325D02*
X16359507Y-14864373D01*
X16359507Y-14864373D02*
X16340459Y-14873897D01*
X16692840Y-15016754D02*
X16692840Y-14816754D01*
X16778555Y-15016754D02*
X16778555Y-14911992D01*
X16778555Y-14911992D02*
X16769031Y-14892944D01*
X16769031Y-14892944D02*
X16749983Y-14883420D01*
X16749983Y-14883420D02*
X16721412Y-14883420D01*
X16721412Y-14883420D02*
X16702364Y-14892944D01*
X16702364Y-14892944D02*
X16692840Y-14902468D01*
X16902364Y-15016754D02*
X16883317Y-15007230D01*
X16883317Y-15007230D02*
X16873793Y-14997706D01*
X16873793Y-14997706D02*
X16864269Y-14978658D01*
X16864269Y-14978658D02*
X16864269Y-14921516D01*
X16864269Y-14921516D02*
X16873793Y-14902468D01*
X16873793Y-14902468D02*
X16883317Y-14892944D01*
X16883317Y-14892944D02*
X16902364Y-14883420D01*
X16902364Y-14883420D02*
X16930936Y-14883420D01*
X16930936Y-14883420D02*
X16949983Y-14892944D01*
X16949983Y-14892944D02*
X16959507Y-14902468D01*
X16959507Y-14902468D02*
X16969031Y-14921516D01*
X16969031Y-14921516D02*
X16969031Y-14978658D01*
X16969031Y-14978658D02*
X16959507Y-14997706D01*
X16959507Y-14997706D02*
X16949983Y-15007230D01*
X16949983Y-15007230D02*
X16930936Y-15016754D01*
X16930936Y-15016754D02*
X16902364Y-15016754D01*
X17083317Y-15016754D02*
X17064269Y-15007230D01*
X17064269Y-15007230D02*
X17054745Y-14988182D01*
X17054745Y-14988182D02*
X17054745Y-14816754D01*
X17235698Y-15007230D02*
X17216650Y-15016754D01*
X17216650Y-15016754D02*
X17178555Y-15016754D01*
X17178555Y-15016754D02*
X17159507Y-15007230D01*
X17159507Y-15007230D02*
X17149983Y-14988182D01*
X17149983Y-14988182D02*
X17149983Y-14911992D01*
X17149983Y-14911992D02*
X17159507Y-14892944D01*
X17159507Y-14892944D02*
X17178555Y-14883420D01*
X17178555Y-14883420D02*
X17216650Y-14883420D01*
X17216650Y-14883420D02*
X17235698Y-14892944D01*
X17235698Y-14892944D02*
X17245222Y-14911992D01*
X17245222Y-14911992D02*
X17245222Y-14931039D01*
X17245222Y-14931039D02*
X17149983Y-14950087D01*
X17311888Y-15092944D02*
X17321412Y-15083420D01*
X17321412Y-15083420D02*
X17340460Y-15054849D01*
X17340460Y-15054849D02*
X17349983Y-15035801D01*
X17349983Y-15035801D02*
X17359507Y-15007230D01*
X17359507Y-15007230D02*
X17369031Y-14959611D01*
X17369031Y-14959611D02*
X17369031Y-14921516D01*
X17369031Y-14921516D02*
X17359507Y-14873897D01*
X17359507Y-14873897D02*
X17349983Y-14845325D01*
X17349983Y-14845325D02*
X17340460Y-14826278D01*
X17340460Y-14826278D02*
X17321412Y-14797706D01*
X17321412Y-14797706D02*
X17311888Y-14788182D01*
M02*
