%TF.GenerationSoftware,KiCad,Pcbnew,8.0.3*%
%TF.CreationDate,2024-07-07T15:03:49+03:00*%
%TF.ProjectId,Test,54657374-2e6b-4696-9361-645f70636258,v01*%
%TF.SameCoordinates,Original*%
%TF.FileFunction,Drillmap*%
%TF.FilePolarity,Positive*%
%FSLAX45Y45*%
G04 Gerber Fmt 4.5, Leading zero omitted, Abs format (unit mm)*
G04 Created by KiCad (PCBNEW 8.0.3) date 2024-07-07 15:03:49*
%MOMM*%
%LPD*%
G01*
G04 APERTURE LIST*
%ADD10C,0.025400*%
%ADD11C,0.200000*%
G04 APERTURE END LIST*
D10*
X14884400Y-4775200D02*
G75*
G02*
X14884400Y-4394200I0J190500D01*
G01*
X14884400Y-4394200D02*
X15900400Y-4394200D01*
X18084800Y-12700000D02*
X18084800Y-4140200D01*
X14884400Y-4775200D02*
X15900400Y-4775200D01*
X12700000Y-4140200D02*
X12700000Y-12700000D01*
X15900400Y-4394200D02*
G75*
G02*
X15900400Y-4775200I0J-190500D01*
G01*
X12700000Y-12700000D02*
X18084800Y-12700000D01*
X18084800Y-4140200D02*
X12700000Y-4140200D01*
D11*
X12959507Y-13012754D02*
X12959507Y-12812754D01*
X12959507Y-12812754D02*
X13007126Y-12812754D01*
X13007126Y-12812754D02*
X13035697Y-12822278D01*
X13035697Y-12822278D02*
X13054745Y-12841325D01*
X13054745Y-12841325D02*
X13064269Y-12860373D01*
X13064269Y-12860373D02*
X13073792Y-12898468D01*
X13073792Y-12898468D02*
X13073792Y-12927039D01*
X13073792Y-12927039D02*
X13064269Y-12965135D01*
X13064269Y-12965135D02*
X13054745Y-12984182D01*
X13054745Y-12984182D02*
X13035697Y-13003230D01*
X13035697Y-13003230D02*
X13007126Y-13012754D01*
X13007126Y-13012754D02*
X12959507Y-13012754D01*
X13159507Y-13012754D02*
X13159507Y-12879420D01*
X13159507Y-12917516D02*
X13169031Y-12898468D01*
X13169031Y-12898468D02*
X13178554Y-12888944D01*
X13178554Y-12888944D02*
X13197602Y-12879420D01*
X13197602Y-12879420D02*
X13216650Y-12879420D01*
X13283316Y-13012754D02*
X13283316Y-12879420D01*
X13283316Y-12812754D02*
X13273792Y-12822278D01*
X13273792Y-12822278D02*
X13283316Y-12831801D01*
X13283316Y-12831801D02*
X13292840Y-12822278D01*
X13292840Y-12822278D02*
X13283316Y-12812754D01*
X13283316Y-12812754D02*
X13283316Y-12831801D01*
X13407126Y-13012754D02*
X13388078Y-13003230D01*
X13388078Y-13003230D02*
X13378554Y-12984182D01*
X13378554Y-12984182D02*
X13378554Y-12812754D01*
X13511888Y-13012754D02*
X13492840Y-13003230D01*
X13492840Y-13003230D02*
X13483316Y-12984182D01*
X13483316Y-12984182D02*
X13483316Y-12812754D01*
X13740459Y-13012754D02*
X13740459Y-12812754D01*
X13740459Y-12812754D02*
X13807126Y-12955611D01*
X13807126Y-12955611D02*
X13873792Y-12812754D01*
X13873792Y-12812754D02*
X13873792Y-13012754D01*
X14054745Y-13012754D02*
X14054745Y-12907992D01*
X14054745Y-12907992D02*
X14045221Y-12888944D01*
X14045221Y-12888944D02*
X14026173Y-12879420D01*
X14026173Y-12879420D02*
X13988078Y-12879420D01*
X13988078Y-12879420D02*
X13969031Y-12888944D01*
X14054745Y-13003230D02*
X14035697Y-13012754D01*
X14035697Y-13012754D02*
X13988078Y-13012754D01*
X13988078Y-13012754D02*
X13969031Y-13003230D01*
X13969031Y-13003230D02*
X13959507Y-12984182D01*
X13959507Y-12984182D02*
X13959507Y-12965135D01*
X13959507Y-12965135D02*
X13969031Y-12946087D01*
X13969031Y-12946087D02*
X13988078Y-12936563D01*
X13988078Y-12936563D02*
X14035697Y-12936563D01*
X14035697Y-12936563D02*
X14054745Y-12927039D01*
X14149983Y-12879420D02*
X14149983Y-13079420D01*
X14149983Y-12888944D02*
X14169031Y-12879420D01*
X14169031Y-12879420D02*
X14207126Y-12879420D01*
X14207126Y-12879420D02*
X14226173Y-12888944D01*
X14226173Y-12888944D02*
X14235697Y-12898468D01*
X14235697Y-12898468D02*
X14245221Y-12917516D01*
X14245221Y-12917516D02*
X14245221Y-12974658D01*
X14245221Y-12974658D02*
X14235697Y-12993706D01*
X14235697Y-12993706D02*
X14226173Y-13003230D01*
X14226173Y-13003230D02*
X14207126Y-13012754D01*
X14207126Y-13012754D02*
X14169031Y-13012754D01*
X14169031Y-13012754D02*
X14149983Y-13003230D01*
X14330935Y-12993706D02*
X14340459Y-13003230D01*
X14340459Y-13003230D02*
X14330935Y-13012754D01*
X14330935Y-13012754D02*
X14321412Y-13003230D01*
X14321412Y-13003230D02*
X14330935Y-12993706D01*
X14330935Y-12993706D02*
X14330935Y-13012754D01*
X14330935Y-12888944D02*
X14340459Y-12898468D01*
X14340459Y-12898468D02*
X14330935Y-12907992D01*
X14330935Y-12907992D02*
X14321412Y-12898468D01*
X14321412Y-12898468D02*
X14330935Y-12888944D01*
X14330935Y-12888944D02*
X14330935Y-12907992D01*
M02*
