%TF.GenerationSoftware,KiCad,Pcbnew,8.0.3*%
%TF.CreationDate,2024-07-07T15:03:45+03:00*%
%TF.ProjectId,Test,54657374-2e6b-4696-9361-645f70636258,v01*%
%TF.SameCoordinates,Original*%
%TF.FileFunction,Legend,Top*%
%TF.FilePolarity,Positive*%
%FSLAX46Y46*%
G04 Gerber Fmt 4.6, Leading zero omitted, Abs format (unit mm)*
G04 Created by KiCad (PCBNEW 8.0.3) date 2024-07-07 15:03:45*
%MOMM*%
%LPD*%
G01*
G04 APERTURE LIST*
%ADD10C,0.476250*%
%ADD11C,0.250000*%
%ADD12C,0.120000*%
%ADD13C,0.100000*%
%ADD14C,0.203200*%
%ADD15C,0.150000*%
G04 APERTURE END LIST*
D10*
X165685464Y-45462099D02*
X166139036Y-46732099D01*
X166139036Y-46732099D02*
X166592607Y-45462099D01*
X168044036Y-46641385D02*
X167862608Y-46732099D01*
X167862608Y-46732099D02*
X167499751Y-46732099D01*
X167499751Y-46732099D02*
X167318322Y-46641385D01*
X167318322Y-46641385D02*
X167227608Y-46459956D01*
X167227608Y-46459956D02*
X167227608Y-45734242D01*
X167227608Y-45734242D02*
X167318322Y-45552813D01*
X167318322Y-45552813D02*
X167499751Y-45462099D01*
X167499751Y-45462099D02*
X167862608Y-45462099D01*
X167862608Y-45462099D02*
X168044036Y-45552813D01*
X168044036Y-45552813D02*
X168134751Y-45734242D01*
X168134751Y-45734242D02*
X168134751Y-45915670D01*
X168134751Y-45915670D02*
X167227608Y-46097099D01*
X168951179Y-46732099D02*
X168951179Y-45462099D01*
X168951179Y-45824956D02*
X169041893Y-45643527D01*
X169041893Y-45643527D02*
X169132608Y-45552813D01*
X169132608Y-45552813D02*
X169314036Y-45462099D01*
X169314036Y-45462099D02*
X169495465Y-45462099D01*
X170130465Y-46550670D02*
X170221179Y-46641385D01*
X170221179Y-46641385D02*
X170130465Y-46732099D01*
X170130465Y-46732099D02*
X170039751Y-46641385D01*
X170039751Y-46641385D02*
X170130465Y-46550670D01*
X170130465Y-46550670D02*
X170130465Y-46732099D01*
X172489037Y-46732099D02*
X172489037Y-44827099D01*
X173305466Y-46187813D02*
X174212609Y-46187813D01*
X173124037Y-46732099D02*
X173759037Y-44827099D01*
X173759037Y-44827099D02*
X174394037Y-46732099D01*
X175029037Y-46732099D02*
X175029037Y-44827099D01*
X175029037Y-44827099D02*
X175754751Y-44827099D01*
X175754751Y-44827099D02*
X175936180Y-44917813D01*
X175936180Y-44917813D02*
X176026894Y-45008527D01*
X176026894Y-45008527D02*
X176117608Y-45189956D01*
X176117608Y-45189956D02*
X176117608Y-45462099D01*
X176117608Y-45462099D02*
X176026894Y-45643527D01*
X176026894Y-45643527D02*
X175936180Y-45734242D01*
X175936180Y-45734242D02*
X175754751Y-45824956D01*
X175754751Y-45824956D02*
X175029037Y-45824956D01*
D11*
X149486619Y-109388955D02*
X149486619Y-109198479D01*
X149486619Y-109198479D02*
X149534238Y-109103241D01*
X149534238Y-109103241D02*
X149629476Y-109008003D01*
X149629476Y-109008003D02*
X149819952Y-108960384D01*
X149819952Y-108960384D02*
X150153285Y-108960384D01*
X150153285Y-108960384D02*
X150343761Y-109008003D01*
X150343761Y-109008003D02*
X150439000Y-109103241D01*
X150439000Y-109103241D02*
X150486619Y-109198479D01*
X150486619Y-109198479D02*
X150486619Y-109388955D01*
X150486619Y-109388955D02*
X150439000Y-109484193D01*
X150439000Y-109484193D02*
X150343761Y-109579431D01*
X150343761Y-109579431D02*
X150153285Y-109627050D01*
X150153285Y-109627050D02*
X149819952Y-109627050D01*
X149819952Y-109627050D02*
X149629476Y-109579431D01*
X149629476Y-109579431D02*
X149534238Y-109484193D01*
X149534238Y-109484193D02*
X149486619Y-109388955D01*
X149962809Y-108198479D02*
X149962809Y-108531812D01*
X150486619Y-108531812D02*
X149486619Y-108531812D01*
X149486619Y-108531812D02*
X149486619Y-108055622D01*
X149962809Y-107341336D02*
X149962809Y-107674669D01*
X150486619Y-107674669D02*
X149486619Y-107674669D01*
X149486619Y-107674669D02*
X149486619Y-107198479D01*
X141118568Y-99559666D02*
X141880473Y-99559666D01*
X141499520Y-99940619D02*
X141499520Y-99178714D01*
X149486619Y-104054955D02*
X149486619Y-103864479D01*
X149486619Y-103864479D02*
X149534238Y-103769241D01*
X149534238Y-103769241D02*
X149629476Y-103674003D01*
X149629476Y-103674003D02*
X149819952Y-103626384D01*
X149819952Y-103626384D02*
X150153285Y-103626384D01*
X150153285Y-103626384D02*
X150343761Y-103674003D01*
X150343761Y-103674003D02*
X150439000Y-103769241D01*
X150439000Y-103769241D02*
X150486619Y-103864479D01*
X150486619Y-103864479D02*
X150486619Y-104054955D01*
X150486619Y-104054955D02*
X150439000Y-104150193D01*
X150439000Y-104150193D02*
X150343761Y-104245431D01*
X150343761Y-104245431D02*
X150153285Y-104293050D01*
X150153285Y-104293050D02*
X149819952Y-104293050D01*
X149819952Y-104293050D02*
X149629476Y-104245431D01*
X149629476Y-104245431D02*
X149534238Y-104150193D01*
X149534238Y-104150193D02*
X149486619Y-104054955D01*
X150486619Y-103197812D02*
X149486619Y-103197812D01*
X149486619Y-103197812D02*
X150486619Y-102626384D01*
X150486619Y-102626384D02*
X149486619Y-102626384D01*
D10*
X131214036Y-44827099D02*
X130306893Y-44827099D01*
X130306893Y-44827099D02*
X130216179Y-45734242D01*
X130216179Y-45734242D02*
X130306893Y-45643527D01*
X130306893Y-45643527D02*
X130488322Y-45552813D01*
X130488322Y-45552813D02*
X130941893Y-45552813D01*
X130941893Y-45552813D02*
X131123322Y-45643527D01*
X131123322Y-45643527D02*
X131214036Y-45734242D01*
X131214036Y-45734242D02*
X131304750Y-45915670D01*
X131304750Y-45915670D02*
X131304750Y-46369242D01*
X131304750Y-46369242D02*
X131214036Y-46550670D01*
X131214036Y-46550670D02*
X131123322Y-46641385D01*
X131123322Y-46641385D02*
X130941893Y-46732099D01*
X130941893Y-46732099D02*
X130488322Y-46732099D01*
X130488322Y-46732099D02*
X130306893Y-46641385D01*
X130306893Y-46641385D02*
X130216179Y-46550670D01*
X133028322Y-44827099D02*
X132121179Y-44827099D01*
X132121179Y-44827099D02*
X132030465Y-45734242D01*
X132030465Y-45734242D02*
X132121179Y-45643527D01*
X132121179Y-45643527D02*
X132302608Y-45552813D01*
X132302608Y-45552813D02*
X132756179Y-45552813D01*
X132756179Y-45552813D02*
X132937608Y-45643527D01*
X132937608Y-45643527D02*
X133028322Y-45734242D01*
X133028322Y-45734242D02*
X133119036Y-45915670D01*
X133119036Y-45915670D02*
X133119036Y-46369242D01*
X133119036Y-46369242D02*
X133028322Y-46550670D01*
X133028322Y-46550670D02*
X132937608Y-46641385D01*
X132937608Y-46641385D02*
X132756179Y-46732099D01*
X132756179Y-46732099D02*
X132302608Y-46732099D01*
X132302608Y-46732099D02*
X132121179Y-46641385D01*
X132121179Y-46641385D02*
X132030465Y-46550670D01*
X134842608Y-44827099D02*
X133935465Y-44827099D01*
X133935465Y-44827099D02*
X133844751Y-45734242D01*
X133844751Y-45734242D02*
X133935465Y-45643527D01*
X133935465Y-45643527D02*
X134116894Y-45552813D01*
X134116894Y-45552813D02*
X134570465Y-45552813D01*
X134570465Y-45552813D02*
X134751894Y-45643527D01*
X134751894Y-45643527D02*
X134842608Y-45734242D01*
X134842608Y-45734242D02*
X134933322Y-45915670D01*
X134933322Y-45915670D02*
X134933322Y-46369242D01*
X134933322Y-46369242D02*
X134842608Y-46550670D01*
X134842608Y-46550670D02*
X134751894Y-46641385D01*
X134751894Y-46641385D02*
X134570465Y-46732099D01*
X134570465Y-46732099D02*
X134116894Y-46732099D01*
X134116894Y-46732099D02*
X133935465Y-46641385D01*
X133935465Y-46641385D02*
X133844751Y-46550670D01*
X137836180Y-45734242D02*
X138108323Y-45824956D01*
X138108323Y-45824956D02*
X138199037Y-45915670D01*
X138199037Y-45915670D02*
X138289751Y-46097099D01*
X138289751Y-46097099D02*
X138289751Y-46369242D01*
X138289751Y-46369242D02*
X138199037Y-46550670D01*
X138199037Y-46550670D02*
X138108323Y-46641385D01*
X138108323Y-46641385D02*
X137926894Y-46732099D01*
X137926894Y-46732099D02*
X137201180Y-46732099D01*
X137201180Y-46732099D02*
X137201180Y-44827099D01*
X137201180Y-44827099D02*
X137836180Y-44827099D01*
X137836180Y-44827099D02*
X138017609Y-44917813D01*
X138017609Y-44917813D02*
X138108323Y-45008527D01*
X138108323Y-45008527D02*
X138199037Y-45189956D01*
X138199037Y-45189956D02*
X138199037Y-45371385D01*
X138199037Y-45371385D02*
X138108323Y-45552813D01*
X138108323Y-45552813D02*
X138017609Y-45643527D01*
X138017609Y-45643527D02*
X137836180Y-45734242D01*
X137836180Y-45734242D02*
X137201180Y-45734242D01*
X139922609Y-46732099D02*
X139922609Y-45734242D01*
X139922609Y-45734242D02*
X139831894Y-45552813D01*
X139831894Y-45552813D02*
X139650466Y-45462099D01*
X139650466Y-45462099D02*
X139287609Y-45462099D01*
X139287609Y-45462099D02*
X139106180Y-45552813D01*
X139922609Y-46641385D02*
X139741180Y-46732099D01*
X139741180Y-46732099D02*
X139287609Y-46732099D01*
X139287609Y-46732099D02*
X139106180Y-46641385D01*
X139106180Y-46641385D02*
X139015466Y-46459956D01*
X139015466Y-46459956D02*
X139015466Y-46278527D01*
X139015466Y-46278527D02*
X139106180Y-46097099D01*
X139106180Y-46097099D02*
X139287609Y-46006385D01*
X139287609Y-46006385D02*
X139741180Y-46006385D01*
X139741180Y-46006385D02*
X139922609Y-45915670D01*
X141646180Y-46732099D02*
X141646180Y-44827099D01*
X141646180Y-46641385D02*
X141464751Y-46732099D01*
X141464751Y-46732099D02*
X141101894Y-46732099D01*
X141101894Y-46732099D02*
X140920465Y-46641385D01*
X140920465Y-46641385D02*
X140829751Y-46550670D01*
X140829751Y-46550670D02*
X140739037Y-46369242D01*
X140739037Y-46369242D02*
X140739037Y-45824956D01*
X140739037Y-45824956D02*
X140829751Y-45643527D01*
X140829751Y-45643527D02*
X140920465Y-45552813D01*
X140920465Y-45552813D02*
X141101894Y-45462099D01*
X141101894Y-45462099D02*
X141464751Y-45462099D01*
X141464751Y-45462099D02*
X141646180Y-45552813D01*
X143369751Y-45462099D02*
X143369751Y-47004242D01*
X143369751Y-47004242D02*
X143279036Y-47185670D01*
X143279036Y-47185670D02*
X143188322Y-47276385D01*
X143188322Y-47276385D02*
X143006893Y-47367099D01*
X143006893Y-47367099D02*
X142734751Y-47367099D01*
X142734751Y-47367099D02*
X142553322Y-47276385D01*
X143369751Y-46641385D02*
X143188322Y-46732099D01*
X143188322Y-46732099D02*
X142825465Y-46732099D01*
X142825465Y-46732099D02*
X142644036Y-46641385D01*
X142644036Y-46641385D02*
X142553322Y-46550670D01*
X142553322Y-46550670D02*
X142462608Y-46369242D01*
X142462608Y-46369242D02*
X142462608Y-45824956D01*
X142462608Y-45824956D02*
X142553322Y-45643527D01*
X142553322Y-45643527D02*
X142644036Y-45552813D01*
X142644036Y-45552813D02*
X142825465Y-45462099D01*
X142825465Y-45462099D02*
X143188322Y-45462099D01*
X143188322Y-45462099D02*
X143369751Y-45552813D01*
X145002607Y-46641385D02*
X144821179Y-46732099D01*
X144821179Y-46732099D02*
X144458322Y-46732099D01*
X144458322Y-46732099D02*
X144276893Y-46641385D01*
X144276893Y-46641385D02*
X144186179Y-46459956D01*
X144186179Y-46459956D02*
X144186179Y-45734242D01*
X144186179Y-45734242D02*
X144276893Y-45552813D01*
X144276893Y-45552813D02*
X144458322Y-45462099D01*
X144458322Y-45462099D02*
X144821179Y-45462099D01*
X144821179Y-45462099D02*
X145002607Y-45552813D01*
X145002607Y-45552813D02*
X145093322Y-45734242D01*
X145093322Y-45734242D02*
X145093322Y-45915670D01*
X145093322Y-45915670D02*
X144186179Y-46097099D01*
D12*
%TO.C,R5*%
X155805200Y-103232200D02*
X156135200Y-103232200D01*
X155805200Y-109772200D02*
X155805200Y-103232200D01*
X156135200Y-109772200D02*
X155805200Y-109772200D01*
X158215200Y-109772200D02*
X158545200Y-109772200D01*
X158545200Y-103232200D02*
X158215200Y-103232200D01*
X158545200Y-109772200D02*
X158545200Y-103232200D01*
%TO.C,R1*%
X163044200Y-103232200D02*
X163044200Y-109772200D01*
X163044200Y-109772200D02*
X163374200Y-109772200D01*
X163374200Y-103232200D02*
X163044200Y-103232200D01*
X165454200Y-103232200D02*
X165784200Y-103232200D01*
X165784200Y-103232200D02*
X165784200Y-109772200D01*
X165784200Y-109772200D02*
X165454200Y-109772200D01*
%TO.C,R4*%
X170410200Y-103232200D02*
X170410200Y-109772200D01*
X170410200Y-109772200D02*
X170740200Y-109772200D01*
X170740200Y-103232200D02*
X170410200Y-103232200D01*
X172820200Y-103232200D02*
X173150200Y-103232200D01*
X173150200Y-103232200D02*
X173150200Y-109772200D01*
X173150200Y-109772200D02*
X172820200Y-109772200D01*
%TO.C,R7*%
X170415200Y-114062200D02*
X170415200Y-114392200D01*
X170415200Y-116802200D02*
X170415200Y-116472200D01*
X176955200Y-114062200D02*
X170415200Y-114062200D01*
X176955200Y-114392200D02*
X176955200Y-114062200D01*
X176955200Y-116472200D02*
X176955200Y-116802200D01*
X176955200Y-116802200D02*
X170415200Y-116802200D01*
D13*
%TO.C,S1*%
X151011200Y-100640600D02*
X151011200Y-101140600D01*
X151011200Y-100640600D02*
X151511200Y-100640600D01*
X151011200Y-112540600D02*
X151011200Y-112040600D01*
X151011200Y-112540600D02*
X151511200Y-112540600D01*
X155211200Y-100640600D02*
X154711200Y-100640600D01*
X155211200Y-100640600D02*
X155211200Y-101140600D01*
X155211200Y-112540600D02*
X154711200Y-112540600D01*
X155211200Y-112540600D02*
X155211200Y-112040600D01*
D12*
%TO.C,D1*%
X145449000Y-94270000D02*
X145605000Y-94270000D01*
X147765000Y-94270000D02*
X147921000Y-94270000D01*
X145449484Y-94270000D02*
G75*
G02*
X145606392Y-91037665I1235516J1560000D01*
G01*
X145605000Y-93750961D02*
G75*
G02*
X145605163Y-91668870I1080000J1040961D01*
G01*
X147763608Y-91037665D02*
G75*
G02*
X147920516Y-94270000I-1078608J-1672335D01*
G01*
X147764837Y-91668870D02*
G75*
G02*
X147765000Y-93750961I-1079837J-1041130D01*
G01*
D13*
%TO.C,BAT1*%
X135356600Y-101104700D02*
X138201400Y-101104700D01*
X135356600Y-103847900D02*
X135356600Y-101104700D01*
X143179800Y-101104700D02*
X140335000Y-101104700D01*
X143179800Y-103847900D02*
X143179800Y-101104700D01*
X150495000Y-114414300D02*
G75*
G02*
X128041400Y-114414300I-11226800J0D01*
G01*
X128041400Y-114414300D02*
G75*
G02*
X150495000Y-114414300I11226800J0D01*
G01*
D12*
%TO.C,C1*%
X168202600Y-121243600D02*
G75*
G02*
X162962600Y-121243600I-2620000J0D01*
G01*
X162962600Y-121243600D02*
G75*
G02*
X168202600Y-121243600I2620000J0D01*
G01*
%TO.C,C2*%
X176955200Y-120731600D02*
G75*
G02*
X170415200Y-120731600I-3270000J0D01*
G01*
X170415200Y-120731600D02*
G75*
G02*
X176955200Y-120731600I3270000J0D01*
G01*
%TO.C,R6*%
X159615200Y-103232200D02*
X159945200Y-103232200D01*
X159615200Y-109772200D02*
X159615200Y-103232200D01*
X159945200Y-109772200D02*
X159615200Y-109772200D01*
X162025200Y-109772200D02*
X162355200Y-109772200D01*
X162355200Y-103232200D02*
X162025200Y-103232200D01*
X162355200Y-109772200D02*
X162355200Y-103232200D01*
%TO.C,R3*%
X174220200Y-103232200D02*
X174220200Y-109772200D01*
X174220200Y-109772200D02*
X174550200Y-109772200D01*
X174550200Y-103232200D02*
X174220200Y-103232200D01*
X176630200Y-103232200D02*
X176960200Y-103232200D01*
X176960200Y-103232200D02*
X176960200Y-109772200D01*
X176960200Y-109772200D02*
X176630200Y-109772200D01*
%TO.C,R2*%
X166600200Y-103232200D02*
X166930200Y-103232200D01*
X166600200Y-109772200D02*
X166600200Y-103232200D01*
X166930200Y-109772200D02*
X166600200Y-109772200D01*
X169010200Y-109772200D02*
X169340200Y-109772200D01*
X169340200Y-103232200D02*
X169010200Y-103232200D01*
X169340200Y-109772200D02*
X169340200Y-103232200D01*
D14*
%TO.C,U1*%
X150825200Y-115686200D02*
X150825200Y-122798200D01*
X160985200Y-115686200D02*
X150825200Y-115686200D01*
X160985200Y-115686200D02*
X160985200Y-122798200D01*
X160985200Y-122798200D02*
X150825200Y-122798200D01*
X150930410Y-123306200D02*
G75*
G02*
X150211990Y-123306200I-359210J0D01*
G01*
X150211990Y-123306200D02*
G75*
G02*
X150930410Y-123306200I359210J0D01*
G01*
D13*
%TO.C,Q1*%
X163195200Y-113082200D02*
X163495200Y-112932200D01*
X163195200Y-113382200D02*
X163195200Y-113082200D01*
X163195200Y-117782200D02*
X163195200Y-117482200D01*
X163195200Y-117782200D02*
X163495200Y-117932200D01*
D15*
X166395200Y-113532200D02*
G75*
G02*
X166345200Y-117382200I-1950000J-1900000D01*
G01*
D12*
%TO.C,D2*%
X158149000Y-94270000D02*
X158305000Y-94270000D01*
X160465000Y-94270000D02*
X160621000Y-94270000D01*
X158149484Y-94270000D02*
G75*
G02*
X158306392Y-91037665I1235516J1560000D01*
G01*
X158305000Y-93750961D02*
G75*
G02*
X158305163Y-91668870I1080000J1040961D01*
G01*
X160463608Y-91037665D02*
G75*
G02*
X160620516Y-94270000I-1078608J-1672335D01*
G01*
X160464837Y-91668870D02*
G75*
G02*
X160465000Y-93750961I-1079837J-1041130D01*
G01*
%TD*%
G36*
X180282121Y-50820002D02*
G01*
X180328614Y-50873658D01*
X180340000Y-50926000D01*
X180340000Y-89282000D01*
X180319998Y-89350121D01*
X180266342Y-89396614D01*
X180214000Y-89408000D01*
X127634000Y-89408000D01*
X127565879Y-89387998D01*
X127519386Y-89334342D01*
X127508000Y-89282000D01*
X127508000Y-50926000D01*
X127528002Y-50857879D01*
X127581658Y-50811386D01*
X127634000Y-50800000D01*
X180214000Y-50800000D01*
X180282121Y-50820002D01*
G37*
M02*
